#N canvas 2896 942 450 443 10;
#X obj 25 121 s hub;
#X obj 25 52 loadbang;
#N canvas 658 598 450 300 kickseq 0;
#X obj 65 34 r hub;
#X obj 38 79 metro;
#X obj 38 11 loadbang;
#X obj 38 126 s dokick;
#X obj 96 126 s mainkick;
#X obj 204 48 r mainkick;
#X obj 204 72 random 3;
#X obj 204 97 sel 0;
#X obj 204 229 s dokick;
#X obj 231 125 r hub;
#X obj 231 148 * 10;
#X obj 204 173 delay;
#X obj 285 49 r mainkick;
#X obj 285 98 sel 0;
#X obj 285 230 s dokick;
#X obj 312 126 r hub;
#X obj 285 174 delay;
#X obj 65 56 * 8;
#X obj 312 149 * 4;
#X obj 363 47 r mainkick;
#X obj 363 96 sel 0;
#X obj 363 228 s dokick;
#X obj 390 124 r hub;
#X obj 363 172 delay;
#X obj 42 175 r dokick;
#X obj 32 277 dac~;
#X obj 42 199 t b f;
#X obj 42 247 *~ 1;
#X msg 38 103 1;
#X obj 390 147 * 2;
#X msg 363 200 0.25;
#X msg 205 203 0.5;
#X msg 284 202 0.333;
#X obj 285 73 random 4;
#X obj 363 71 random 5;
#X obj 42 222 thumpr 50 47 90 150;
#X connect 0 0 17 0;
#X connect 1 0 4 0;
#X connect 1 0 28 0;
#X connect 2 0 1 0;
#X connect 5 0 6 0;
#X connect 6 0 7 0;
#X connect 7 0 11 0;
#X connect 9 0 10 0;
#X connect 10 0 11 1;
#X connect 11 0 31 0;
#X connect 12 0 33 0;
#X connect 13 0 16 0;
#X connect 15 0 18 0;
#X connect 16 0 32 0;
#X connect 17 0 1 1;
#X connect 18 0 16 1;
#X connect 19 0 34 0;
#X connect 20 0 23 0;
#X connect 22 0 29 0;
#X connect 23 0 30 0;
#X connect 24 0 26 0;
#X connect 26 0 35 0;
#X connect 26 1 27 1;
#X connect 27 0 25 0;
#X connect 27 0 25 1;
#X connect 28 0 3 0;
#X connect 29 0 23 1;
#X connect 30 0 21 0;
#X connect 31 0 8 0;
#X connect 32 0 14 0;
#X connect 33 0 13 0;
#X connect 34 0 20 0;
#X connect 35 0 27 0;
#X restore 112 15 pd kickseq;
#N canvas 652 611 562 300 snarseq 0;
#X obj 55 66 r hub;
#X obj 55 88 * 12;
#X obj 28 111 metro;
#X obj 28 42 loadbang;
#X obj 28 178 s dosnar;
#X obj 163 42 r dosnar;
#X obj 162 264 dac~;
#X obj 88 141 s mainsnar;
#X obj 283 58 r mainsnar;
#X obj 283 80 random 3;
#X obj 283 104 sel 0;
#X obj 283 225 s dosnar;
#X obj 283 175 delay;
#X obj 310 129 r hub;
#X obj 310 151 * 4;
#X obj 360 58 r mainsnar;
#X obj 360 104 sel 0;
#X obj 360 225 s dosnar;
#X obj 360 175 delay;
#X obj 387 129 r hub;
#X obj 387 151 * 6;
#X obj 436 57 r mainsnar;
#X obj 436 103 sel 0;
#X obj 436 224 s dosnar;
#X obj 436 174 delay;
#X obj 463 128 r hub;
#X obj 463 150 * 2;
#X obj 163 196 *~ 1;
#X obj 163 68 t b f;
#X msg 28 140 1;
#X msg 283 200 0.5;
#X msg 436 200 0.25;
#X msg 360 200 0.333;
#X obj 360 80 random 4;
#X obj 436 79 random 5;
#X obj 163 164 klap;
#X connect 0 0 1 0;
#X connect 1 0 2 1;
#X connect 2 0 7 0;
#X connect 2 0 29 0;
#X connect 3 0 2 0;
#X connect 5 0 28 0;
#X connect 8 0 9 0;
#X connect 9 0 10 0;
#X connect 10 0 12 0;
#X connect 12 0 30 0;
#X connect 13 0 14 0;
#X connect 14 0 12 1;
#X connect 15 0 33 0;
#X connect 16 0 18 0;
#X connect 18 0 32 0;
#X connect 19 0 20 0;
#X connect 20 0 18 1;
#X connect 21 0 34 0;
#X connect 22 0 24 0;
#X connect 24 0 31 0;
#X connect 25 0 26 0;
#X connect 26 0 24 1;
#X connect 27 0 6 0;
#X connect 27 0 6 1;
#X connect 28 0 35 0;
#X connect 28 1 27 1;
#X connect 29 0 4 0;
#X connect 30 0 11 0;
#X connect 31 0 23 0;
#X connect 32 0 17 0;
#X connect 33 0 16 0;
#X connect 34 0 22 0;
#X connect 35 0 27 0;
#X restore 112 44 pd snarseq;
#N canvas 81 639 845 338 acctseq 0;
#X obj 65 76 r hub;
#X obj 38 121 metro;
#X obj 38 52 loadbang;
#X obj 38 152 s doacct;
#X obj 98 151 s mainacct;
#X obj 372 6 r doacct;
#X obj 373 316 dac~;
#X obj 374 277 mydelay;
#X obj 430 227 r hub;
#X obj 201 47 r mainacct;
#X obj 201 72 random 3;
#X obj 201 99 sel 0;
#X obj 229 126 r hub;
#X obj 229 149 * 24;
#X obj 202 172 delay;
#X obj 202 196 s doacct;
#X obj 275 47 r mainacct;
#X obj 275 99 sel 0;
#X obj 303 126 r hub;
#X obj 276 172 delay;
#X obj 276 196 s doacct;
#X obj 275 72 random 5;
#X obj 303 149 * 18;
#X msg 443 286 0.8;
#X obj 372 30 t b b b b b;
#X obj 387 55 random 3;
#X obj 387 77 sel 0 1 2;
#X obj 467 55 random 3;
#X obj 467 77 sel 0 1 2;
#X msg 501 100 1000;
#X msg 467 161 10;
#X msg 484 132 50;
#X msg 421 100 10000;
#X msg 387 161 100;
#X msg 404 131 500;
#X obj 373 251 *~ 0.3;
#X obj 373 204 thumpr 1000 10 50 50;
#X obj 430 250 * 4;
#X obj 65 98 * 16;
#X connect 0 0 38 0;
#X connect 1 0 3 0;
#X connect 1 0 4 0;
#X connect 2 0 1 0;
#X connect 5 0 24 0;
#X connect 7 0 6 0;
#X connect 7 0 6 1;
#X connect 8 0 37 0;
#X connect 9 0 10 0;
#X connect 10 0 11 0;
#X connect 11 0 14 0;
#X connect 12 0 13 0;
#X connect 13 0 14 1;
#X connect 14 0 15 0;
#X connect 16 0 21 0;
#X connect 17 0 19 0;
#X connect 18 0 22 0;
#X connect 19 0 20 0;
#X connect 21 0 17 0;
#X connect 22 0 19 1;
#X connect 23 0 7 2;
#X connect 24 0 36 0;
#X connect 24 1 25 0;
#X connect 24 2 27 0;
#X connect 25 0 26 0;
#X connect 26 0 33 0;
#X connect 26 1 34 0;
#X connect 26 2 32 0;
#X connect 27 0 28 0;
#X connect 28 0 30 0;
#X connect 28 1 31 0;
#X connect 28 2 29 0;
#X connect 29 0 36 2;
#X connect 30 0 36 2;
#X connect 31 0 36 2;
#X connect 32 0 36 1;
#X connect 33 0 36 1;
#X connect 34 0 36 1;
#X connect 35 0 7 0;
#X connect 36 0 35 0;
#X connect 37 0 7 1;
#X connect 38 0 1 1;
#X restore 112 102 pd acctseq;
#N canvas 721 510 450 442 hatseq 0;
#X obj 390 83 random 7;
#X obj 405 144 r hub;
#X obj 390 167 *;
#X obj 363 59 t f b;
#X obj 363 12 r div;
#X obj 363 36 * 100;
#X obj 363 196 pack;
#X obj 363 219 line;
#X floatatom 363 265 5 0 0 0 - - -;
#X obj 363 242 * 0.01;
#X obj 336 335 metro;
#X obj 378 287 r hub;
#X obj 363 309 *;
#X obj 336 359 s dohat;
#X obj 390 107 + 1;
#X obj 298 291 loadbang;
#X obj 43 125 sel 0 1 2 3;
#X obj 43 76 metro;
#X obj 70 30 r hub;
#X obj 90 254 s div;
#X obj 74 302 s div;
#X obj 106 206 s div;
#X obj 58 352 s div;
#X obj 43 398 s div;
#X obj 70 53 * 4;
#X obj 43 5 loadbang;
#X obj 58 326 f 0.5;
#X obj 43 374 f 0.25;
#X obj 43 100 random 32;
#X msg 106 183 1;
#X obj 74 278 f 2;
#X obj 90 230 f 3;
#X obj 197 115 r dohat;
#X obj 224 159 noise~;
#X obj 197 207 *~;
#X obj 188 266 dac~;
#X obj 196 138 ead~ 1 20;
#X obj 223 183 hip~ 4000;
#X obj 197 236 *~ 0.15;
#X connect 0 0 14 0;
#X connect 1 0 2 1;
#X connect 2 0 6 1;
#X connect 3 0 6 0;
#X connect 3 1 0 0;
#X connect 4 0 5 0;
#X connect 5 0 3 0;
#X connect 6 0 7 0;
#X connect 7 0 9 0;
#X connect 8 0 12 0;
#X connect 9 0 8 0;
#X connect 10 0 13 0;
#X connect 11 0 12 1;
#X connect 12 0 10 1;
#X connect 14 0 2 0;
#X connect 15 0 10 0;
#X connect 16 0 27 0;
#X connect 16 1 26 0;
#X connect 16 2 30 0;
#X connect 16 3 31 0;
#X connect 16 4 29 0;
#X connect 17 0 28 0;
#X connect 18 0 24 0;
#X connect 24 0 17 1;
#X connect 25 0 17 0;
#X connect 26 0 22 0;
#X connect 27 0 23 0;
#X connect 28 0 16 0;
#X connect 29 0 21 0;
#X connect 30 0 20 0;
#X connect 31 0 19 0;
#X connect 32 0 36 0;
#X connect 33 0 37 0;
#X connect 34 0 38 0;
#X connect 36 0 34 0;
#X connect 37 0 34 1;
#X connect 38 0 35 0;
#X connect 38 0 35 1;
#X restore 112 73 pd hatseq;
#X obj 25 75 metro 10;
#X msg 25 98 100;
#N canvas 3220 994 495 427 algomel 0;
#X obj 94 274 weighted;
#X obj 301 68 scalemaker;
#X obj 341 159 tabread scale_array;
#X obj 215 327 sel 0 1;
#X msg 264 349 4;
#X msg 215 351 0;
#X obj 341 208 mtof;
#X obj 370 280 osc~;
#X obj 333 399 dac~;
#X obj 116 328 sel 0 1;
#X msg 116 353 2;
#X obj 264 373 s index;
#X obj 215 374 s index;
#X obj 341 138 r index;
#X obj 341 232 t b f;
#X obj 340 305 *~;
#X msg 167 352 5;
#X obj 166 374 s index;
#X obj 116 376 s index;
#X obj 16 330 sel 0 1;
#X obj 66 375 s index;
#X obj 16 377 s index;
#X msg 67 353 6;
#X msg 16 354 2;
#X obj 95 87 counter;
#X obj 215 305 random 2;
#X obj 116 306 random 2;
#X obj 16 308 random 2;
#X obj 95 112 nanoseq;
#X obj 341 257 ead~ 10 800;
#X obj 95 63 metro 110;
#X obj 95 13 loadbang;
#X obj 146 37 r hub;
#X obj 340 373 *~;
#X obj 355 330 hsl 128 15 0.01 1 1 0 empty empty empty -2 -8 0 10 -262144
-1 -1 7500 1;
#X obj 352 351 sig~;
#X obj 341 183 + 48;
#X connect 0 0 27 0;
#X connect 0 1 26 0;
#X connect 0 2 25 0;
#X connect 2 0 36 0;
#X connect 3 0 5 0;
#X connect 3 1 4 0;
#X connect 4 0 11 0;
#X connect 5 0 12 0;
#X connect 6 0 14 0;
#X connect 7 0 15 1;
#X connect 9 0 10 0;
#X connect 9 1 16 0;
#X connect 10 0 18 0;
#X connect 13 0 2 0;
#X connect 14 0 29 0;
#X connect 14 1 7 0;
#X connect 15 0 33 0;
#X connect 16 0 17 0;
#X connect 19 0 23 0;
#X connect 19 1 22 0;
#X connect 22 0 20 0;
#X connect 23 0 21 0;
#X connect 24 0 28 0;
#X connect 25 0 3 0;
#X connect 26 0 9 0;
#X connect 27 0 19 0;
#X connect 28 0 0 0;
#X connect 29 0 15 0;
#X connect 30 0 24 0;
#X connect 31 0 30 0;
#X connect 32 0 30 1;
#X connect 33 0 8 0;
#X connect 33 0 8 1;
#X connect 34 0 35 0;
#X connect 35 0 33 1;
#X connect 36 0 6 0;
#X restore 112 131 pd algomel;
#X connect 1 0 6 0;
#X connect 6 0 7 0;
#X connect 7 0 0 0;
