#N canvas 2557 24 1920 998 10;
#X obj 28 -465 osc~;
#X obj 28 -489 mtof;
#X obj 29 -442 *~ 0.01;
#X obj 29 -419 throw~ out;
#X obj 298 220 catch~ out;
#X obj 28 -513 + 1;
#X obj 106 -464 osc~;
#X obj 106 -488 mtof;
#X obj 107 -441 *~ 0.01;
#X obj 185 -466 osc~;
#X obj 185 -490 mtof;
#X obj 186 -443 *~ 0.01;
#X obj 186 -420 throw~ out;
#X obj 260 -469 osc~;
#X obj 260 -493 mtof;
#X obj 261 -446 *~ 0.01;
#X obj 28 -536 r freq;
#X obj 106 -536 r freq;
#X obj 185 -537 r freq;
#X obj 260 -539 r freq;
#X obj 106 -512 + 2;
#X obj 185 -514 + 3;
#X obj 260 -517 + 4;
#X obj 683 58 s freq;
#X floatatom 683 37 5 0 0 0 - - -;
#X obj 336 -471 osc~;
#X obj 336 -495 mtof;
#X obj 337 -448 *~ 0.01;
#X obj 337 -425 throw~ out;
#X obj 336 -542 r freq;
#X obj 417 -466 osc~;
#X obj 417 -490 mtof;
#X obj 418 -443 *~ 0.01;
#X obj 417 -537 r freq;
#X obj 492 -465 osc~;
#X obj 492 -489 mtof;
#X obj 493 -442 *~ 0.01;
#X obj 493 -419 throw~ out;
#X obj 492 -536 r freq;
#X obj 564 -465 osc~;
#X obj 564 -489 mtof;
#X obj 565 -442 *~ 0.01;
#X obj 564 -536 r freq;
#X obj 636 -466 osc~;
#X obj 636 -490 mtof;
#X obj 637 -443 *~ 0.01;
#X obj 637 -420 throw~ out;
#X obj 636 -537 r freq;
#X obj 711 -468 osc~;
#X obj 711 -492 mtof;
#X obj 712 -445 *~ 0.01;
#X obj 711 -539 r freq;
#X obj 784 -491 mtof;
#X obj 785 -444 *~ 0.01;
#X obj 785 -421 throw~ out;
#X obj 784 -538 r freq;
#X obj 336 -519 + 5;
#X obj 417 -514 + 6;
#X obj 492 -513 + 7;
#X obj 564 -513 + 8;
#X obj 636 -514 + 9;
#X obj 711 -516 + 10;
#X obj 784 -515 + 11;
#X obj 784 -467 osc~;
#X obj 860 -470 osc~;
#X obj 860 -494 mtof;
#X obj 861 -447 *~ 0.01;
#X obj 860 -541 r freq;
#X obj 934 -470 osc~;
#X obj 934 -494 mtof;
#X obj 935 -447 *~ 0.01;
#X obj 935 -424 throw~ out;
#X obj 934 -541 r freq;
#X obj 1011 -470 osc~;
#X obj 1011 -494 mtof;
#X obj 1012 -447 *~ 0.01;
#X obj 1011 -541 r freq;
#X obj 1087 -469 osc~;
#X obj 1087 -493 mtof;
#X obj 1088 -446 *~ 0.01;
#X obj 1087 -540 r freq;
#X obj 1162 -470 osc~;
#X obj 1162 -494 mtof;
#X obj 1163 -447 *~ 0.01;
#X obj 1162 -541 r freq;
#X obj 1238 -470 osc~;
#X obj 1238 -494 mtof;
#X obj 1239 -447 *~ 0.01;
#X obj 1239 -424 throw~ out;
#X obj 1238 -541 r freq;
#X obj 1313 -472 osc~;
#X obj 1313 -496 mtof;
#X obj 1314 -449 *~ 0.01;
#X obj 1313 -543 r freq;
#X obj 1386 -474 osc~;
#X obj 1386 -498 mtof;
#X obj 1387 -451 *~ 0.01;
#X obj 1387 -428 throw~ out;
#X obj 1386 -545 r freq;
#X obj 1465 -475 osc~;
#X obj 1465 -499 mtof;
#X obj 1466 -452 *~ 0.01;
#X obj 1465 -546 r freq;
#X obj 1538 -475 osc~;
#X obj 1538 -499 mtof;
#X obj 1539 -452 *~ 0.01;
#X obj 1539 -429 throw~ out;
#X obj 1538 -546 r freq;
#X obj 1612 -475 osc~;
#X obj 1612 -499 mtof;
#X obj 1613 -452 *~ 0.01;
#X obj 1612 -546 r freq;
#X obj 1687 -478 osc~;
#X obj 1687 -502 mtof;
#X obj 1688 -455 *~ 0.01;
#X obj 1688 -432 throw~ out;
#X obj 1687 -549 r freq;
#X obj 1762 -479 osc~;
#X obj 1762 -503 mtof;
#X obj 1763 -456 *~ 0.01;
#X obj 1762 -550 r freq;
#X obj 860 -518 + 12;
#X obj 935 -518 + 13;
#X obj 1010 -518 + 14;
#X obj 1087 -517 + 15;
#X obj 1162 -518 + 16;
#X obj 1238 -518 + 17;
#X obj 1313 -520 + 18;
#X obj 1386 -522 + 19;
#X obj 1465 -523 + 20;
#X obj 1538 -523 + 21;
#X obj 1612 -523 + 22;
#X obj 1687 -526 + 23;
#X obj 1762 -527 + 24;
#X obj 317 244 catch~ out2;
#X obj 108 -418 throw~ out2;
#X obj 261 -423 throw~ out2;
#X obj 418 -420 throw~ out2;
#X obj 565 -419 throw~ out2;
#X obj 712 -422 throw~ out2;
#X obj 861 -424 throw~ out2;
#X obj 1012 -424 throw~ out2;
#X obj 1087 -423 throw~ out;
#X obj 1163 -424 throw~ out2;
#X obj 1314 -426 throw~ out2;
#X obj 1466 -429 throw~ out2;
#X obj 1613 -429 throw~ out2;
#X obj 1763 -433 throw~ out2;
#X obj 31 -314 osc~;
#X obj 31 -338 mtof;
#X obj 32 -291 *~ 0.01;
#X obj 32 -268 throw~ out;
#X obj 109 -313 osc~;
#X obj 109 -337 mtof;
#X obj 110 -290 *~ 0.01;
#X obj 188 -315 osc~;
#X obj 188 -339 mtof;
#X obj 189 -292 *~ 0.01;
#X obj 189 -269 throw~ out;
#X obj 263 -318 osc~;
#X obj 263 -342 mtof;
#X obj 264 -295 *~ 0.01;
#X obj 31 -385 r freq;
#X obj 109 -385 r freq;
#X obj 188 -386 r freq;
#X obj 263 -388 r freq;
#X obj 339 -320 osc~;
#X obj 339 -344 mtof;
#X obj 340 -297 *~ 0.01;
#X obj 340 -274 throw~ out;
#X obj 339 -391 r freq;
#X obj 420 -315 osc~;
#X obj 420 -339 mtof;
#X obj 421 -292 *~ 0.01;
#X obj 420 -386 r freq;
#X obj 495 -314 osc~;
#X obj 495 -338 mtof;
#X obj 496 -291 *~ 0.01;
#X obj 496 -268 throw~ out;
#X obj 495 -385 r freq;
#X obj 567 -314 osc~;
#X obj 567 -338 mtof;
#X obj 568 -291 *~ 0.01;
#X obj 567 -385 r freq;
#X obj 639 -315 osc~;
#X obj 639 -339 mtof;
#X obj 640 -292 *~ 0.01;
#X obj 640 -269 throw~ out;
#X obj 639 -386 r freq;
#X obj 714 -317 osc~;
#X obj 714 -341 mtof;
#X obj 715 -294 *~ 0.01;
#X obj 714 -388 r freq;
#X obj 787 -340 mtof;
#X obj 788 -293 *~ 0.01;
#X obj 788 -270 throw~ out;
#X obj 787 -387 r freq;
#X obj 787 -316 osc~;
#X obj 863 -319 osc~;
#X obj 863 -343 mtof;
#X obj 864 -296 *~ 0.01;
#X obj 863 -390 r freq;
#X obj 937 -319 osc~;
#X obj 937 -343 mtof;
#X obj 938 -296 *~ 0.01;
#X obj 938 -273 throw~ out;
#X obj 937 -390 r freq;
#X obj 1014 -319 osc~;
#X obj 1014 -343 mtof;
#X obj 1015 -296 *~ 0.01;
#X obj 1014 -390 r freq;
#X obj 1090 -318 osc~;
#X obj 1090 -342 mtof;
#X obj 1091 -295 *~ 0.01;
#X obj 1090 -389 r freq;
#X obj 1165 -319 osc~;
#X obj 1165 -343 mtof;
#X obj 1166 -296 *~ 0.01;
#X obj 1165 -390 r freq;
#X obj 1241 -319 osc~;
#X obj 1241 -343 mtof;
#X obj 1242 -296 *~ 0.01;
#X obj 1242 -273 throw~ out;
#X obj 1241 -390 r freq;
#X obj 1316 -321 osc~;
#X obj 1316 -345 mtof;
#X obj 1317 -298 *~ 0.01;
#X obj 1316 -392 r freq;
#X obj 1389 -323 osc~;
#X obj 1389 -347 mtof;
#X obj 1390 -300 *~ 0.01;
#X obj 1390 -277 throw~ out;
#X obj 1389 -394 r freq;
#X obj 1468 -324 osc~;
#X obj 1468 -348 mtof;
#X obj 1469 -301 *~ 0.01;
#X obj 1468 -395 r freq;
#X obj 1541 -324 osc~;
#X obj 1541 -348 mtof;
#X obj 1542 -301 *~ 0.01;
#X obj 1542 -278 throw~ out;
#X obj 1541 -395 r freq;
#X obj 1615 -324 osc~;
#X obj 1615 -348 mtof;
#X obj 1616 -301 *~ 0.01;
#X obj 1615 -395 r freq;
#X obj 1690 -327 osc~;
#X obj 1690 -351 mtof;
#X obj 1691 -304 *~ 0.01;
#X obj 1691 -281 throw~ out;
#X obj 1690 -398 r freq;
#X obj 1765 -328 osc~;
#X obj 1765 -352 mtof;
#X obj 1766 -305 *~ 0.01;
#X obj 1765 -399 r freq;
#X obj 111 -267 throw~ out2;
#X obj 264 -272 throw~ out2;
#X obj 421 -269 throw~ out2;
#X obj 568 -268 throw~ out2;
#X obj 715 -271 throw~ out2;
#X obj 864 -273 throw~ out2;
#X obj 1015 -273 throw~ out2;
#X obj 1090 -272 throw~ out;
#X obj 1166 -273 throw~ out2;
#X obj 1317 -275 throw~ out2;
#X obj 1469 -278 throw~ out2;
#X obj 1616 -278 throw~ out2;
#X obj 1766 -282 throw~ out2;
#X obj 31 -362 + 25;
#X obj 109 -361 + 26;
#X obj 188 -363 + 27;
#X obj 263 -366 + 28;
#X obj 339 -368 + 29;
#X obj 420 -363 + 30;
#X obj 495 -362 + 31;
#X obj 567 -362 + 32;
#X obj 639 -363 + 33;
#X obj 714 -365 + 34;
#X obj 787 -364 + 35;
#X obj 863 -367 + 36;
#X obj 938 -367 + 37;
#X obj 1013 -367 + 38;
#X obj 1090 -366 + 39;
#X obj 1165 -367 + 40;
#X obj 1241 -367 + 41;
#X obj 1316 -369 + 42;
#X obj 1389 -371 + 43;
#X obj 1468 -372 + 44;
#X obj 1541 -372 + 45;
#X obj 1615 -372 + 46;
#X obj 1690 -375 + 47;
#X obj 1765 -376 + 48;
#X obj 35 -163 osc~;
#X obj 35 -187 mtof;
#X obj 36 -140 *~ 0.01;
#X obj 36 -117 throw~ out;
#X obj 113 -162 osc~;
#X obj 113 -186 mtof;
#X obj 114 -139 *~ 0.01;
#X obj 192 -164 osc~;
#X obj 192 -188 mtof;
#X obj 193 -141 *~ 0.01;
#X obj 193 -118 throw~ out;
#X obj 267 -167 osc~;
#X obj 267 -191 mtof;
#X obj 268 -144 *~ 0.01;
#X obj 35 -234 r freq;
#X obj 113 -234 r freq;
#X obj 192 -235 r freq;
#X obj 267 -237 r freq;
#X obj 343 -169 osc~;
#X obj 343 -193 mtof;
#X obj 344 -146 *~ 0.01;
#X obj 344 -123 throw~ out;
#X obj 343 -240 r freq;
#X obj 424 -164 osc~;
#X obj 424 -188 mtof;
#X obj 425 -141 *~ 0.01;
#X obj 424 -235 r freq;
#X obj 499 -163 osc~;
#X obj 499 -187 mtof;
#X obj 500 -140 *~ 0.01;
#X obj 500 -117 throw~ out;
#X obj 499 -234 r freq;
#X obj 571 -163 osc~;
#X obj 571 -187 mtof;
#X obj 572 -140 *~ 0.01;
#X obj 571 -234 r freq;
#X obj 643 -164 osc~;
#X obj 643 -188 mtof;
#X obj 644 -141 *~ 0.01;
#X obj 644 -118 throw~ out;
#X obj 643 -235 r freq;
#X obj 718 -166 osc~;
#X obj 718 -190 mtof;
#X obj 719 -143 *~ 0.01;
#X obj 718 -237 r freq;
#X obj 791 -189 mtof;
#X obj 792 -142 *~ 0.01;
#X obj 792 -119 throw~ out;
#X obj 791 -236 r freq;
#X obj 791 -165 osc~;
#X obj 867 -168 osc~;
#X obj 867 -192 mtof;
#X obj 868 -145 *~ 0.01;
#X obj 867 -239 r freq;
#X obj 941 -168 osc~;
#X obj 941 -192 mtof;
#X obj 942 -145 *~ 0.01;
#X obj 942 -122 throw~ out;
#X obj 941 -239 r freq;
#X obj 1018 -168 osc~;
#X obj 1018 -192 mtof;
#X obj 1019 -145 *~ 0.01;
#X obj 1018 -239 r freq;
#X obj 1094 -167 osc~;
#X obj 1094 -191 mtof;
#X obj 1095 -144 *~ 0.01;
#X obj 1094 -238 r freq;
#X obj 1169 -168 osc~;
#X obj 1169 -192 mtof;
#X obj 1170 -145 *~ 0.01;
#X obj 1169 -239 r freq;
#X obj 1245 -168 osc~;
#X obj 1245 -192 mtof;
#X obj 1246 -145 *~ 0.01;
#X obj 1246 -122 throw~ out;
#X obj 1245 -239 r freq;
#X obj 1320 -170 osc~;
#X obj 1320 -194 mtof;
#X obj 1321 -147 *~ 0.01;
#X obj 1320 -241 r freq;
#X obj 1393 -172 osc~;
#X obj 1393 -196 mtof;
#X obj 1394 -149 *~ 0.01;
#X obj 1394 -126 throw~ out;
#X obj 1393 -243 r freq;
#X obj 1472 -173 osc~;
#X obj 1472 -197 mtof;
#X obj 1473 -150 *~ 0.01;
#X obj 1472 -244 r freq;
#X obj 1545 -173 osc~;
#X obj 1545 -197 mtof;
#X obj 1546 -150 *~ 0.01;
#X obj 1546 -127 throw~ out;
#X obj 1545 -244 r freq;
#X obj 1619 -173 osc~;
#X obj 1619 -197 mtof;
#X obj 1620 -150 *~ 0.01;
#X obj 1619 -244 r freq;
#X obj 1694 -176 osc~;
#X obj 1694 -200 mtof;
#X obj 1695 -153 *~ 0.01;
#X obj 1695 -130 throw~ out;
#X obj 1694 -247 r freq;
#X obj 1769 -177 osc~;
#X obj 1769 -201 mtof;
#X obj 1770 -154 *~ 0.01;
#X obj 1769 -248 r freq;
#X obj 115 -116 throw~ out2;
#X obj 268 -121 throw~ out2;
#X obj 425 -118 throw~ out2;
#X obj 572 -117 throw~ out2;
#X obj 719 -120 throw~ out2;
#X obj 868 -122 throw~ out2;
#X obj 1019 -122 throw~ out2;
#X obj 1094 -121 throw~ out;
#X obj 1170 -122 throw~ out2;
#X obj 1321 -124 throw~ out2;
#X obj 1473 -127 throw~ out2;
#X obj 1620 -127 throw~ out2;
#X obj 1770 -131 throw~ out2;
#X obj 35 -211 + 49;
#X obj 113 -210 + 50;
#X obj 192 -212 + 51;
#X obj 267 -215 + 52;
#X obj 343 -217 + 53;
#X obj 424 -212 + 54;
#X obj 499 -211 + 55;
#X obj 571 -211 + 56;
#X obj 643 -212 + 57;
#X obj 718 -214 + 58;
#X obj 791 -213 + 59;
#X obj 867 -216 + 60;
#X obj 942 -216 + 61;
#X obj 1017 -216 + 62;
#X obj 1094 -215 + 63;
#X obj 1169 -216 + 64;
#X obj 1246 -216 + 65;
#X obj 1320 -218 + 66;
#X obj 1393 -220 + 67;
#X obj 1472 -221 + 68;
#X obj 1545 -221 + 69;
#X obj 1619 -221 + 70;
#X obj 1694 -224 + 71;
#X obj 1769 -225 + 72;
#X msg 765 35 1;
#X obj 491 186 * 0.0001;
#X obj 765 60 metro 1000;
#X floatatom 491 211 5 0 0 0 - - -;
#X obj 491 236 pack f 1000;
#X obj 492 257 line;
#X obj 66 -469 r v1;
#X obj 148 -468 r v2;
#X obj 225 -469 r v3;
#X obj 297 -471 r v4;
#X obj 374 -474 r v5;
#X obj 452 -474 r v6;
#X obj 492 281 s v1;
#X obj 597 182 * 0.0001;
#X floatatom 597 207 5 0 0 0 - - -;
#X obj 597 232 pack f 1000;
#X obj 598 253 line;
#X obj 698 181 * 0.0001;
#X floatatom 698 206 5 0 0 0 - - -;
#X obj 698 231 pack f 1000;
#X obj 699 252 line;
#X obj 796 185 * 0.0001;
#X floatatom 796 210 5 0 0 0 - - -;
#X obj 796 235 pack f 1000;
#X obj 797 256 line;
#X obj 891 179 * 0.0001;
#X floatatom 891 204 5 0 0 0 - - -;
#X obj 891 229 pack f 1000;
#X obj 892 250 line;
#X obj 1000 180 * 0.0001;
#X floatatom 1000 205 5 0 0 0 - - -;
#X obj 1000 230 pack f 1000;
#X obj 1001 251 line;
#X obj 519 -470 r v1;
#X obj 601 -469 r v2;
#X obj 678 -470 r v3;
#X obj 750 -472 r v4;
#X obj 824 -473 r v5;
#X obj 905 -475 r v6;
#X obj 970 -473 r v1;
#X obj 1052 -472 r v2;
#X obj 1129 -473 r v3;
#X obj 1201 -475 r v4;
#X obj 1278 -478 r v5;
#X obj 1356 -478 r v6;
#X obj 1419 -475 r v1;
#X obj 1501 -474 r v2;
#X obj 1578 -475 r v3;
#X obj 1650 -477 r v4;
#X obj 1727 -480 r v5;
#X obj 1805 -480 r v6;
#X obj 598 277 s v2;
#X obj 699 276 s v3;
#X obj 797 280 s v4;
#X obj 892 274 s v5;
#X obj 1001 275 s v6;
#X obj 66 -316 r v1;
#X obj 148 -315 r v2;
#X obj 225 -316 r v3;
#X obj 297 -318 r v4;
#X obj 374 -321 r v5;
#X obj 452 -321 r v6;
#X obj 519 -317 r v1;
#X obj 601 -316 r v2;
#X obj 678 -317 r v3;
#X obj 750 -319 r v4;
#X obj 824 -320 r v5;
#X obj 905 -322 r v6;
#X obj 970 -320 r v1;
#X obj 1052 -319 r v2;
#X obj 1129 -320 r v3;
#X obj 1201 -322 r v4;
#X obj 1278 -325 r v5;
#X obj 1356 -325 r v6;
#X obj 1425 -324 r v1;
#X obj 1501 -321 r v2;
#X obj 1578 -322 r v3;
#X obj 1650 -324 r v4;
#X obj 1727 -327 r v5;
#X obj 1805 -327 r v6;
#X obj 72 -170 r v1;
#X obj 154 -169 r v2;
#X obj 231 -170 r v3;
#X obj 303 -172 r v4;
#X obj 380 -175 r v5;
#X obj 458 -175 r v6;
#X obj 525 -171 r v1;
#X obj 607 -170 r v2;
#X obj 684 -171 r v3;
#X obj 756 -173 r v4;
#X obj 830 -174 r v5;
#X obj 911 -176 r v6;
#X obj 976 -174 r v1;
#X obj 1058 -173 r v2;
#X obj 1135 -174 r v3;
#X obj 1207 -176 r v4;
#X obj 1284 -179 r v5;
#X obj 1362 -179 r v6;
#X obj 1425 -176 r v1;
#X obj 1507 -175 r v2;
#X obj 1584 -176 r v3;
#X obj 1656 -178 r v4;
#X obj 1733 -181 r v5;
#X obj 1811 -181 r v6;
#X obj 491 161 random 300;
#X obj 597 157 random 300;
#X obj 698 156 random 300;
#X obj 796 160 random 300;
#X obj 891 154 random 300;
#X obj 1000 155 random 300;
#X obj 297 267 outlet~;
#X obj 327 296 outlet~;
#X obj 718 -17 loadbang;
#X connect 0 0 2 0;
#X connect 1 0 0 0;
#X connect 2 0 3 0;
#X connect 4 0 546 0;
#X connect 5 0 1 0;
#X connect 6 0 8 0;
#X connect 7 0 6 0;
#X connect 8 0 135 0;
#X connect 9 0 11 0;
#X connect 10 0 9 0;
#X connect 11 0 12 0;
#X connect 13 0 15 0;
#X connect 14 0 13 0;
#X connect 15 0 136 0;
#X connect 16 0 5 0;
#X connect 17 0 20 0;
#X connect 18 0 21 0;
#X connect 19 0 22 0;
#X connect 20 0 7 0;
#X connect 21 0 10 0;
#X connect 22 0 14 0;
#X connect 24 0 23 0;
#X connect 25 0 27 0;
#X connect 26 0 25 0;
#X connect 27 0 28 0;
#X connect 29 0 56 0;
#X connect 30 0 32 0;
#X connect 31 0 30 0;
#X connect 32 0 137 0;
#X connect 33 0 57 0;
#X connect 34 0 36 0;
#X connect 35 0 34 0;
#X connect 36 0 37 0;
#X connect 38 0 58 0;
#X connect 39 0 41 0;
#X connect 40 0 39 0;
#X connect 41 0 138 0;
#X connect 42 0 59 0;
#X connect 43 0 45 0;
#X connect 44 0 43 0;
#X connect 45 0 46 0;
#X connect 47 0 60 0;
#X connect 48 0 50 0;
#X connect 49 0 48 0;
#X connect 50 0 139 0;
#X connect 51 0 61 0;
#X connect 52 0 63 0;
#X connect 53 0 54 0;
#X connect 55 0 62 0;
#X connect 56 0 26 0;
#X connect 57 0 31 0;
#X connect 58 0 35 0;
#X connect 59 0 40 0;
#X connect 60 0 44 0;
#X connect 61 0 49 0;
#X connect 62 0 52 0;
#X connect 63 0 53 0;
#X connect 64 0 66 0;
#X connect 65 0 64 0;
#X connect 66 0 140 0;
#X connect 67 0 121 0;
#X connect 68 0 70 0;
#X connect 69 0 68 0;
#X connect 70 0 71 0;
#X connect 72 0 122 0;
#X connect 73 0 75 0;
#X connect 74 0 73 0;
#X connect 75 0 141 0;
#X connect 76 0 123 0;
#X connect 77 0 79 0;
#X connect 78 0 77 0;
#X connect 79 0 142 0;
#X connect 80 0 124 0;
#X connect 81 0 83 0;
#X connect 82 0 81 0;
#X connect 83 0 143 0;
#X connect 84 0 125 0;
#X connect 85 0 87 0;
#X connect 86 0 85 0;
#X connect 87 0 88 0;
#X connect 89 0 126 0;
#X connect 90 0 92 0;
#X connect 91 0 90 0;
#X connect 92 0 144 0;
#X connect 93 0 127 0;
#X connect 94 0 96 0;
#X connect 95 0 94 0;
#X connect 96 0 97 0;
#X connect 98 0 128 0;
#X connect 99 0 101 0;
#X connect 100 0 99 0;
#X connect 101 0 145 0;
#X connect 102 0 129 0;
#X connect 103 0 105 0;
#X connect 104 0 103 0;
#X connect 105 0 106 0;
#X connect 107 0 130 0;
#X connect 108 0 110 0;
#X connect 109 0 108 0;
#X connect 110 0 146 0;
#X connect 111 0 131 0;
#X connect 112 0 114 0;
#X connect 113 0 112 0;
#X connect 114 0 115 0;
#X connect 116 0 132 0;
#X connect 117 0 119 0;
#X connect 118 0 117 0;
#X connect 119 0 147 0;
#X connect 120 0 133 0;
#X connect 121 0 65 0;
#X connect 122 0 69 0;
#X connect 123 0 74 0;
#X connect 124 0 78 0;
#X connect 125 0 82 0;
#X connect 126 0 86 0;
#X connect 127 0 91 0;
#X connect 128 0 95 0;
#X connect 129 0 100 0;
#X connect 130 0 104 0;
#X connect 131 0 109 0;
#X connect 132 0 113 0;
#X connect 133 0 118 0;
#X connect 134 0 547 0;
#X connect 148 0 150 0;
#X connect 149 0 148 0;
#X connect 150 0 151 0;
#X connect 152 0 154 0;
#X connect 153 0 152 0;
#X connect 154 0 255 0;
#X connect 155 0 157 0;
#X connect 156 0 155 0;
#X connect 157 0 158 0;
#X connect 159 0 161 0;
#X connect 160 0 159 0;
#X connect 161 0 256 0;
#X connect 162 0 268 0;
#X connect 163 0 269 0;
#X connect 164 0 270 0;
#X connect 165 0 271 0;
#X connect 166 0 168 0;
#X connect 167 0 166 0;
#X connect 168 0 169 0;
#X connect 170 0 272 0;
#X connect 171 0 173 0;
#X connect 172 0 171 0;
#X connect 173 0 257 0;
#X connect 174 0 273 0;
#X connect 175 0 177 0;
#X connect 176 0 175 0;
#X connect 177 0 178 0;
#X connect 179 0 274 0;
#X connect 180 0 182 0;
#X connect 181 0 180 0;
#X connect 182 0 258 0;
#X connect 183 0 275 0;
#X connect 184 0 186 0;
#X connect 185 0 184 0;
#X connect 186 0 187 0;
#X connect 188 0 276 0;
#X connect 189 0 191 0;
#X connect 190 0 189 0;
#X connect 191 0 259 0;
#X connect 192 0 277 0;
#X connect 193 0 197 0;
#X connect 194 0 195 0;
#X connect 196 0 278 0;
#X connect 197 0 194 0;
#X connect 198 0 200 0;
#X connect 199 0 198 0;
#X connect 200 0 260 0;
#X connect 201 0 279 0;
#X connect 202 0 204 0;
#X connect 203 0 202 0;
#X connect 204 0 205 0;
#X connect 206 0 280 0;
#X connect 207 0 209 0;
#X connect 208 0 207 0;
#X connect 209 0 261 0;
#X connect 210 0 281 0;
#X connect 211 0 213 0;
#X connect 212 0 211 0;
#X connect 213 0 262 0;
#X connect 214 0 282 0;
#X connect 215 0 217 0;
#X connect 216 0 215 0;
#X connect 217 0 263 0;
#X connect 218 0 283 0;
#X connect 219 0 221 0;
#X connect 220 0 219 0;
#X connect 221 0 222 0;
#X connect 223 0 284 0;
#X connect 224 0 226 0;
#X connect 225 0 224 0;
#X connect 226 0 264 0;
#X connect 227 0 285 0;
#X connect 228 0 230 0;
#X connect 229 0 228 0;
#X connect 230 0 231 0;
#X connect 232 0 286 0;
#X connect 233 0 235 0;
#X connect 234 0 233 0;
#X connect 235 0 265 0;
#X connect 236 0 287 0;
#X connect 237 0 239 0;
#X connect 238 0 237 0;
#X connect 239 0 240 0;
#X connect 241 0 288 0;
#X connect 242 0 244 0;
#X connect 243 0 242 0;
#X connect 244 0 266 0;
#X connect 245 0 289 0;
#X connect 246 0 248 0;
#X connect 247 0 246 0;
#X connect 248 0 249 0;
#X connect 250 0 290 0;
#X connect 251 0 253 0;
#X connect 252 0 251 0;
#X connect 253 0 267 0;
#X connect 254 0 291 0;
#X connect 268 0 149 0;
#X connect 269 0 153 0;
#X connect 270 0 156 0;
#X connect 271 0 160 0;
#X connect 272 0 167 0;
#X connect 273 0 172 0;
#X connect 274 0 176 0;
#X connect 275 0 181 0;
#X connect 276 0 185 0;
#X connect 277 0 190 0;
#X connect 278 0 193 0;
#X connect 279 0 199 0;
#X connect 280 0 203 0;
#X connect 281 0 208 0;
#X connect 282 0 212 0;
#X connect 283 0 216 0;
#X connect 284 0 220 0;
#X connect 285 0 225 0;
#X connect 286 0 229 0;
#X connect 287 0 234 0;
#X connect 288 0 238 0;
#X connect 289 0 243 0;
#X connect 290 0 247 0;
#X connect 291 0 252 0;
#X connect 292 0 294 0;
#X connect 293 0 292 0;
#X connect 294 0 295 0;
#X connect 296 0 298 0;
#X connect 297 0 296 0;
#X connect 298 0 399 0;
#X connect 299 0 301 0;
#X connect 300 0 299 0;
#X connect 301 0 302 0;
#X connect 303 0 305 0;
#X connect 304 0 303 0;
#X connect 305 0 400 0;
#X connect 306 0 412 0;
#X connect 307 0 413 0;
#X connect 308 0 414 0;
#X connect 309 0 415 0;
#X connect 310 0 312 0;
#X connect 311 0 310 0;
#X connect 312 0 313 0;
#X connect 314 0 416 0;
#X connect 315 0 317 0;
#X connect 316 0 315 0;
#X connect 317 0 401 0;
#X connect 318 0 417 0;
#X connect 319 0 321 0;
#X connect 320 0 319 0;
#X connect 321 0 322 0;
#X connect 323 0 418 0;
#X connect 324 0 326 0;
#X connect 325 0 324 0;
#X connect 326 0 402 0;
#X connect 327 0 419 0;
#X connect 328 0 330 0;
#X connect 329 0 328 0;
#X connect 330 0 331 0;
#X connect 332 0 420 0;
#X connect 333 0 335 0;
#X connect 334 0 333 0;
#X connect 335 0 403 0;
#X connect 336 0 421 0;
#X connect 337 0 341 0;
#X connect 338 0 339 0;
#X connect 340 0 422 0;
#X connect 341 0 338 0;
#X connect 342 0 344 0;
#X connect 343 0 342 0;
#X connect 344 0 404 0;
#X connect 345 0 423 0;
#X connect 346 0 348 0;
#X connect 347 0 346 0;
#X connect 348 0 349 0;
#X connect 350 0 424 0;
#X connect 351 0 353 0;
#X connect 352 0 351 0;
#X connect 353 0 405 0;
#X connect 354 0 425 0;
#X connect 355 0 357 0;
#X connect 356 0 355 0;
#X connect 357 0 406 0;
#X connect 358 0 426 0;
#X connect 359 0 361 0;
#X connect 360 0 359 0;
#X connect 361 0 407 0;
#X connect 362 0 427 0;
#X connect 363 0 365 0;
#X connect 364 0 363 0;
#X connect 365 0 366 0;
#X connect 367 0 428 0;
#X connect 368 0 370 0;
#X connect 369 0 368 0;
#X connect 370 0 408 0;
#X connect 371 0 429 0;
#X connect 372 0 374 0;
#X connect 373 0 372 0;
#X connect 374 0 375 0;
#X connect 376 0 430 0;
#X connect 377 0 379 0;
#X connect 378 0 377 0;
#X connect 379 0 409 0;
#X connect 380 0 431 0;
#X connect 381 0 383 0;
#X connect 382 0 381 0;
#X connect 383 0 384 0;
#X connect 385 0 432 0;
#X connect 386 0 388 0;
#X connect 387 0 386 0;
#X connect 388 0 410 0;
#X connect 389 0 433 0;
#X connect 390 0 392 0;
#X connect 391 0 390 0;
#X connect 392 0 393 0;
#X connect 394 0 434 0;
#X connect 395 0 397 0;
#X connect 396 0 395 0;
#X connect 397 0 411 0;
#X connect 398 0 435 0;
#X connect 412 0 293 0;
#X connect 413 0 297 0;
#X connect 414 0 300 0;
#X connect 415 0 304 0;
#X connect 416 0 311 0;
#X connect 417 0 316 0;
#X connect 418 0 320 0;
#X connect 419 0 325 0;
#X connect 420 0 329 0;
#X connect 421 0 334 0;
#X connect 422 0 337 0;
#X connect 423 0 343 0;
#X connect 424 0 347 0;
#X connect 425 0 352 0;
#X connect 426 0 356 0;
#X connect 427 0 360 0;
#X connect 428 0 364 0;
#X connect 429 0 369 0;
#X connect 430 0 373 0;
#X connect 431 0 378 0;
#X connect 432 0 382 0;
#X connect 433 0 387 0;
#X connect 434 0 391 0;
#X connect 435 0 396 0;
#X connect 436 0 438 0;
#X connect 436 0 24 0;
#X connect 437 0 439 0;
#X connect 438 0 540 0;
#X connect 438 0 541 0;
#X connect 438 0 542 0;
#X connect 438 0 543 0;
#X connect 438 0 544 0;
#X connect 438 0 545 0;
#X connect 439 0 440 0;
#X connect 440 0 441 0;
#X connect 441 0 448 0;
#X connect 442 0 2 1;
#X connect 443 0 8 1;
#X connect 444 0 11 1;
#X connect 445 0 15 1;
#X connect 446 0 27 1;
#X connect 447 0 32 1;
#X connect 449 0 450 0;
#X connect 450 0 451 0;
#X connect 451 0 452 0;
#X connect 452 0 487 0;
#X connect 453 0 454 0;
#X connect 454 0 455 0;
#X connect 455 0 456 0;
#X connect 456 0 488 0;
#X connect 457 0 458 0;
#X connect 458 0 459 0;
#X connect 459 0 460 0;
#X connect 460 0 489 0;
#X connect 461 0 462 0;
#X connect 462 0 463 0;
#X connect 463 0 464 0;
#X connect 464 0 490 0;
#X connect 465 0 466 0;
#X connect 466 0 467 0;
#X connect 467 0 468 0;
#X connect 468 0 491 0;
#X connect 469 0 36 1;
#X connect 470 0 41 1;
#X connect 471 0 45 1;
#X connect 472 0 50 1;
#X connect 473 0 53 1;
#X connect 474 0 66 1;
#X connect 475 0 70 1;
#X connect 476 0 75 1;
#X connect 477 0 79 1;
#X connect 478 0 83 1;
#X connect 479 0 87 1;
#X connect 480 0 92 1;
#X connect 481 0 96 1;
#X connect 482 0 101 1;
#X connect 483 0 105 1;
#X connect 484 0 110 1;
#X connect 485 0 114 1;
#X connect 486 0 119 1;
#X connect 492 0 150 1;
#X connect 493 0 154 1;
#X connect 494 0 157 1;
#X connect 495 0 161 1;
#X connect 496 0 168 1;
#X connect 497 0 173 1;
#X connect 498 0 177 1;
#X connect 499 0 182 1;
#X connect 500 0 186 1;
#X connect 501 0 191 1;
#X connect 502 0 194 1;
#X connect 503 0 200 1;
#X connect 504 0 204 1;
#X connect 505 0 209 1;
#X connect 506 0 213 1;
#X connect 507 0 217 1;
#X connect 508 0 221 1;
#X connect 509 0 226 1;
#X connect 510 0 230 1;
#X connect 511 0 235 1;
#X connect 512 0 239 1;
#X connect 513 0 244 1;
#X connect 514 0 248 1;
#X connect 515 0 253 1;
#X connect 516 0 294 1;
#X connect 517 0 298 1;
#X connect 518 0 301 1;
#X connect 519 0 305 1;
#X connect 520 0 312 1;
#X connect 521 0 317 1;
#X connect 522 0 321 1;
#X connect 523 0 326 1;
#X connect 524 0 330 1;
#X connect 525 0 335 1;
#X connect 526 0 338 1;
#X connect 527 0 344 1;
#X connect 528 0 348 1;
#X connect 529 0 353 1;
#X connect 530 0 357 1;
#X connect 531 0 361 1;
#X connect 532 0 365 1;
#X connect 533 0 370 1;
#X connect 534 0 374 1;
#X connect 535 0 379 1;
#X connect 536 0 383 1;
#X connect 537 0 388 1;
#X connect 538 0 392 1;
#X connect 539 0 397 1;
#X connect 540 0 437 0;
#X connect 541 0 449 0;
#X connect 542 0 453 0;
#X connect 543 0 457 0;
#X connect 544 0 461 0;
#X connect 545 0 465 0;
#X connect 548 0 436 0;
