#N canvas 0 0 450 300 10;
#X obj 54 75 ctlin;
#X obj 67 99 sel 20 21 22 23 95 102 103 19;
#X obj 67 123 s button1;
#X obj 83 146 s button2;
#X obj 106 170 s button3;
#X obj 118 193 s button4;
#X obj 150 123 s button5;
#X obj 171 149 s button6;
#X obj 193 176 s button7;
#X obj 211 200 s button8;
#X connect 0 1 1 0;
#X connect 1 0 2 0;
#X connect 1 1 3 0;
#X connect 1 2 4 0;
#X connect 1 3 5 0;
#X connect 1 4 6 0;
#X connect 1 5 7 0;
#X connect 1 6 8 0;
#X connect 1 7 9 0;
