#N canvas 459 504 450 300 10;
#X obj 93 83 phasor~ 4410;
#X obj 41 110 samphold~;
#X obj 41 134 outlet~;
#X obj 41 86 inlet~;
#X obj 93 38 inlet;
#X obj 93 60 maxlib/scale 0 1 441 44099 1;
#X connect 0 0 1 1;
#X connect 1 0 2 0;
#X connect 3 0 1 0;
#X connect 4 0 5 0;
#X connect 5 0 0 0;
