#N canvas 250 947 450 300 10;
#X obj 167 216 outlet~;
#X obj 167 62 inlet~;
#X obj 167 84 +~ 1;
#X obj 167 106 *~ 2047.5;
#X obj 167 128 clip~ 0 4095;
#X obj 167 150 expr~ int($v1);
#X obj 167 172 /~ 2047.5;
#X obj 167 194 -~ 1;
#X connect 1 0 2 0;
#X connect 2 0 3 0;
#X connect 3 0 4 0;
#X connect 4 0 5 0;
#X connect 5 0 6 0;
#X connect 6 0 7 0;
#X connect 7 0 0 0;
