#N canvas 101 601 450 347 10;
#X obj -2328 -36 chaos-navier-stokes;
#X obj -2328 188 maxlib/scale -5 4 0 1;
#X obj -2301 139 maxlib/scale -3 2 0 1;
#X obj -2273 91 maxlib/scale -1 5 0 1;
#X obj -2245 43 maxlib/scale -2 2 0 1;
#X obj -2217 -5 maxlib/scale 3 5 0 1;
#X obj -2328 211 outlet;
#X obj -2301 161 outlet;
#X obj -2273 114 outlet;
#X obj -2245 64 outlet;
#X obj -2217 18 outlet;
#X obj -2328 -60 inlet;
#X connect 0 0 1 0;
#X connect 0 1 2 0;
#X connect 0 2 3 0;
#X connect 0 3 4 0;
#X connect 0 4 5 0;
#X connect 1 0 6 0;
#X connect 2 0 7 0;
#X connect 3 0 8 0;
#X connect 4 0 9 0;
#X connect 5 0 10 0;
#X connect 11 0 0 0;
