#N canvas 1683 456 754 582 10;
#X msg -235 41 duration \$1;
#X obj -227 431 *~;
#X obj -224 169 sig~;
#X obj -185 216 sig~;
#X obj -4 202 hsl 128 15 20 2000 1 1 \$0-root \$1-root empty -2 -8
0 10 -232576 -1 -1 3905 1;
#X obj -227 382 svf~ ------;
#X obj -3 264 hsl 128 15 0 127 0 1 \$0-cutoff \$1-cutoff empty -2 -8
0 10 -204786 -1 -1 12700 1;
#X obj -163 359 sig~;
#X obj -3 284 hsl 128 15 0.01 0.99 1 0 \$0-rez \$1-rez empty -2 -8
0 10 -262130 -1 -1 0 1;
#X obj -196 325 mtof;
#X obj -4 223 hsl 128 15 1 10 0 1 \$0-harm \$1-harm empty -2 -8 0 10
-203904 -1 -1 350 1;
#X text 0 200 carrier;
#X text 0 221 harmonicity;
#X text -2 262 cutoff;
#X text -1 282 rez;
#X obj -3 304 hsl 128 15 1 5000 0 1 \$0-duration \$1-duration empty
-2 -8 0 10 -261682 -1 -1 5850 1;
#X text -1 301 duration;
#N canvas 849 446 538 355 ampenv 0;
#X obj 21 194 line~;
#X msg 166 101 1 44.6415 0.154472 247.406 0;
#X obj 166 78 loadbang;
#X obj 158 51 r \$0-env3;
#X obj 19 266 s~ \$0-amp;
#X obj 19 217 *~;
#X obj 20 240 lop~ 100;
#X msg 122 27 dump;
#X obj 162 221 list prepend set;
#X obj 162 244 list trim;
#X msg 162 267 1 66.8817 0.109427 524.551 0;
#X obj 21 164 r \$0-ampline;
#X obj 158 130 s \$0-ampctl;
#X obj 162 198 r \$0-ampdump;
#N canvas 1108 537 450 300 amp-presets 0;
#X restore 20 115 pd amp-presets;
#X connect 0 0 5 0;
#X connect 0 0 5 1;
#X connect 1 0 12 0;
#X connect 2 0 1 0;
#X connect 3 0 12 0;
#X connect 5 0 6 0;
#X connect 6 0 4 0;
#X connect 7 0 12 0;
#X connect 8 0 9 0;
#X connect 9 0 10 0;
#X connect 11 0 0 0;
#X connect 13 0 8 0;
#X restore 19 112 pd ampenv;
#N canvas 288 446 537 353 modenv 0;
#X obj 17 154 line~;
#X obj 18 281 *~;
#X obj 33 261 sig~;
#X msg 189 101 0 453.389 0.365854 1630.27 0.252033 2257.3 0.0325204
1427.69 0.0487805 848.905 0;
#X obj 33 230 inlet;
#X obj 189 78 loadbang;
#X obj 176 53 r \$0-env2;
#X obj 18 306 s~ \$0-mi;
#X obj 17 183 *~;
#X obj 18 206 lop~ 100;
#X obj 176 140 s \$0-modctl;
#X obj 17 128 r \$0-modline;
#X obj 174 250 list prepend set;
#X obj 174 273 list trim;
#X msg 174 296 0.0540541 101.008 0.149638 149.063 0.288069 144.616
0.531532 83.912 0.72973 112.834 0.918919;
#X obj 174 227 r \$0-moddump;
#X msg 147 29 dump;
#N canvas 827 533 450 300 mod-presets 0;
#X msg 16 26 0.0540541 101.008 0.149638 149.063 0.288069 144.616 0.531532
83.912 0.72973 112.834 0.918919;
#X obj 16 60 s \$0-modctl;
#X msg 19 140 0.447154 82.2857 0.447154 17.7143 0;
#X obj 19 161 s \$0-modctl;
#X connect 0 0 1 0;
#X connect 2 0 3 0;
#X restore 18 85 pd mod-presets;
#X connect 0 0 8 0;
#X connect 0 0 8 1;
#X connect 1 0 7 0;
#X connect 2 0 1 1;
#X connect 3 0 10 0;
#X connect 4 0 2 0;
#X connect 5 0 3 0;
#X connect 6 0 10 0;
#X connect 8 0 9 0;
#X connect 9 0 1 0;
#X connect 11 0 0 0;
#X connect 12 0 13 0;
#X connect 13 0 14 0;
#X connect 15 0 12 0;
#X connect 16 0 10 0;
#X restore 96 113 pd modenv;
#X obj -6 441 t b f;
#X obj -236 17 r \$0-duration;
#X obj -6 490 s \$0-donote;
#X obj -145 18 r \$0-donote;
#X obj -4 244 hsl 128 15 20 500 1 1 \$0-mod \$1-mod empty -2 -8 0 10
-204800 -1 -1 0 1;
#X text 0 242 modulation;
#X obj -7 366 inlet;
#X obj 14 393 r \$0-root;
#X obj -7 420 f 60;
#X obj -227 465 outlet~;
#X obj -201 66 s \$0-env3;
#X obj -206 91 s \$0-env2;
#X obj -209 118 s \$0-env1;
#X obj -144 99 s \$0-env1;
#X obj -133 77 s \$0-env2;
#X obj -124 51 s \$0-env3;
#X obj -212 406 r~ \$0-amp;
#X obj -146 240 r~ \$0-mi;
#X obj -224 146 r \$0-root;
#X obj -185 191 r \$0-harm;
#X obj 96 87 r \$0-mod;
#X obj -196 296 r \$0-cutoff;
#X obj -163 335 r \$0-rez;
#X obj 136 204 envgen 176 111 1 0  ;
#X obj 323 204 envgen 176 111 1 0  ;
#X obj -196 356 sig~;
#X obj 134 156 r \$0-ampctl;
#X obj 321 154 r \$0-modctl;
#X obj 134 338 s \$0-ampline;
#X obj 321 339 s \$0-modline;
#X obj 224 339 s \$0-ampdump;
#X obj 428 340 s \$0-moddump;
#X obj 21 463 s \$1-root;
#N canvas 756 816 450 430 \$0-simpleFM 0;
#X obj 181 279 +~;
#X obj 197 176 osc~;
#X obj 196 220 *~;
#X text 227 221 modulator amplitude;
#X obj 180 327 osc~;
#X obj 181 365 outlet~;
#X text 63 94 Carrier frequency;
#X text 177 32 Harmonicity ratio;
#X text 299 86 Modulation index;
#X text 238 366 FM signal;
#X obj 181 95 inlet~;
#X obj 212 53 inlet~;
#X obj 252 85 inlet~;
#X obj 197 130 *~;
#X obj 235 176 *~;
#X text 333 104 (Mi);
#X text 98 113 (Fc);
#X text 289 33 (H);
#X text 214 280 Fout = Fc + Am;
#X text 224 132 Fm = Fc * H;
#X text 228 240 Am = -Fc*H*Mi \, ... \, +Fc*H*Mi;
#X text 48 326 carrier oscillator ->;
#X text 27 174 modulating oscillator ->;
#X connect 0 0 4 0;
#X connect 1 0 2 0;
#X connect 2 0 0 1;
#X connect 4 0 5 0;
#X connect 10 0 0 0;
#X connect 10 0 13 0;
#X connect 11 0 13 1;
#X connect 12 0 14 1;
#X connect 13 0 1 0;
#X connect 13 0 14 0;
#X connect 14 0 2 1;
#X restore -226 271 pd \$0-simpleFM;
#X connect 0 0 29 0;
#X connect 0 0 30 0;
#X connect 0 0 31 0;
#X connect 1 0 28 0;
#X connect 2 0 52 0;
#X connect 3 0 52 1;
#X connect 5 0 1 0;
#X connect 7 0 5 2;
#X connect 9 0 44 0;
#X connect 19 0 21 0;
#X connect 19 1 51 0;
#X connect 20 0 0 0;
#X connect 22 0 32 0;
#X connect 22 0 33 0;
#X connect 22 0 34 0;
#X connect 25 0 27 0;
#X connect 26 0 27 1;
#X connect 27 0 19 0;
#X connect 35 0 1 1;
#X connect 36 0 52 2;
#X connect 37 0 2 0;
#X connect 38 0 3 0;
#X connect 39 0 18 0;
#X connect 40 0 9 0;
#X connect 41 0 7 0;
#X connect 42 0 47 0;
#X connect 42 1 49 0;
#X connect 43 0 48 0;
#X connect 43 1 50 0;
#X connect 44 0 5 1;
#X connect 45 0 42 0;
#X connect 46 0 43 0;
#X connect 52 0 5 0;
#X coords 0 -1 1 1 520 150 1 -10 180;
