#N canvas 2563 511 651 747 10;
#X obj 7 38 stripnote;
#X obj 58 63 / 127;
#X obj 7 62 mtof;
#X obj 7 316 *~;
#X obj 7 14 notein 13;
#X obj 7 134 fm0 foo;
#X obj 6 443 dac~ 1;
#X obj 58 85 sig~;
#X obj 58 107 s~ \$0-vel;
#X obj 22 292 r~ \$0-vel;
#X obj 10 546 ctlin 1 13;
#X obj 10 572 maxlib/scale 0 127 20 2000 0;
#X obj 175 548 tgl 15 0 empty empty empty 17 7 0 10 -262144 -1 -1 0
1;
#X obj 10 596 s foo-mod;
#X obj 362 549 tgl 15 0 empty empty empty 17 7 0 10 -262144 -1 -1 0
1;
#X obj 603 550 tgl 15 0 empty empty empty 17 7 0 10 -262144 -1 -1 0
1;
#X obj 215 597 s foo-harm;
#X obj 438 596 s foo-duration;
#X obj 215 573 maxlib/scale 0 127 1 30 0;
#X obj 215 547 ctlin 2 13;
#X obj 438 548 ctlin 3 13;
#X obj 438 572 maxlib/scale 0 127 20 5000 0;
#X obj 514 57 pgmin 13;
#X floatatom 514 87 5 0 0 0 - - -;
#X obj 109 29 unpack f f;
#X msg 108 7 60 100;
#X obj 26 415 mydelay 250 0.5 20000;
#X obj 26 374 *~;
#X obj 42 325 r \$0-delamt;
#X obj 42 347 sig~;
#X obj 108 392 r \$0-delfb;
#X obj 149 648 tgl 15 0 empty empty empty 17 7 0 10 -262144 -1 -1 0
1;
#X obj 372 647 tgl 15 0 empty empty empty 17 7 0 10 -262144 -1 -1 0
1;
#X obj 589 648 tgl 15 0 empty empty empty 17 7 0 10 -262144 -1 -1 0
1;
#X obj 8 644 ctlin 4 13;
#X obj 213 645 ctlin 5 13;
#X obj 436 646 ctlin 6 13;
#X obj 8 694 s \$0-delamt;
#X obj 8 670 maxlib/scale 0 127 0 1 0;
#X obj 67 370 r \$0-deltime;
#X obj 213 695 s \$0-deltime;
#X obj 213 671 maxlib/scale 0 127 20 300 0;
#X obj 436 694 s \$0-delfb;
#X obj 436 670 maxlib/scale 0 127 0 0.9 1;
#X obj 319 297 midirealtimein;
#X obj 319 326 == 248;
#X obj 357 428 + 1;
#X obj 319 428 f;
#X obj 346 377 del 500;
#X msg 346 400 0;
#X obj 319 350 t b b;
#X obj 319 480 sel 0;
#X obj 319 455 mod 24;
#X obj 319 506 bng 15 250 50 0 empty empty empty 17 7 0 10 -262144
-1 -1;
#X connect 0 0 2 0;
#X connect 0 1 1 0;
#X connect 1 0 7 0;
#X connect 2 0 5 0;
#X connect 3 0 6 0;
#X connect 3 0 27 0;
#X connect 4 0 0 0;
#X connect 4 1 0 1;
#X connect 5 0 3 0;
#X connect 7 0 8 0;
#X connect 9 0 3 1;
#X connect 10 0 11 0;
#X connect 11 0 13 0;
#X connect 12 0 11 5;
#X connect 14 0 18 5;
#X connect 15 0 21 5;
#X connect 18 0 16 0;
#X connect 19 0 18 0;
#X connect 20 0 21 0;
#X connect 21 0 17 0;
#X connect 22 0 23 0;
#X connect 24 0 0 0;
#X connect 24 1 0 1;
#X connect 25 0 24 0;
#X connect 26 0 6 0;
#X connect 27 0 26 0;
#X connect 28 0 29 0;
#X connect 29 0 27 1;
#X connect 30 0 26 2;
#X connect 31 0 38 5;
#X connect 32 0 41 5;
#X connect 33 0 43 5;
#X connect 34 0 38 0;
#X connect 35 0 41 0;
#X connect 36 0 43 0;
#X connect 38 0 37 0;
#X connect 39 0 26 1;
#X connect 41 0 40 0;
#X connect 43 0 42 0;
#X connect 44 0 45 0;
#X connect 45 0 50 0;
#X connect 46 0 47 1;
#X connect 47 0 46 0;
#X connect 47 0 52 0;
#X connect 48 0 49 0;
#X connect 49 0 47 1;
#X connect 50 0 47 0;
#X connect 50 1 48 0;
#X connect 51 0 53 0;
#X connect 52 0 51 0;
