#N canvas 2989 291 1335 700 10;
#X obj 25 123 noise~;
#X obj 25 146 s~ \$0-noiz;
#X obj 25 192 outlet~;
#X obj 25 169 catch~ \$0-out;
#X obj 193 21 inlet;
#X obj 193 78 f \$1;
#X obj 193 50 t b f;
#X obj 133 51 loadbang;
#X obj 193 101 s \$0-root;
#N canvas 3336 900 715 617 band0 0;
#X obj -6480 315 tanh~;
#X msg -6052 80 2;
#X msg -6062 102 1.75;
#X msg -6075 123 1.66667;
#X msg -6087 147 1.5;
#X msg -6106 176 1.33333;
#X msg -6120 206 1.25;
#X msg -6135 232 1;
#X msg -6145 260 0.75;
#X msg -6161 290 0.66667;
#X msg -6177 319 0.5;
#X msg -6195 342 0.33333;
#X msg -6212 371 0.25;
#X obj -6211 438 s \$0-band0pitch;
#X obj -6450 128 r \$0-band0pitch;
#X obj -6209 56 sel 11 10 9 8 7 6 5 4 3 2 1 0;
#X obj -6450 228 * 1;
#X msg -5971 370 0.25;
#X obj -5968 55 sel 11 10 9 8 7 6 5 4 3 2 1 0;
#X obj -5970 437 s \$0-band0center;
#X obj -6450 204 f 440;
#X obj -6450 152 t b f;
#X obj -6349 227 * 1;
#X obj -6349 203 f 440;
#X obj -6349 150 t b f;
#X obj -6349 126 r \$0-band0center;
#X obj -6481 289 bp~ 440 440;
#X obj -6482 37 r~ \$0-noiz;
#X obj -6305 149 r \$0-root;
#X obj -6412 152 r \$0-root;
#X msg -5954 341 0.5;
#X msg -5936 318 1;
#X msg -5920 289 2;
#X msg -5904 259 3;
#X msg -5894 231 4;
#X msg -5879 205 5;
#X msg -5865 175 6;
#X msg -5846 146 7;
#X msg -5834 122 8;
#X msg -5821 101 9;
#X msg -5811 79 10;
#X obj -6305 174 t b f;
#X obj -6412 176 t b f;
#X obj -5933 18 inlet;
#X obj -6174 20 inlet;
#X obj -6480 344 outlet~;
#X connect 0 0 45 0;
#X connect 1 0 13 0;
#X connect 2 0 13 0;
#X connect 3 0 13 0;
#X connect 4 0 13 0;
#X connect 5 0 13 0;
#X connect 6 0 13 0;
#X connect 7 0 13 0;
#X connect 8 0 13 0;
#X connect 9 0 13 0;
#X connect 10 0 13 0;
#X connect 11 0 13 0;
#X connect 12 0 13 0;
#X connect 14 0 21 0;
#X connect 15 0 12 0;
#X connect 15 1 11 0;
#X connect 15 2 10 0;
#X connect 15 3 9 0;
#X connect 15 4 8 0;
#X connect 15 5 7 0;
#X connect 15 6 6 0;
#X connect 15 7 5 0;
#X connect 15 8 4 0;
#X connect 15 9 3 0;
#X connect 15 10 2 0;
#X connect 15 11 1 0;
#X connect 16 0 26 1;
#X connect 17 0 19 0;
#X connect 18 0 17 0;
#X connect 18 1 30 0;
#X connect 18 2 31 0;
#X connect 18 3 32 0;
#X connect 18 4 33 0;
#X connect 18 5 34 0;
#X connect 18 6 35 0;
#X connect 18 7 36 0;
#X connect 18 8 37 0;
#X connect 18 9 38 0;
#X connect 18 10 39 0;
#X connect 18 11 40 0;
#X connect 20 0 16 0;
#X connect 21 0 20 0;
#X connect 21 1 16 1;
#X connect 22 0 26 2;
#X connect 23 0 22 0;
#X connect 24 0 23 0;
#X connect 24 1 22 1;
#X connect 25 0 24 0;
#X connect 26 0 0 0;
#X connect 27 0 26 0;
#X connect 28 0 41 0;
#X connect 29 0 42 0;
#X connect 30 0 19 0;
#X connect 31 0 19 0;
#X connect 32 0 19 0;
#X connect 33 0 19 0;
#X connect 34 0 19 0;
#X connect 35 0 19 0;
#X connect 36 0 19 0;
#X connect 37 0 19 0;
#X connect 38 0 19 0;
#X connect 39 0 19 0;
#X connect 40 0 19 0;
#X connect 41 0 23 0;
#X connect 41 1 23 1;
#X connect 42 0 20 0;
#X connect 42 1 20 1;
#X connect 43 0 18 0;
#X connect 44 0 15 0;
#X restore 274 495 pd band0;
#X obj 133 100 f \$0;
#N canvas 3339 972 715 617 band1 0;
#X obj -6480 315 tanh~;
#X msg -6052 80 2;
#X msg -6062 102 1.75;
#X msg -6075 123 1.66667;
#X msg -6087 147 1.5;
#X msg -6106 176 1.33333;
#X msg -6120 206 1.25;
#X msg -6135 232 1;
#X msg -6145 260 0.75;
#X msg -6161 290 0.66667;
#X msg -6177 319 0.5;
#X msg -6195 342 0.33333;
#X msg -6212 371 0.25;
#X obj -6209 56 sel 11 10 9 8 7 6 5 4 3 2 1 0;
#X obj -6450 228 * 1;
#X msg -5971 370 0.25;
#X obj -5968 55 sel 11 10 9 8 7 6 5 4 3 2 1 0;
#X obj -6450 204 f 440;
#X obj -6450 152 t b f;
#X obj -6349 227 * 1;
#X obj -6349 203 f 440;
#X obj -6349 150 t b f;
#X obj -6481 289 bp~ 440 440;
#X obj -6482 37 r~ \$0-noiz;
#X obj -6305 149 r \$0-root;
#X obj -6412 152 r \$0-root;
#X msg -5954 341 0.5;
#X msg -5936 318 1;
#X msg -5920 289 2;
#X msg -5904 259 3;
#X msg -5894 231 4;
#X msg -5879 205 5;
#X msg -5865 175 6;
#X msg -5846 146 7;
#X msg -5834 122 8;
#X msg -5821 101 9;
#X msg -5811 79 10;
#X obj -6305 174 t b f;
#X obj -6412 176 t b f;
#X obj -6450 128 r \$0-band1pitch;
#X obj -6349 126 r \$0-band1center;
#X obj -6211 438 s \$0-band1pitch;
#X obj -5970 437 s \$0-band1center;
#X obj -6213 32 inlet;
#X obj -5968 28 inlet;
#X obj -6480 344 outlet~;
#X connect 0 0 45 0;
#X connect 1 0 41 0;
#X connect 2 0 41 0;
#X connect 3 0 41 0;
#X connect 4 0 41 0;
#X connect 5 0 41 0;
#X connect 6 0 41 0;
#X connect 7 0 41 0;
#X connect 8 0 41 0;
#X connect 9 0 41 0;
#X connect 10 0 41 0;
#X connect 11 0 41 0;
#X connect 12 0 41 0;
#X connect 13 0 12 0;
#X connect 13 1 11 0;
#X connect 13 2 10 0;
#X connect 13 3 9 0;
#X connect 13 4 8 0;
#X connect 13 5 7 0;
#X connect 13 6 6 0;
#X connect 13 7 5 0;
#X connect 13 8 4 0;
#X connect 13 9 3 0;
#X connect 13 10 2 0;
#X connect 13 11 1 0;
#X connect 14 0 22 1;
#X connect 15 0 42 0;
#X connect 16 0 15 0;
#X connect 16 1 26 0;
#X connect 16 2 27 0;
#X connect 16 3 28 0;
#X connect 16 4 29 0;
#X connect 16 5 30 0;
#X connect 16 6 31 0;
#X connect 16 7 32 0;
#X connect 16 8 33 0;
#X connect 16 9 34 0;
#X connect 16 10 35 0;
#X connect 16 11 36 0;
#X connect 17 0 14 0;
#X connect 18 0 17 0;
#X connect 18 1 14 1;
#X connect 19 0 22 2;
#X connect 20 0 19 0;
#X connect 21 0 20 0;
#X connect 21 1 19 1;
#X connect 22 0 0 0;
#X connect 23 0 22 0;
#X connect 24 0 37 0;
#X connect 25 0 38 0;
#X connect 26 0 42 0;
#X connect 27 0 42 0;
#X connect 28 0 42 0;
#X connect 29 0 42 0;
#X connect 30 0 42 0;
#X connect 31 0 42 0;
#X connect 32 0 42 0;
#X connect 33 0 42 0;
#X connect 34 0 42 0;
#X connect 35 0 42 0;
#X connect 36 0 42 0;
#X connect 37 0 20 0;
#X connect 37 1 20 1;
#X connect 38 0 17 0;
#X connect 38 1 17 1;
#X connect 39 0 18 0;
#X connect 40 0 21 0;
#X connect 43 0 13 0;
#X connect 44 0 16 0;
#X restore 551 503 pd band1;
#X obj 299 126 vradio 15 1 1 12 empty empty empty 0 -8 0 10 -262144
-1 -1 6;
#X text 299 213 x1;
#X obj 317 126 vradio 15 1 1 12 empty empty empty 0 -8 0 10 -262144
-1 -1 9;
#X text 317 258 x1;
#X obj 381 126 vradio 15 1 1 12 empty empty empty 0 -8 0 10 -262144
-1 -1 6;
#X text 381 212 x1;
#X obj 399 126 vradio 15 1 1 12 empty empty empty 0 -8 0 10 -262144
-1 -1 9;
#X text 399 257 x1;
#X obj 466 126 vradio 15 1 1 12 empty empty empty 0 -8 0 10 -262144
-1 -1 6;
#X text 466 212 x1;
#X obj 484 126 vradio 15 1 1 12 empty empty empty 0 -8 0 10 -262144
-1 -1 9;
#X text 484 257 x1;
#X obj 550 126 vradio 15 1 1 12 empty empty empty 0 -8 0 10 -262144
-1 -1 6;
#X text 1115 498 x1;
#X obj 568 126 vradio 15 1 1 12 empty empty empty 0 -8 0 10 -262144
-1 -1 9;
#X text 568 256 x1;
#N canvas 3333 982 715 617 band2 0;
#X obj -6480 315 tanh~;
#X msg -6052 80 2;
#X msg -6062 102 1.75;
#X msg -6075 123 1.66667;
#X msg -6087 147 1.5;
#X msg -6106 176 1.33333;
#X msg -6120 206 1.25;
#X msg -6135 232 1;
#X msg -6145 260 0.75;
#X msg -6161 290 0.66667;
#X msg -6177 319 0.5;
#X msg -6195 342 0.33333;
#X msg -6212 371 0.25;
#X obj -6209 56 sel 11 10 9 8 7 6 5 4 3 2 1 0;
#X obj -6450 228 * 1;
#X msg -5971 370 0.25;
#X obj -5968 55 sel 11 10 9 8 7 6 5 4 3 2 1 0;
#X obj -6450 204 f 440;
#X obj -6450 152 t b f;
#X obj -6349 227 * 1;
#X obj -6349 203 f 440;
#X obj -6349 150 t b f;
#X obj -6481 289 bp~ 440 440;
#X obj -6482 37 r~ \$0-noiz;
#X obj -6305 149 r \$0-root;
#X obj -6412 152 r \$0-root;
#X msg -5954 341 0.5;
#X msg -5936 318 1;
#X msg -5920 289 2;
#X msg -5904 259 3;
#X msg -5894 231 4;
#X msg -5879 205 5;
#X msg -5865 175 6;
#X msg -5846 146 7;
#X msg -5834 122 8;
#X msg -5821 101 9;
#X msg -5811 79 10;
#X obj -6305 174 t b f;
#X obj -6412 176 t b f;
#X obj -5933 18 inlet;
#X obj -6174 20 inlet;
#X obj -6450 128 r \$0-band2pitch;
#X obj -6349 126 r \$0-band2center;
#X obj -6211 438 s \$0-band2pitch;
#X obj -5970 437 s \$0-band2center;
#X obj -6480 344 outlet~;
#X connect 0 0 45 0;
#X connect 1 0 43 0;
#X connect 2 0 43 0;
#X connect 3 0 43 0;
#X connect 4 0 43 0;
#X connect 5 0 43 0;
#X connect 6 0 43 0;
#X connect 7 0 43 0;
#X connect 8 0 43 0;
#X connect 9 0 43 0;
#X connect 10 0 43 0;
#X connect 11 0 43 0;
#X connect 12 0 43 0;
#X connect 13 0 12 0;
#X connect 13 1 11 0;
#X connect 13 2 10 0;
#X connect 13 3 9 0;
#X connect 13 4 8 0;
#X connect 13 5 7 0;
#X connect 13 6 6 0;
#X connect 13 7 5 0;
#X connect 13 8 4 0;
#X connect 13 9 3 0;
#X connect 13 10 2 0;
#X connect 13 11 1 0;
#X connect 14 0 22 1;
#X connect 15 0 44 0;
#X connect 16 0 15 0;
#X connect 16 1 26 0;
#X connect 16 2 27 0;
#X connect 16 3 28 0;
#X connect 16 4 29 0;
#X connect 16 5 30 0;
#X connect 16 6 31 0;
#X connect 16 7 32 0;
#X connect 16 8 33 0;
#X connect 16 9 34 0;
#X connect 16 10 35 0;
#X connect 16 11 36 0;
#X connect 17 0 14 0;
#X connect 18 0 17 0;
#X connect 18 1 14 1;
#X connect 19 0 22 2;
#X connect 20 0 19 0;
#X connect 21 0 20 0;
#X connect 21 1 19 1;
#X connect 22 0 0 0;
#X connect 23 0 22 0;
#X connect 24 0 37 0;
#X connect 25 0 38 0;
#X connect 26 0 44 0;
#X connect 27 0 44 0;
#X connect 28 0 44 0;
#X connect 29 0 44 0;
#X connect 30 0 44 0;
#X connect 31 0 44 0;
#X connect 32 0 44 0;
#X connect 33 0 44 0;
#X connect 34 0 44 0;
#X connect 35 0 44 0;
#X connect 36 0 44 0;
#X connect 37 0 20 0;
#X connect 37 1 20 1;
#X connect 38 0 17 0;
#X connect 38 1 17 1;
#X connect 39 0 16 0;
#X connect 40 0 13 0;
#X connect 41 0 18 0;
#X connect 42 0 21 0;
#X restore 845 502 pd band2;
#N canvas 3330 959 715 617 band3 0;
#X obj -6480 315 tanh~;
#X msg -6052 80 2;
#X msg -6062 102 1.75;
#X msg -6075 123 1.66667;
#X msg -6087 147 1.5;
#X msg -6106 176 1.33333;
#X msg -6120 206 1.25;
#X msg -6135 232 1;
#X msg -6145 260 0.75;
#X msg -6161 290 0.66667;
#X msg -6177 319 0.5;
#X msg -6195 342 0.33333;
#X msg -6212 371 0.25;
#X obj -6209 56 sel 11 10 9 8 7 6 5 4 3 2 1 0;
#X obj -6450 228 * 1;
#X msg -5971 370 0.25;
#X obj -5968 55 sel 11 10 9 8 7 6 5 4 3 2 1 0;
#X obj -6450 204 f 440;
#X obj -6450 152 t b f;
#X obj -6349 227 * 1;
#X obj -6349 203 f 440;
#X obj -6349 150 t b f;
#X obj -6481 289 bp~ 440 440;
#X obj -6482 37 r~ \$0-noiz;
#X obj -6305 149 r \$0-root;
#X obj -6412 152 r \$0-root;
#X msg -5954 341 0.5;
#X msg -5936 318 1;
#X msg -5920 289 2;
#X msg -5904 259 3;
#X msg -5894 231 4;
#X msg -5879 205 5;
#X msg -5865 175 6;
#X msg -5846 146 7;
#X msg -5834 122 8;
#X msg -5821 101 9;
#X msg -5811 79 10;
#X obj -6305 174 t b f;
#X obj -6412 176 t b f;
#X obj -6213 32 inlet;
#X obj -5968 28 inlet;
#X obj -6450 128 r \$0-band3pitch;
#X obj -6349 126 r \$0-band3center;
#X obj -6211 438 s \$0-band3pitch;
#X obj -5970 437 s \$0-band3center;
#X obj -6480 344 outlet~;
#X connect 0 0 45 0;
#X connect 1 0 43 0;
#X connect 2 0 43 0;
#X connect 3 0 43 0;
#X connect 4 0 43 0;
#X connect 5 0 43 0;
#X connect 6 0 43 0;
#X connect 7 0 43 0;
#X connect 8 0 43 0;
#X connect 9 0 43 0;
#X connect 10 0 43 0;
#X connect 11 0 43 0;
#X connect 12 0 43 0;
#X connect 13 0 12 0;
#X connect 13 1 11 0;
#X connect 13 2 10 0;
#X connect 13 3 9 0;
#X connect 13 4 8 0;
#X connect 13 5 7 0;
#X connect 13 6 6 0;
#X connect 13 7 5 0;
#X connect 13 8 4 0;
#X connect 13 9 3 0;
#X connect 13 10 2 0;
#X connect 13 11 1 0;
#X connect 14 0 22 1;
#X connect 15 0 44 0;
#X connect 16 0 15 0;
#X connect 16 1 26 0;
#X connect 16 2 27 0;
#X connect 16 3 28 0;
#X connect 16 4 29 0;
#X connect 16 5 30 0;
#X connect 16 6 31 0;
#X connect 16 7 32 0;
#X connect 16 8 33 0;
#X connect 16 9 34 0;
#X connect 16 10 35 0;
#X connect 16 11 36 0;
#X connect 17 0 14 0;
#X connect 18 0 17 0;
#X connect 18 1 14 1;
#X connect 19 0 22 2;
#X connect 20 0 19 0;
#X connect 21 0 20 0;
#X connect 21 1 19 1;
#X connect 22 0 0 0;
#X connect 23 0 22 0;
#X connect 24 0 37 0;
#X connect 25 0 38 0;
#X connect 26 0 44 0;
#X connect 27 0 44 0;
#X connect 28 0 44 0;
#X connect 29 0 44 0;
#X connect 30 0 44 0;
#X connect 31 0 44 0;
#X connect 32 0 44 0;
#X connect 33 0 44 0;
#X connect 34 0 44 0;
#X connect 35 0 44 0;
#X connect 36 0 44 0;
#X connect 37 0 20 0;
#X connect 37 1 20 1;
#X connect 38 0 17 0;
#X connect 38 1 17 1;
#X connect 39 0 13 0;
#X connect 40 0 16 0;
#X connect 41 0 18 0;
#X connect 42 0 21 0;
#X restore 1116 507 pd band3;
#X msg 133 126 \; \$1-band0pitch 1 \; \$1-band0center 1 \; \$1-band1pitch
1 \; \$1-band1center 1 \; \$1-band2pitch 1 \; \$1-band2center 1 \;
\$1-band3pitch 1 \; \$1-band3center 1;
#X obj 1206 536 sel 0.01;
#X obj 1207 561 f 0;
#X obj 1207 594 sig~;
#X obj 1192 620 *~;
#X obj 1193 642 throw~ \$0-out;
#X obj 942 536 sel 0.01;
#X obj 943 561 f 0;
#X obj 943 594 sig~;
#X obj 928 620 *~;
#X obj 929 642 throw~ \$0-out;
#X obj 652 533 sel 0.01;
#X obj 653 558 f 0;
#X obj 653 591 sig~;
#X obj 638 617 *~;
#X obj 639 639 throw~ \$0-out;
#X obj 372 531 sel 0.01;
#X obj 373 556 f 0;
#X obj 373 589 sig~;
#X obj 358 615 *~;
#X obj 359 637 throw~ \$0-out;
#X obj 335 128 vsl 15 175 0.01 1 1 1 empty empty empty 0 -9 0 10 -262144
-1 -1 17400 1;
#X obj 417 128 vsl 15 175 0.01 1 1 1 empty empty empty 0 -9 0 10 -262144
-1 -1 17400 1;
#X obj 502 128 vsl 15 175 0.01 1 1 1 empty empty empty 0 -9 0 10 -262144
-1 -1 17400 1;
#X obj 586 128 vsl 15 175 0.01 1 1 1 empty empty empty 0 -9 0 10 -262144
-1 -1 17400 1;
#X connect 0 0 1 0;
#X connect 3 0 2 0;
#X connect 4 0 6 0;
#X connect 5 0 8 0;
#X connect 6 0 5 0;
#X connect 6 1 5 1;
#X connect 7 0 5 0;
#X connect 7 0 10 0;
#X connect 9 0 49 0;
#X connect 10 0 30 0;
#X connect 11 0 44 0;
#X connect 12 0 9 0;
#X connect 14 0 9 1;
#X connect 16 0 11 0;
#X connect 18 0 11 1;
#X connect 20 0 28 0;
#X connect 22 0 28 1;
#X connect 24 0 29 0;
#X connect 26 0 29 1;
#X connect 28 0 39 0;
#X connect 29 0 34 0;
#X connect 31 0 32 0;
#X connect 31 1 33 0;
#X connect 32 0 33 0;
#X connect 33 0 34 1;
#X connect 34 0 35 0;
#X connect 36 0 37 0;
#X connect 36 1 38 0;
#X connect 37 0 38 0;
#X connect 38 0 39 1;
#X connect 39 0 40 0;
#X connect 41 0 42 0;
#X connect 41 1 43 0;
#X connect 42 0 43 0;
#X connect 43 0 44 1;
#X connect 44 0 45 0;
#X connect 46 0 47 0;
#X connect 46 1 48 0;
#X connect 47 0 48 0;
#X connect 48 0 49 1;
#X connect 49 0 50 0;
#X connect 51 0 46 0;
#X connect 52 0 41 0;
#X connect 53 0 36 0;
#X connect 54 0 31 0;
#X coords 0 -1 1 1 320 210 1 290 100;
