#N canvas 2560 54 2560 1466 10;
#X obj 958 731 noise~;
#X obj 1215 465 hsl 91 15 0.0099 0.99 1 0 empty empty Q 5 8 0 10 -262144
-1 -1 0 1;
#X obj 1015 831 sig~;
#X obj 1013 775 sig~;
#X obj 1342 647 line~;
#X obj 1298 788 *~;
#X obj 958 854 svf~ 440 0;
#X obj 1011 721 line;
#X obj 885 427 t b b;
#X msg 1013 364 duration \$1;
#X msg 1323 360 duration \$1;
#X obj 1213 618 s \$0-dur;
#X obj 1323 338 r \$0-dur;
#X obj 1011 340 r \$0-dur;
#X obj 957 1019 *~;
#X obj 957 1042 throw~ \$0-filtmix;
#X obj 1228 751 catch~ \$0-filtmix;
#X obj 1071 1018 *~;
#X obj 1071 1041 throw~ \$0-filtmix;
#X obj 1182 1018 *~;
#X obj 1182 1041 throw~ \$0-filtmix;
#X obj 1296 1017 *~;
#X obj 1296 1040 throw~ \$0-filtmix;
#X obj 1366 725 *~;
#X obj 1345 752 myxfade1;
#X obj 1393 723 sig~;
#X obj 1212 520 tgl 15 0 empty empty amp_lin/exp 17 7 0 10 -262144
-1 -1 0 1;
#X obj 1212 502 tgl 15 0 empty empty filt_lin/log 17 7 0 10 -262144
-1 -1 0 1;
#X obj 1012 749 maxlib/scale 0 1 20 10000 1;
#X obj 1297 813 outlet~;
#X obj 884 520 loadbang;
#X obj 884 542 s \$0-lb;
#X obj 1145 309 r \$0-lb;
#X obj 1145 335 f 250;
#X obj 885 400 inlet;
#X obj 912 451 s \$0-doamp;
#X obj 1313 311 r \$0-doamp;
#X obj 885 475 s \$0-dofilt;
#X obj 1002 315 r \$0-dofilt;
#X obj 1211 437 hradio 24 1 0 4 empty empty LP_HP_BP_BR 0 -10 0 10
-262144 -1 -1 0;
#X obj 1578 761 sel 0 1 2 3;
#X obj 1694 809 f \$0;
#X msg 1694 830 \; \$1-mix0 0 \; \$1-mix1 0 \; \$1-mix2 0 \; \$1-mix3
1;
#X obj 972 994 r \$0-mix0;
#X obj 1086 994 r \$0-mix1;
#X obj 1197 992 r \$0-mix2;
#X obj 1311 992 r \$0-mix3;
#X obj 1678 904 f \$0;
#X msg 1678 925 \; \$1-mix0 0 \; \$1-mix1 0 \; \$1-mix2 1 \; \$1-mix3
0;
#X obj 1590 814 f \$0;
#X obj 1541 897 f \$0;
#X msg 1541 918 \; \$1-mix0 1 \; \$1-mix1 0 \; \$1-mix2 0 \; \$1-mix3
0;
#X msg 1590 835 \; \$1-mix0 0 \; \$1-mix1 1 \; \$1-mix2 0 \; \$1-mix3
0;
#X obj 1215 484 hsl 91 15 20 2000 0 0 empty empty duration 5 8 0 10
-262144 -1 -1 207 1;
#X text 1404 407 amp;
#X text 1083 406 filter;
#X obj 1312 424 envgen 200 140 1 0  ;
#X obj 1005 424 envgen 200 140 1 0  ;
#X obj 1579 724 f 0;
#X obj 1578 693 r \$0-lb;
#X connect 0 0 6 0;
#X connect 1 0 2 0;
#X connect 2 0 6 2;
#X connect 3 0 6 1;
#X connect 4 0 23 0;
#X connect 4 0 23 1;
#X connect 4 0 24 0;
#X connect 5 0 29 0;
#X connect 6 0 14 0;
#X connect 6 1 17 0;
#X connect 6 2 19 0;
#X connect 6 3 21 0;
#X connect 7 0 28 0;
#X connect 8 0 37 0;
#X connect 8 1 35 0;
#X connect 9 0 57 0;
#X connect 10 0 56 0;
#X connect 12 0 10 0;
#X connect 13 0 9 0;
#X connect 14 0 15 0;
#X connect 16 0 5 0;
#X connect 17 0 18 0;
#X connect 19 0 20 0;
#X connect 21 0 22 0;
#X connect 23 0 24 1;
#X connect 24 0 5 1;
#X connect 25 0 24 2;
#X connect 26 0 25 0;
#X connect 27 0 28 5;
#X connect 28 0 3 0;
#X connect 30 0 31 0;
#X connect 32 0 33 0;
#X connect 33 0 53 0;
#X connect 34 0 8 0;
#X connect 36 0 56 0;
#X connect 38 0 57 0;
#X connect 39 0 40 0;
#X connect 40 0 50 0;
#X connect 40 1 49 0;
#X connect 40 2 47 0;
#X connect 40 3 41 0;
#X connect 41 0 42 0;
#X connect 43 0 14 1;
#X connect 44 0 17 1;
#X connect 45 0 19 1;
#X connect 46 0 21 1;
#X connect 47 0 48 0;
#X connect 49 0 52 0;
#X connect 50 0 51 0;
#X connect 53 0 11 0;
#X connect 56 0 4 0;
#X connect 57 0 7 0;
#X connect 58 0 40 0;
#X connect 59 0 58 0;
#X coords 0 -1 1 1 520 175 1 1000 400;
