#N canvas 2929 800 450 596 10;
#X obj 112 455 line~;
#X obj 98 515 *~;
#X obj 131 291 line~;
#X obj 97 368 *~;
#X obj 131 248 metro 15;
#X obj 176 158 line;
#X obj 112 57 t b b;
#X obj 112 33 bng 15 250 50 0 empty empty empty 17 7 0 10 -262144 -1
-1;
#X msg 131 270 1 \, 0 5;
#X obj 113 482 *~;
#X obj 130 340 *~;
#X obj 177 186 maxlib/scale 0 1 100 10 0;
#X obj 324 166 tgl 15 0 empty empty empty 17 7 0 10 -262144 -1 -1 0
1;
#X obj 131 225 loadbang;
#X floatatom 294 140 5 0 0 0 - - -;
#X floatatom 265 108 5 0 0 0 - - -;
#X text 303 107 start speed;
#X text 331 139 end speed;
#X text 343 166 lin/log;
#X obj 39 321 osc~ 10000;
#X obj 112 406 f 2000;
#X floatatom 145 385 5 0 0 0 - - -;
#X msg 112 432 1 \, 0 \$1;
#X text 179 385 overall decay;
#X obj 176 102 f 2000;
#X floatatom 209 81 5 0 0 0 - - -;
#X text 245 81 metro slide;
#X msg 176 132 0 \, 1 \$1;
#X obj 98 542 outlet~;
#X obj 139 32 inlet;
#X connect 0 0 9 0;
#X connect 0 0 9 1;
#X connect 1 0 28 0;
#X connect 2 0 10 0;
#X connect 2 0 10 1;
#X connect 3 0 1 0;
#X connect 4 0 8 0;
#X connect 5 0 11 0;
#X connect 6 0 20 0;
#X connect 6 1 24 0;
#X connect 7 0 6 0;
#X connect 8 0 2 0;
#X connect 9 0 1 1;
#X connect 10 0 3 1;
#X connect 11 0 4 1;
#X connect 12 0 11 5;
#X connect 13 0 4 0;
#X connect 14 0 11 4;
#X connect 15 0 11 3;
#X connect 19 0 3 0;
#X connect 20 0 22 0;
#X connect 21 0 20 1;
#X connect 22 0 0 0;
#X connect 24 0 27 0;
#X connect 25 0 24 1;
#X connect 27 0 5 0;
#X connect 29 0 6 0;
