#N canvas 1013 798 326 211 10;
#X obj 8 105 soundfiler;
#X obj 214 105 outlet~;
#X obj 187 160 outlet~;
#X obj 8 52 symbol \$1;
#X obj 188 129 tabplay~ \$1-L;
#X obj 215 76 tabplay~ \$1-R;
#X obj 188 26 inlet;
#X msg 8 81 read -resize \$1 \$1-L \$1-R;
#X obj 9 29 loadbang;
#X obj 188 52 t b b;
#X obj 9 130 table \$1-L;
#X obj 9 156 table \$1-R;
#X connect 3 0 7 0;
#X connect 4 0 2 0;
#X connect 5 0 1 0;
#X connect 6 0 9 0;
#X connect 7 0 0 0;
#X connect 8 0 3 0;
#X connect 9 0 4 0;
#X connect 9 1 5 0;
