#N canvas 111 596 714 323 10;
#X obj 19 57 soundfiler;
#X obj 304 137 /;
#X obj 481 171 line~;
#X msg 304 115 \$1 44.1;
#X obj 277 211 / 1;
#X obj 481 98 f;
#X msg 481 147 0 \, \$1 \$2;
#X obj 481 124 pack f f;
#X obj 304 90 f;
#X obj 277 164 f;
#X obj 277 46 t b b;
#X obj 277 -1 t b f;
#X obj 481 44 t b f;
#X obj 19 9 symbol \$1;
#X obj 19 -14 loadbang;
#X obj 19 79 s \$0-len;
#X obj 319 65 r \$0-len;
#X obj 496 69 r \$0-len;
#X obj 304 23 s \$0-div;
#X obj 292 187 r \$0-div;
#X obj 277 -24 inlet;
#X obj 277 243 s \$0-play;
#X obj 481 14 r \$0-play;
#X obj 425 237 outlet~;
#X msg 19 33 read -resize \$1 \$1-L \$1-R;
#X obj 19 104 table \$1-L;
#X obj 19 128 table \$1-R;
#X obj 425 210 tabread4~ \$1-L;
#X obj 525 238 outlet~;
#X obj 525 211 tabread4~ \$1-R;
#X connect 0 0 15 0;
#X connect 1 0 9 1;
#X connect 2 0 27 0;
#X connect 2 0 29 0;
#X connect 3 0 1 0;
#X connect 4 0 21 0;
#X connect 5 0 7 0;
#X connect 6 0 2 0;
#X connect 7 0 6 0;
#X connect 8 0 3 0;
#X connect 9 0 4 0;
#X connect 10 0 9 0;
#X connect 10 1 8 0;
#X connect 11 0 10 0;
#X connect 11 1 18 0;
#X connect 12 0 5 0;
#X connect 12 1 7 1;
#X connect 13 0 24 0;
#X connect 14 0 13 0;
#X connect 16 0 8 1;
#X connect 17 0 5 1;
#X connect 19 0 4 1;
#X connect 20 0 11 0;
#X connect 22 0 12 0;
#X connect 24 0 0 0;
#X connect 27 0 23 0;
#X connect 29 0 28 0;
