#N canvas 404 572 446 375 10;
#X msg 283 202 0;
#X obj 25 180 *~;
#X msg 264 255 1;
#X obj 303 72 mtof;
#X obj 264 49 t b b f;
#X obj 303 95 expr 1000 / $f1;
#X obj 283 178 del 8;
#X floatatom 310 158 5 0 0 0 - - -;
#X obj 264 278 s \$0-pulse;
#X obj 283 225 s \$0-pulse;
#X obj 40 157 r \$0-pulse;
#X text 344 156 pulse length;
#X obj 303 117 s \$0-length;
#X obj 57 188 r \$0-length;
#N canvas 548 22 476 430 \$0-delay 0;
#X obj -167 277 *~ 0.99;
#X obj -296 303 inlet~;
#X obj -162 57 inlet~;
#X obj -168 307 outlet~;
#X obj -311 140 block~ 1;
#X obj -297 340 +~;
#X obj -135 177 *~ 0.5;
#X obj -184 177 *~ 0.5;
#X obj -168 208 +~;
#X obj -135 149 z~ 1;
#X obj -298 367 delwrite~ \$0-buff 1000;
#X obj -162 108 vd~ \$0-buff;
#X obj -166 242 lop~ 8000;
#X obj -31 174 inlet;
#X connect 0 0 3 0;
#X connect 0 0 5 1;
#X connect 1 0 5 0;
#X connect 2 0 11 0;
#X connect 5 0 10 0;
#X connect 6 0 8 1;
#X connect 7 0 8 0;
#X connect 8 0 12 0;
#X connect 9 0 6 0;
#X connect 11 0 9 0;
#X connect 11 0 7 0;
#X connect 12 0 0 0;
#X connect 13 0 12 1;
#X restore 26 243 pd \$0-delay;
#X obj 26 269 tanh~;
#X obj 264 23 inlet;
#X obj 25 291 outlet~;
#X floatatom 89 219 5 0 0 0 - - -;
#X text 126 218 cutoff;
#X obj 25 104 inlet~;
#X connect 0 0 9 0;
#X connect 1 0 14 0;
#X connect 2 0 8 0;
#X connect 3 0 5 0;
#X connect 4 0 2 0;
#X connect 4 1 6 0;
#X connect 4 2 3 0;
#X connect 5 0 12 0;
#X connect 6 0 0 0;
#X connect 7 0 6 1;
#X connect 10 0 1 1;
#X connect 13 0 14 1;
#X connect 14 0 15 0;
#X connect 15 0 17 0;
#X connect 16 0 4 0;
#X connect 18 0 14 2;
#X connect 20 0 1 0;
