#N canvas 4004 820 450 300 10;
#X obj 109 201 karp1;
#X obj 109 174 osc~;
#X obj 109 76 mtof;
#X obj 109 52 t f f;
#X obj 109 147 *;
#X obj 124 124 + 1;
#X obj 124 102 tgl 15 0 empty empty empty 17 7 0 10 -262144 -1 -1 0
1;
#X obj 109 28 inlet;
#X obj 110 232 outlet~;
#X connect 0 0 8 0;
#X connect 1 0 0 0;
#X connect 2 0 4 0;
#X connect 3 0 2 0;
#X connect 3 1 0 1;
#X connect 4 0 1 0;
#X connect 5 0 4 1;
#X connect 6 0 5 0;
#X connect 7 0 3 0;
