#N canvas 8 101 1585 747 10;
#X obj 37 37 keyup;
#X obj 38 77 sel 97 115 100 102 106 107 108 59;
#X obj 40 430 count 2;
#X obj 40 455 s 0-on;
#X obj 55 375 count 2;
#X obj 78 319 count 2;
#X obj 98 263 count 2;
#X obj 274 440 count 2;
#X obj 301 389 count 2;
#X obj 321 338 count 2;
#X obj 337 281 count 2;
#X obj 337 306 s 7-on;
#X obj 321 363 s 6-on;
#X obj 301 414 s 5-on;
#X obj 274 465 s 4-on;
#X obj 55 400 s 1-on;
#X obj 78 344 s 2-on;
#X obj 98 288 s 3-on;
#X obj 507 120 tgl 40 0 0-mix 0-on empty 17 7 0 10 -262144 -1 -1 0
1;
#X obj 552 120 tgl 40 0 1-mix 1-on empty 17 7 0 10 -262144 -1 -1 1
1;
#X obj 597 120 tgl 40 0 2-mix 2-on empty 17 7 0 10 -262144 -1 -1 0
1;
#X obj 642 120 tgl 40 0 3-mix 3-on empty 17 7 0 10 -262144 -1 -1 0
1;
#X obj 687 120 tgl 40 0 4-mix 4-on empty 17 7 0 10 -262144 -1 -1 0
1;
#X obj 732 120 tgl 40 0 5-mix 5-on empty 17 7 0 10 -262144 -1 -1 0
1;
#X obj 777 120 tgl 40 0 6-mix 6-on empty 17 7 0 10 -262144 -1 -1 1
1;
#X obj 822 120 tgl 40 0 7-mix 7-on empty 17 7 0 10 -262144 -1 -1 0
1;
#X obj 558 543 *~;
#X obj 559 491 line~;
#X obj 559 467 pack f 10;
#X obj 559 441 r 0-mix;
#X obj 573 514 inlet~;
#X obj 558 570 outlet~;
#X obj 639 540 *~;
#X obj 640 488 line~;
#X obj 640 464 pack f 10;
#X obj 640 438 r 1-mix;
#X obj 654 511 inlet~;
#X obj 639 567 outlet~;
#X obj 727 541 *~;
#X obj 728 489 line~;
#X obj 728 465 pack f 10;
#X obj 728 439 r 2-mix;
#X obj 742 512 inlet~;
#X obj 727 568 outlet~;
#X obj 808 538 *~;
#X obj 809 486 line~;
#X obj 809 462 pack f 10;
#X obj 809 436 r 3-mix;
#X obj 823 509 inlet~;
#X obj 808 565 outlet~;
#X obj 899 541 *~;
#X obj 900 489 line~;
#X obj 900 465 pack f 10;
#X obj 900 439 r 4-mix;
#X obj 914 512 inlet~;
#X obj 899 568 outlet~;
#X obj 980 538 *~;
#X obj 981 486 line~;
#X obj 981 462 pack f 10;
#X obj 981 436 r 5-mix;
#X obj 995 509 inlet~;
#X obj 980 565 outlet~;
#X obj 1068 539 *~;
#X obj 1069 487 line~;
#X obj 1069 463 pack f 10;
#X obj 1069 437 r 6-mix;
#X obj 1083 510 inlet~;
#X obj 1068 566 outlet~;
#X obj 1149 536 *~;
#X obj 1150 484 line~;
#X obj 1150 460 pack f 10;
#X obj 1150 434 r 7-mix;
#X obj 1164 507 inlet~;
#X obj 1149 563 outlet~;
#X obj 833 270 loadbang;
#X obj 833 293 s lb;
#X obj 92 431 r lb;
#X obj 107 374 r lb;
#X obj 136 320 r lb;
#X obj 151 263 r lb;
#X obj 341 447 r lb;
#X obj 356 390 r lb;
#X obj 376 338 r lb;
#X obj 391 281 r lb;
#X connect 0 0 1 0;
#X connect 1 0 2 0;
#X connect 1 1 4 0;
#X connect 1 2 5 0;
#X connect 1 3 6 0;
#X connect 1 4 7 0;
#X connect 1 5 8 0;
#X connect 1 6 9 0;
#X connect 1 7 10 0;
#X connect 2 0 3 0;
#X connect 4 0 15 0;
#X connect 5 0 16 0;
#X connect 6 0 17 0;
#X connect 7 0 14 0;
#X connect 8 0 13 0;
#X connect 9 0 12 0;
#X connect 10 0 11 0;
#X connect 26 0 31 0;
#X connect 27 0 26 0;
#X connect 28 0 27 0;
#X connect 29 0 28 0;
#X connect 30 0 26 1;
#X connect 32 0 37 0;
#X connect 33 0 32 0;
#X connect 34 0 33 0;
#X connect 35 0 34 0;
#X connect 36 0 32 1;
#X connect 38 0 43 0;
#X connect 39 0 38 0;
#X connect 40 0 39 0;
#X connect 41 0 40 0;
#X connect 42 0 38 1;
#X connect 44 0 49 0;
#X connect 45 0 44 0;
#X connect 46 0 45 0;
#X connect 47 0 46 0;
#X connect 48 0 44 1;
#X connect 50 0 55 0;
#X connect 51 0 50 0;
#X connect 52 0 51 0;
#X connect 53 0 52 0;
#X connect 54 0 50 1;
#X connect 56 0 61 0;
#X connect 57 0 56 0;
#X connect 58 0 57 0;
#X connect 59 0 58 0;
#X connect 60 0 56 1;
#X connect 62 0 67 0;
#X connect 63 0 62 0;
#X connect 64 0 63 0;
#X connect 65 0 64 0;
#X connect 66 0 62 1;
#X connect 68 0 73 0;
#X connect 69 0 68 0;
#X connect 70 0 69 0;
#X connect 71 0 70 0;
#X connect 72 0 68 1;
#X connect 74 0 75 0;
#X connect 76 0 3 0;
#X connect 77 0 15 0;
#X connect 78 0 16 0;
#X connect 79 0 17 0;
#X connect 80 0 14 0;
#X connect 81 0 13 0;
#X connect 82 0 12 0;
#X connect 83 0 11 0;
#X coords 0 -1 1 1 370 70 1 500 100;
