#N canvas 32 612 361 345 10;
#X obj 68 -12 noise~;
#X obj 209 109 vd~ \$0-foo;
#X obj 67 266 delwrite~ \$0-foo 1000;
#X obj 67 156 *~;
#X obj 210 86 sig~;
#X obj 67 13 bp~ 3000 4;
#X obj 210 41 loadbang;
#X obj 224 167 throw~ \$0-del;
#X obj 77 185 throw~ \$0-del;
#X obj 68 238 catch~ \$0-del;
#X obj 207 239 catch~ \$0-mst;
#X obj 208 206 throw~ \$0-mst;
#X obj 68 212 throw~ \$0-mst;
#X obj 207 265 outlet~;
#X obj 82 107 line~;
#X obj 82 134 *~;
#X msg 82 84 1 \, 0 100;
#X obj 82 37 inlet;
#X obj 82 61 t b;
#X obj 223 142 *~ 0.2;
#X msg 210 63 40;
#X connect 0 0 5 0;
#X connect 1 0 11 0;
#X connect 1 0 19 0;
#X connect 3 0 8 0;
#X connect 3 0 12 0;
#X connect 4 0 1 0;
#X connect 5 0 3 0;
#X connect 6 0 20 0;
#X connect 9 0 2 0;
#X connect 10 0 13 0;
#X connect 14 0 15 0;
#X connect 14 0 15 1;
#X connect 15 0 3 1;
#X connect 16 0 14 0;
#X connect 17 0 18 0;
#X connect 18 0 16 0;
#X connect 19 0 7 0;
#X connect 20 0 4 0;
