#N canvas 1298 837 455 510 10;
#X floatatom 6 43 3 20 400 1 bpm \$1-bpm \$0-bpm, f 3;
#X floatatom 6 23 2 1 64 1 len \$1-length \$0-length, f 2;
#X obj 61 294 outlet;
#X obj 154 297 outlet;
#X obj 136 -14 key;
#X obj 212 0 cnv 15 100 60 empty empty empty 20 12 0 14 -233017 -66577
0;
#X floatatom 6 63 5 0 0 1 hub \$1-hub \$0-foobar, f 5;
#X obj 63 34 tgl 40 0 empty empty empty 17 7 0 10 -262144 -1 -1 0 1
;
#X obj 136 9 sel 9;
#N canvas 430 665 826 377 \$0-clockstuff 0;
#X obj 321 69 inlet;
#X text 313 46 tempo in bpm;
#X obj 319 142 / 120;
#X msg 321 116 15000;
#X obj 17 82 metro 500;
#X obj 17 54 inlet;
#X text 15 20 start/stop;
#X text 13 33 (toggle);
#X obj 223 116 inlet;
#X text 220 94 length;
#X obj 613 239 mod 2;
#X obj 598 57 inlet;
#X text 596 38 swing;
#X obj 598 103 * 0.01;
#X obj 598 126 t b f;
#X obj 598 150 *;
#X obj 598 80 - 50;
#X obj 598 263 *;
#X obj 565 287 pipe 0;
#X obj 564 311 outlet;
#X text 562 335 ^- swing;
#X obj 319 167 s \$0-msper16th;
#X obj 17 105 f;
#X obj 43 105 + 1;
#X obj 17 128 s \$0-ticks;
#X obj 190 145 r \$0-ticks;
#X obj 613 216 r \$0-ticks;
#X obj 321 91 t b f;
#X obj 68 53 r \$0-msper16th;
#X obj 491 98 r \$0-msper16th;
#X obj 565 196 r \$0-mod;
#X obj 565 219 t f b;
#X obj 190 169 mod 16;
#X obj 190 231 outlet;
#X text 187 248 ^- tick;
#X obj 202 203 s \$0-mod;
#X obj 35 249 r \$0-msper16th;
#X obj 20 310 s \$1-hub;
#X obj 20 195 r \$0-ticks;
#X obj 20 280 f;
#X obj 20 223 t b;
#X connect 0 0 27 0;
#X connect 2 0 21 0;
#X connect 3 0 2 0;
#X connect 4 0 22 0;
#X connect 5 0 4 0;
#X connect 8 0 32 1;
#X connect 10 0 17 1;
#X connect 11 0 16 0;
#X connect 13 0 14 0;
#X connect 14 0 15 0;
#X connect 14 1 15 1;
#X connect 15 0 17 0;
#X connect 16 0 13 0;
#X connect 17 0 18 1;
#X connect 18 0 19 0;
#X connect 22 0 23 0;
#X connect 22 0 24 0;
#X connect 23 0 22 1;
#X connect 25 0 32 0;
#X connect 26 0 10 0;
#X connect 27 0 3 0;
#X connect 27 1 2 1;
#X connect 28 0 4 1;
#X connect 29 0 15 0;
#X connect 30 0 31 0;
#X connect 31 0 18 0;
#X connect 31 1 17 0;
#X connect 32 0 33 0;
#X connect 32 0 35 0;
#X connect 36 0 39 1;
#X connect 38 0 40 0;
#X connect 39 0 37 0;
#X connect 40 0 39 0;
#X restore 61 235 pd \$0-clockstuff;
#X obj 132 83 s clocks-on;
#X obj 61 133 r clocks-on;
#X obj 154 210 r \$0-swing;
#X obj 72 267 s \$1-straight;
#X obj 162 269 s \$1-swung;
#X obj 123 188 r \$0-bpm;
#X obj 92 160 r \$0-length;
#X floatatom 6 83 2 50 99 1 swing \$1-swing \$0-swing, f 2;
#X obj 54 447 s \$1-length;
#X obj 135 447 s \$1-bpm;
#X obj 210 447 s \$1-swing;
#X obj 116 363 loadbang;
#X obj 116 390 t b b b;
#X msg 54 420 16;
#X msg 135 420 125;
#X msg 210 420 50;
#X connect 4 0 8 0;
#X connect 7 0 10 0;
#X connect 8 0 7 0;
#X connect 9 0 2 0;
#X connect 9 0 13 0;
#X connect 9 1 3 0;
#X connect 9 1 14 0;
#X connect 11 0 9 0;
#X connect 12 0 9 3;
#X connect 15 0 9 2;
#X connect 16 0 9 1;
#X connect 21 0 22 0;
#X connect 22 0 23 0;
#X connect 22 1 24 0;
#X connect 22 2 25 0;
#X connect 23 0 18 0;
#X connect 24 0 19 0;
#X connect 25 0 20 0;
#X coords 0 -1 1 1 110 110 1 1 1;
