#N canvas 10 101 1577 742 10;
#X obj 410 15 ctlin 73 1;
#X obj 563 15 ctlin 12 1;
#X obj 648 15 ctlin 72 1;
#X obj 728 15 ctlin 74 1;
#X obj 807 15 ctlin 71 1;
#X obj 882 15 ctlin 14 1;
#X obj 971 15 ctlin 17 1;
#X obj 410 39 / 127;
#X obj 484 39 / 127;
#X obj 563 39 / 127;
#X obj 648 39 / 127;
#X obj 728 39 / 127;
#X obj 807 39 / 127;
#X obj 882 39 / 127;
#X obj 971 39 / 127;
#X obj 338 15 ctlin 7 1;
#X obj 484 15 ctlin 9 0;
#X obj 338 39 / 127;
#X obj 99 267 maxlib/scale 0 1 0.001 0.99 1;
#X obj 52 373 s slider;
#X obj 99 338 spigot;
#X obj 132 315 expr 1-$f1;
#X obj 52 238 spigot;
#X obj 106 133 tgl 15 1 \$0-sw0 \$1-sw0 S 4 -7 0 10 -262144 -1 -1 0
1;
#X obj 338 63 s \$0-raw0;
#X obj 52 192 r \$0-raw0;
#X obj 99 242 r \$0-raw0;
#X obj 85 215 r \$0-sw0;
#X obj 132 293 r \$0-sw0;
#X obj 410 63 s \$0-raw1;
#X obj 124 133 tgl 15 1 \$0-sw1 \$1-sw1 1 4 -7 0 10 -262144 -1 -1 0
1;
#X obj 339 265 maxlib/scale 0 1 0.001 0.99 1;
#X obj 339 336 spigot;
#X obj 372 313 expr 1-$f1;
#X obj 292 236 spigot;
#X obj 292 190 r \$0-raw1;
#X obj 325 213 r \$0-sw1;
#X obj 339 240 r \$0-raw1;
#X obj 372 291 r \$0-sw1;
#X obj 292 371 s knob1;
#X obj 484 63 s \$0-raw2;
#X obj 581 261 maxlib/scale 0 1 0.001 0.99 1;
#X obj 581 332 spigot;
#X obj 614 309 expr 1-$f1;
#X obj 534 232 spigot;
#X obj 534 186 r \$0-raw2;
#X obj 567 209 r \$0-sw2;
#X obj 581 236 r \$0-raw2;
#X obj 614 287 r \$0-sw2;
#X obj 534 367 s knob2;
#X obj 142 133 tgl 15 1 \$0-sw2 \$1-sw2 2 4 -7 0 10 -262144 -1 -1 0
1;
#X obj 823 259 maxlib/scale 0 1 0.001 0.99 1;
#X obj 823 330 spigot;
#X obj 856 307 expr 1-$f1;
#X obj 776 230 spigot;
#X obj 1065 255 maxlib/scale 0 1 0.001 0.99 1;
#X obj 1065 326 spigot;
#X obj 1098 303 expr 1-$f1;
#X obj 1018 226 spigot;
#X obj 776 184 r \$0-raw3;
#X obj 809 207 r \$0-sw3;
#X obj 823 234 r \$0-raw3;
#X obj 856 285 r \$0-sw3;
#X obj 776 365 s knob3;
#X obj 1018 180 r \$0-raw4;
#X obj 1051 203 r \$0-sw4;
#X obj 1065 230 r \$0-raw4;
#X obj 1098 281 r \$0-sw4;
#X obj 1018 361 s knob4;
#X obj 343 490 maxlib/scale 0 1 0.001 0.99 1;
#X obj 343 561 spigot;
#X obj 376 538 expr 1-$f1;
#X obj 296 461 spigot;
#X obj 585 486 maxlib/scale 0 1 0.001 0.99 1;
#X obj 585 557 spigot;
#X obj 618 534 expr 1-$f1;
#X obj 538 457 spigot;
#X obj 827 484 maxlib/scale 0 1 0.001 0.99 1;
#X obj 827 555 spigot;
#X obj 860 532 expr 1-$f1;
#X obj 780 455 spigot;
#X obj 1069 480 maxlib/scale 0 1 0.001 0.99 1;
#X obj 1069 551 spigot;
#X obj 1102 528 expr 1-$f1;
#X obj 1022 451 spigot;
#X obj 296 415 r \$0-raw5;
#X obj 329 438 r \$0-sw5;
#X obj 343 465 r \$0-raw5;
#X obj 376 516 r \$0-sw5;
#X obj 296 596 s knob5;
#X obj 538 411 r \$0-raw6;
#X obj 571 434 r \$0-sw6;
#X obj 585 461 r \$0-raw6;
#X obj 618 512 r \$0-sw6;
#X obj 538 592 s knob6;
#X obj 780 590 s knob7;
#X obj 860 510 r \$0-sw7;
#X obj 827 459 r \$0-raw7;
#X obj 813 432 r \$0-sw7;
#X obj 780 409 r \$0-raw7;
#X obj 1022 405 r \$0-raw8;
#X obj 1055 428 r \$0-sw8;
#X obj 1069 455 r \$0-raw8;
#X obj 1102 506 r \$0-sw8;
#X obj 1022 586 s knob8;
#X obj 563 63 s \$0-raw3;
#X obj 648 63 s \$0-raw4;
#X obj 728 63 s \$0-raw5;
#X obj 807 63 s \$0-raw6;
#X obj 882 63 s \$0-raw7;
#X obj 971 63 s \$0-raw8;
#X obj 160 133 tgl 15 1 \$0-sw3 \$1-sw3 3 4 -7 0 10 -262144 -1 -1 0
1;
#X obj 178 133 tgl 15 1 \$0-sw4 \$1-sw4 4 4 -7 0 10 -262144 -1 -1 0
1;
#X obj 196 133 tgl 15 1 \$0-sw5 \$1-sw5 5 4 -7 0 10 -262144 -1 -1 0
1;
#X obj 214 133 tgl 15 1 \$0-sw6 \$1-sw6 6 4 -7 0 10 -262144 -1 -1 0
1;
#X obj 232 133 tgl 15 1 \$0-sw7 \$1-sw7 7 4 -7 0 10 -262144 -1 -1 0
1;
#X obj 250 133 tgl 15 1 \$0-sw8 \$1-sw8 8 4 -7 0 10 -262144 -1 -1 0
1;
#N canvas 1146 244 450 300 buttons 0;
#X obj 64 85 ctlin;
#X obj 77 109 sel 20 21 22 23 95 102 103 19;
#X obj 77 133 s button1;
#X obj 93 156 s button2;
#X obj 116 180 s button3;
#X obj 128 203 s button4;
#X obj 160 133 s button5;
#X obj 181 159 s button6;
#X obj 203 186 s button7;
#X obj 221 210 s button8;
#X connect 0 1 1 0;
#X connect 1 0 2 0;
#X connect 1 1 3 0;
#X connect 1 2 4 0;
#X connect 1 3 5 0;
#X connect 1 4 6 0;
#X connect 1 5 7 0;
#X connect 1 6 8 0;
#X connect 1 7 9 0;
#X restore 1170 67 pd buttons;
#X connect 0 0 7 0;
#X connect 1 0 9 0;
#X connect 2 0 10 0;
#X connect 3 0 11 0;
#X connect 4 0 12 0;
#X connect 5 0 13 0;
#X connect 6 0 14 0;
#X connect 7 0 29 0;
#X connect 8 0 40 0;
#X connect 9 0 105 0;
#X connect 10 0 106 0;
#X connect 11 0 107 0;
#X connect 12 0 108 0;
#X connect 13 0 109 0;
#X connect 14 0 110 0;
#X connect 15 0 17 0;
#X connect 16 0 8 0;
#X connect 17 0 24 0;
#X connect 18 0 20 0;
#X connect 20 0 19 0;
#X connect 21 0 20 1;
#X connect 22 0 19 0;
#X connect 25 0 22 0;
#X connect 26 0 18 0;
#X connect 27 0 22 1;
#X connect 28 0 21 0;
#X connect 31 0 32 0;
#X connect 32 0 39 0;
#X connect 33 0 32 1;
#X connect 34 0 39 0;
#X connect 35 0 34 0;
#X connect 36 0 34 1;
#X connect 37 0 31 0;
#X connect 38 0 33 0;
#X connect 41 0 42 0;
#X connect 42 0 49 0;
#X connect 43 0 42 1;
#X connect 44 0 49 0;
#X connect 45 0 44 0;
#X connect 46 0 44 1;
#X connect 47 0 41 0;
#X connect 48 0 43 0;
#X connect 51 0 52 0;
#X connect 52 0 63 0;
#X connect 53 0 52 1;
#X connect 54 0 63 0;
#X connect 55 0 56 0;
#X connect 56 0 68 0;
#X connect 57 0 56 1;
#X connect 58 0 68 0;
#X connect 59 0 54 0;
#X connect 60 0 54 1;
#X connect 61 0 51 0;
#X connect 62 0 53 0;
#X connect 64 0 58 0;
#X connect 65 0 58 1;
#X connect 66 0 55 0;
#X connect 67 0 57 0;
#X connect 69 0 70 0;
#X connect 70 0 89 0;
#X connect 71 0 70 1;
#X connect 72 0 89 0;
#X connect 73 0 74 0;
#X connect 74 0 94 0;
#X connect 75 0 74 1;
#X connect 76 0 94 0;
#X connect 77 0 78 0;
#X connect 78 0 95 0;
#X connect 79 0 78 1;
#X connect 80 0 95 0;
#X connect 81 0 82 0;
#X connect 82 0 104 0;
#X connect 83 0 82 1;
#X connect 84 0 104 0;
#X connect 85 0 72 0;
#X connect 86 0 72 1;
#X connect 87 0 69 0;
#X connect 88 0 71 0;
#X connect 90 0 76 0;
#X connect 91 0 76 1;
#X connect 92 0 73 0;
#X connect 93 0 75 0;
#X connect 96 0 79 0;
#X connect 97 0 77 0;
#X connect 98 0 80 1;
#X connect 99 0 80 0;
#X connect 100 0 84 0;
#X connect 101 0 84 1;
#X connect 102 0 81 0;
#X connect 103 0 83 0;
#X coords 0 -1 1 1 175 55 1 100 100;
