#N canvas 3130 751 450 500 10;
#N canvas 3501 479 450 300 loadMIDIfile 0;
#X obj 82 55 inlet;
#X msg 82 77 read;
#X obj 82 99 cyclone/seq;
#X obj 82 121 midiparse ----------------;
#X obj 82 143 unpack;
#X obj 82 165 stripnote;
#X floatatom 82 187 5 0 0 0 - - -;
#X obj 82 208 outlet;
#X obj 208 26 inlet;
#X msg 208 48 start 65536;
#X obj 170 172 bng 15 250 50 0 empty empty empty 17 7 0 10 -262144
-1 -1;
#X obj 170 201 outlet;
#X obj 215 202 s finished;
#X connect 0 0 1 0;
#X connect 1 0 2 0;
#X connect 2 0 3 0;
#X connect 2 1 10 0;
#X connect 3 0 4 0;
#X connect 4 0 5 0;
#X connect 4 1 5 1;
#X connect 5 0 6 0;
#X connect 6 0 7 0;
#X connect 8 0 9 0;
#X connect 9 0 2 0;
#X connect 10 0 11 0;
#X connect 10 0 12 0;
#X restore 21 45 pd loadMIDIfile;
#X obj 21 17 bng 15 250 50 0 empty empty open 17 7 0 10 -262144 -1
-1;
#X obj 108 17 bng 15 250 50 0 empty empty analyze 17 7 0 10 -262144
-1 -1;
#X obj 108 98 bng 15 250 50 0 empty empty done 17 7 0 10 -262144 -1
-1;
#N canvas 3972 487 450 300 markovMIDIanalysis 0;
#X obj 39 8 inlet;
#N canvas 3419 620 450 300 pair 0;
#N canvas 3693 709 450 300 zl-stream 0;
#X obj 18 16 inlet;
#X obj 18 38 t f f b;
#X obj 17 155 pack f f f;
#X msg 17 177 \$2 \$3 \$1;
#X obj 17 199 outlet;
#X obj 42 74 f;
#X obj 43 100 t f b f;
#X obj 45 127 f;
#X connect 0 0 1 0;
#X connect 1 0 2 0;
#X connect 1 1 5 1;
#X connect 1 2 5 0;
#X connect 2 0 3 0;
#X connect 3 0 4 0;
#X connect 5 0 6 0;
#X connect 6 0 7 1;
#X connect 6 1 7 0;
#X connect 6 2 2 2;
#X connect 7 0 2 1;
#X restore -130 10 pd zl-stream;
#X obj -130 -12 inlet;
#X obj -130 32 unpack f f f;
#X obj -130 54 pack;
#X obj -130 76 sprintf %i%i;
#X obj -130 98 pack;
#X obj -130 120 outlet;
#X connect 0 0 2 0;
#X connect 1 0 0 0;
#X connect 2 0 3 0;
#X connect 2 1 3 1;
#X connect 2 2 5 1;
#X connect 3 0 4 0;
#X connect 4 0 5 0;
#X connect 5 0 6 0;
#X restore 39 30 pd pair;
#X msg 39 52 merge \$1 \$2;
#X obj 39 74 coll pitchMatrix;
#C restore;
#X obj 171 16 r resetMatrix;
#X msg 171 38 clear;
#X connect 0 0 1 0;
#X connect 1 0 2 0;
#X connect 2 0 3 0;
#X connect 4 0 5 0;
#X connect 5 0 3 0;
#X restore 21 71 pd markovMIDIanalysis;
#X obj 108 122 tgl 15 0 empty empty empty 17 7 0 10 -262144 -1 -1 0
1;
#X obj 108 180 bng 15 250 50 0 empty empty empty 17 7 0 10 -262144
-1 -1;
#N canvas 3626 844 450 426 markovPitchGenerate 0;
#X obj 92 12 inlet;
#X obj 92 44 bng 15 250 50 0 empty empty empty 17 7 0 10 -262144 -1
-1;
#X obj 92 119 f;
#X obj 153 14 inlet;
#X msg 153 36 next;
#X obj 153 58 coll pitchMatrix;
#C restore;
#X floatatom 153 80 5 0 0 0 - - -;
#X obj 196 14 r finished;
#X obj 91 142 t f f;
#X obj 92 170 coll pitchMatrix;
#C restore;
#X obj 92 192 length;
#X obj 92 214 t b f;
#X obj 92 236 random;
#X obj 92 258 + 1;
#X obj 129 279 pack;
#X msg 131 306 nth \$2 \$1;
#X obj 131 334 coll pitchMatrix;
#C restore;
#X floatatom 214 364 5 0 0 0 - - -;
#X obj 214 388 outlet;
#X msg 74 296 \$2;
#X obj 74 322 % 100;
#X obj 78 356 pack;
#X obj 78 381 sprintf %i%i;
#X floatatom 31 80 5 0 0 0 - - -;
#X connect 0 0 1 0;
#X connect 1 0 2 0;
#X connect 2 0 8 0;
#X connect 3 0 4 0;
#X connect 4 0 5 0;
#X connect 5 1 6 0;
#X connect 6 0 2 1;
#X connect 7 0 4 0;
#X connect 8 0 9 0;
#X connect 8 1 14 1;
#X connect 9 0 10 0;
#X connect 10 0 11 0;
#X connect 11 0 12 0;
#X connect 11 1 12 1;
#X connect 12 0 13 0;
#X connect 13 0 14 0;
#X connect 14 0 15 0;
#X connect 14 0 19 0;
#X connect 15 0 16 0;
#X connect 16 0 17 0;
#X connect 16 0 21 1;
#X connect 17 0 18 0;
#X connect 19 0 20 0;
#X connect 20 0 21 0;
#X connect 21 0 22 0;
#X connect 22 0 23 0;
#X connect 23 0 2 1;
#X restore 108 208 pd markovPitchGenerate;
#X obj 237 181 bng 15 250 50 0 empty empty reset_start_pitch 17 7 0
10 -262144 -1 -1;
#X floatatom 108 238 5 0 0 0 - - -;
#X obj 45 426 makenote 100 500;
#X obj 45 449 noteout;
#X obj 253 17 bng 15 250 50 0 empty empty empty 17 7 0 10 -262144 -1
-1;
#X obj 253 37 s resetMatrix;
#X obj 108 265 t f b;
#X obj 139 326 sel 0 1 2 3;
#X obj 154 372 f 750;
#X obj 139 302 random 5;
#X obj 184 416 f 1500;
#X obj 168 394 f 1000;
#X obj 237 131 count 16;
#X obj 237 154 sel 0;
#X obj 138 349 f 500;
#X obj 108 150 metro 500;
#X connect 0 0 4 0;
#X connect 0 1 3 0;
#X connect 1 0 0 0;
#X connect 2 0 0 1;
#X connect 3 0 5 0;
#X connect 5 0 23 0;
#X connect 6 0 7 0;
#X connect 7 0 9 0;
#X connect 8 0 7 1;
#X connect 9 0 14 0;
#X connect 10 0 11 0;
#X connect 10 1 11 1;
#X connect 12 0 13 0;
#X connect 14 0 10 0;
#X connect 14 1 17 0;
#X connect 15 0 22 0;
#X connect 15 1 16 0;
#X connect 15 2 19 0;
#X connect 15 3 18 0;
#X connect 16 0 10 2;
#X connect 17 0 15 0;
#X connect 18 0 10 2;
#X connect 19 0 10 2;
#X connect 20 0 21 0;
#X connect 21 0 8 0;
#X connect 22 0 10 2;
#X connect 23 0 6 0;
#X connect 23 0 20 0;
