#N canvas 254 730 319 139 10;
#N canvas 4 101 1654 747 chordtable 0;
#X text 22 21 C major;
#X text 550 21 E major;
#X text 954 21 G major;
#X text 287 21 D major;
#X msg 550 48 \; 1add 0 \; 2add 2 \; 3add 2 \; 4add 1 \; 5add 0 \;
6add 0 \; change-chord bang \;;
#X msg 1230 48 \; 1add 0 \; 2add 0 \; 3add 2 \; 4add 2 \; 5add 2 \;
6add 0 \; change-chord bang \;;
#X text 1230 21 A major;
#X text 1228 169 A minor;
#X msg 1228 194 \; 1add 0 \; 2add 0 \; 3add 2 \; 4add 2 \; 5add 1 \;
6add 0 \; change-chord bang \;;
#X msg 550 194 \; 1add 0 \; 2add 2 \; 3add 2 \; 4add 0 \; 5add 0 \;
6add 0 \; change-chord bang \;;
#X text 550 169 E minor;
#X text 1501 169 B minor;
#X msg 1501 194 \; 1add 2 \; 2add 2 \; 3add 4 \; 4add 4 \; 5add 3 \;
6add 2 \; change-chord bang \;;
#X msg 954 48 \; 1add 3 \; 2add 2 \; 3add 0 \; 4add 0 \; 5add 3 \;
6add 3 \; change-chord bang \;;
#X text 16 316 C sus;
#X msg 16 338 \; 1add 3 \; 2add 3 \; 3add 2 \; 4add 0 \; 5add 3 \;
6add 3 \; change-chord bang \;;
#X text 288 169 D minor;
#X msg 288 194 \; 1add 1 \; 2add 0 \; 3add 0 \; 4add 2 \; 5add 3 \;
6add 1 \; change-chord bang \;;
#X text 1502 21 B major;
#X msg 1502 48 \; 1add 2 \; 2add 2 \; 3add 4 \; 4add 4 \; 5add 4 \;
6add 2 \; change-chord bang \;;
#X text 690 21 F major;
#X msg 690 48 \; 1add 1 \; 2add 3 \; 3add 3 \; 4add 2 \; 5add 1 \;
6add 1 \; change-chord bang \;;
#X text 688 169 F minor;
#X msg 688 194 \; 1add 1 \; 2add 3 \; 3add 3 \; 4add 1 \; 5add 1 \;
6add 1 \; change-chord bang \;;
#X text 823 21 F# major;
#X text 821 169 F# minor;
#X msg 823 48 \; 1add 2 \; 2add 4 \; 3add 4 \; 4add 3 \; 5add 2 \;
6add 2 \; change-chord bang \;;
#X msg 821 194 \; 1add 2 \; 2add 4 \; 3add 4 \; 4add 2 \; 5add 2 \;
6add 2 \; change-chord bang \;;
#X text 153 169 C# minor;
#X msg 153 194 \; 1add 4 \; 2add 4 \; 3add 6 \; 4add 6 \; 5add 5 \;
6add 4 \; change-chord bang \;;
#X text 1228 316 A sus;
#X msg 1228 338 \; 1add 0 \; 2add 0 \; 3add 2 \; 4add 2 \; 5add 0 \;
6add 0 \; change-chord bang \;;
#X text 550 316 E 7th;
#X text 550 457 E minor 7th;
#X msg 550 477 \; 1add 0 \; 2add 2 \; 3add 2 \; 4add 0 \; 5add 3 \;
6add 0 \; change-chord bang \;;
#X msg 22 48 \; 1add 3 \; 2add 3 \; 3add 2 \; 4add 0 \; 5add 1 \; 6add
0 \; change-chord bang \;;
#X msg 287 48 \; 1add 2 \; 2add 0 \; 3add 0 \; 4add 2 \; 5add 3 \;
6add 2 \; change-chord bang \;;
#X text 416 21 D# ???;
#X text 1088 21 G# ???;
#X text 153 21 C# major;
#X msg 153 48 \; 1add 4 \; 2add 4 \; 3add 6 \; 4add 6 \; 5add 6 \;
6add 4 \; change-chord bang \;;
#X msg 416 48 \; 1add 0 \; 2add 0 \; 3add 0 \; 4add 0 \; 5add 0 \;
6add 0 \; change-chord bang \;;
#X msg 1088 48 \; 1add 0 \; 2add 0 \; 3add 0 \; 4add 0 \; 5add 0 \;
6add 0 \; change-chord bang \;;
#X text 1366 21 Bb major;
#X msg 1366 48 \; 1add 1 \; 2add 1 \; 3add 3 \; 4add 3 \; 5add 3 \;
6add 1 \; change-chord bang \;;
#X text 955 169 G minor;
#X msg 955 194 \; 1add 3 \; 2add 5 \; 3add 5 \; 4add 3 \; 5add 3 \;
6add 3 \; change-chord bang \;;
#X msg 20 194 \; 1add 0 \; 2add 3 \; 3add 2 \; 4add 0 \; 5add 0 \;
6add 0 \; change-chord bang \;;
#X msg 288 338 \; 1add 2 \; 2add 0 \; 3add 0 \; 4add 2 \; 5add 1 \;
6add 2 \; change-chord bang \;;
#X text 288 316 D 7th;
#X text 20 169 C 7th;
#X msg 550 338 \; 1add 0 \; 2add 2 \; 3add 0 \; 4add 1 \; 5add 0 \;
6add 0 \; change-chord bang \;;
#X text 953 316 G 7th;
#X msg 953 338 \; 1add 3 \; 2add 2 \; 3add 0 \; 4add 0 \; 5add 0 \;
6add 1 \; change-chord bang \;;
#X text 1229 457 A 7th;
#X msg 1229 477 \; 1add 0 \; 2add 0 \; 3add 2 \; 4add 0 \; 5add 2 \;
6add 0 \; change-chord bang \;;
#X msg 1359 194 \; 1add 1 \; 2add 1 \; 3add 3 \; 4add 3 \; 5add 2 \;
6add 1 \; change-chord bang \;;
#X text 1359 169 Bb minor;
#X restore 32 24 pd chordtable;
#N canvas 90 223 1020 300 guts 0;
#X obj 27 54 f 40;
#X obj 27 127 +;
#X obj 45 92 r 1add;
#X obj 27 23 r change-chord;
#X obj 27 155 t f b;
#X obj 143 208 f 0;
#X obj 193 129 +;
#X obj 193 25 r change-chord;
#X obj 193 157 t f b;
#X obj 309 210 f 1;
#X obj 211 94 r 2add;
#X obj 193 56 f 45;
#X obj 348 133 +;
#X obj 348 29 r change-chord;
#X obj 348 161 t f b;
#X obj 514 135 +;
#X obj 514 31 r change-chord;
#X obj 514 163 t f b;
#X obj 366 98 r 3add;
#X obj 464 214 f 2;
#X obj 348 60 f 50;
#X obj 514 62 f 55;
#X obj 532 100 r 4add;
#X obj 630 216 f 3;
#X obj 679 139 +;
#X obj 679 35 r change-chord;
#X obj 679 167 t f b;
#X obj 845 141 +;
#X obj 845 37 r change-chord;
#X obj 845 169 t f b;
#X obj 795 220 f 4;
#X obj 961 223 f 5;
#X obj 697 104 r 5add;
#X obj 863 106 r 6add;
#X obj 679 66 f 59;
#X obj 845 68 f 64;
#X obj 27 238 tabwrite chord;
#X obj 193 240 tabwrite chord;
#X obj 348 244 tabwrite chord;
#X obj 514 246 tabwrite chord;
#X obj 679 250 tabwrite chord;
#X obj 845 252 tabwrite chord;
#X connect 0 0 1 0;
#X connect 1 0 4 0;
#X connect 2 0 1 1;
#X connect 3 0 0 0;
#X connect 4 0 36 0;
#X connect 4 1 5 0;
#X connect 5 0 36 1;
#X connect 6 0 8 0;
#X connect 7 0 11 0;
#X connect 8 0 37 0;
#X connect 8 1 9 0;
#X connect 9 0 37 1;
#X connect 10 0 6 1;
#X connect 11 0 6 0;
#X connect 12 0 14 0;
#X connect 13 0 20 0;
#X connect 14 0 38 0;
#X connect 14 1 19 0;
#X connect 15 0 17 0;
#X connect 16 0 21 0;
#X connect 17 0 39 0;
#X connect 17 1 23 0;
#X connect 18 0 12 1;
#X connect 19 0 38 1;
#X connect 20 0 12 0;
#X connect 21 0 15 0;
#X connect 22 0 15 1;
#X connect 23 0 39 1;
#X connect 24 0 26 0;
#X connect 25 0 34 0;
#X connect 26 0 40 0;
#X connect 26 1 30 0;
#X connect 27 0 29 0;
#X connect 28 0 35 0;
#X connect 29 0 41 0;
#X connect 29 1 31 0;
#X connect 30 0 40 1;
#X connect 31 0 41 1;
#X connect 32 0 24 1;
#X connect 33 0 27 1;
#X connect 34 0 24 0;
#X connect 35 0 27 0;
#X restore 31 53 pd guts;
#X obj 31 81 table chord 6;
