#N canvas 3280 770 1585 747 10;
#X obj 42 269 inlet;
#X text 89 265 <-- attach clock;
#X obj 656 686 outlet;
#X obj 14 15 cnv 15 1 1 empty empty empty 1 1 0 14 -262144 -66577 0
;
#X obj 237 291 tabread \$0-sequence;
#X obj 377 370 line;
#X obj 377 344 pack 0 0;
#X obj 22 105 hradio 31 1 0 16 empty \$0-ndx2 empty 0 -8 0 10 -200689
-4160 -1 12;
#N canvas 0 22 454 304 (subpatch) 0;
#X array \$0-sequence 16 float 2;
#X coords 0 21 16 -1 496 60 2 0 0;
#X restore 22 42 graph;
#X text 11 187 to do: legato mode (repeated notes don't retrigger)
;
#X text 431 368 to do: portamento mode;
#X obj 22 139 hradio 31 1 0 16 empty \$0-position empty 0 -8 0 10 -261682
-258113 -1 2;
#N canvas 880 301 590 298 nav 0;
#X obj -8636 -575 +;
#X msg -8730 -582 15;
#X msg -8870 -581 0;
#X msg -8822 -580 -1;
#X msg -8775 -580 1;
#X obj -8637 -656 t b f;
#X obj -8636 -601 f;
#X obj -8636 -546 moses 0;
#X obj -8597 -520 moses 16;
#X obj -8931 -684 loadbang;
#X obj -9092 -685 sel 50 52 53 54 56;
#X obj -9092 -711 r \$0-inkey;
#X obj -8867 -531 s \$0-ndx2;
#X obj -8597 -495 s \$0-ndx2;
#X obj -8621 -625 r \$0-ndx2;
#X obj -8774 -525 s \$0-move;
#X obj -8823 -555 s \$0-move;
#X obj -8730 -552 s \$0-ndx2;
#X obj -8637 -684 r \$0-move;
#X obj -9095 -543 s \$0-do-start;
#X obj -9074 -566 s \$0-do-back;
#X obj -9045 -601 s \$0-do-rest;
#X obj -9028 -633 s \$0-do-fwd;
#X obj -9006 -655 s \$0-do-end;
#X obj -8871 -685 r \$0-do-start;
#X obj -8821 -658 r \$0-do-back;
#X obj -8776 -632 r \$0-do-fwd;
#X obj -8730 -608 r \$0-do-end;
#X connect 0 0 7 0;
#X connect 1 0 17 0;
#X connect 2 0 12 0;
#X connect 3 0 16 0;
#X connect 4 0 15 0;
#X connect 5 0 6 0;
#X connect 5 1 0 1;
#X connect 6 0 0 0;
#X connect 7 1 8 0;
#X connect 8 0 13 0;
#X connect 9 0 2 0;
#X connect 10 0 19 0;
#X connect 10 1 20 0;
#X connect 10 2 21 0;
#X connect 10 3 22 0;
#X connect 10 4 23 0;
#X connect 11 0 10 0;
#X connect 14 0 6 1;
#X connect 18 0 5 0;
#X connect 24 0 2 0;
#X connect 25 0 3 0;
#X connect 26 0 4 0;
#X connect 27 0 1 0;
#X restore 26 435 pd nav;
#N canvas 2994 921 858 543 keys 0;
#X obj 554 234 sel 113 119 101 114 116 121 117;
#X msg 551 406 \; keypressed 14;
#X msg 577 383 \; keypressed 15;
#X msg 608 360 \; keypressed 16;
#X msg 634 337 \; keypressed 17;
#X msg 658 309 \; keypressed 18;
#X msg 684 286 \; keypressed 19;
#X msg 710 261 \; keypressed 20;
#X msg 14 408 \; keypressed 0;
#X msg 40 385 \; keypressed 1;
#X msg 71 362 \; keypressed 2;
#X msg 97 339 \; keypressed 3;
#X msg 121 311 \; keypressed 4;
#X msg 147 288 \; keypressed 5;
#X msg 173 263 \; keypressed 6;
#X msg 276 406 \; keypressed 7;
#X msg 302 383 \; keypressed 8;
#X msg 333 360 \; keypressed 9;
#X msg 359 337 \; keypressed 10;
#X msg 383 309 \; keypressed 11;
#X msg 409 286 \; keypressed 12;
#X msg 435 261 \; keypressed 13;
#X obj 279 234 sel 97 115 100 102 103 104 106;
#X obj 17 236 sel 122 120 99 118 98 110 109;
#X obj 18 206 r \$0-inkey;
#X obj 279 207 r \$0-inkey;
#X obj 554 209 r \$0-inkey;
#X obj 20 18 spigot;
#X obj 21 -11 key;
#X obj 19 43 s \$0-inkey;
#X obj 55 -15 r \$0-record;
#X obj 148 7 t f b;
#X obj 149 80 tabwrite \$0-sequence;
#X obj 176 40 f;
#X obj 148 -17 r keypressed;
#X msg 286 10 \; keypressed -1;
#X obj 191 15 r \$0-ndx2;
#X obj 286 -15 r \$0-do-rest;
#X connect 0 0 1 0;
#X connect 0 1 2 0;
#X connect 0 2 3 0;
#X connect 0 3 4 0;
#X connect 0 4 5 0;
#X connect 0 5 6 0;
#X connect 0 6 7 0;
#X connect 22 0 15 0;
#X connect 22 1 16 0;
#X connect 22 2 17 0;
#X connect 22 3 18 0;
#X connect 22 4 19 0;
#X connect 22 5 20 0;
#X connect 22 6 21 0;
#X connect 23 0 8 0;
#X connect 23 1 9 0;
#X connect 23 2 10 0;
#X connect 23 3 11 0;
#X connect 23 4 12 0;
#X connect 23 5 13 0;
#X connect 23 6 14 0;
#X connect 24 0 23 0;
#X connect 25 0 22 0;
#X connect 26 0 0 0;
#X connect 27 0 29 0;
#X connect 28 0 27 0;
#X connect 30 0 27 1;
#X connect 31 0 32 0;
#X connect 31 1 33 0;
#X connect 33 0 32 1;
#X connect 34 0 31 0;
#X connect 36 0 33 1;
#X connect 37 0 35 0;
#X restore 27 460 pd keys;
#X obj 503 20 tgl 15 0 \$0-record empty empty 17 7 0 10 -99865 -258113
-1 0 1;
#X obj 42 299 t b;
#X obj 41 326 cyclone/counter;
#X obj 41 352 mod 16;
#X obj 137 293 r \$1-jump;
#X obj 41 378 s \$0-position;
#X obj 237 266 r \$0-position;
#X obj 423 321 r \$1-hub;
#X text 10 209 to do: \$0-everything;
#X floatatom 148 381 5 0 0 0 - - -;
#X obj 554 600 tabread scale_array;
#X obj 267 374 moses 0;
#X obj 554 572 - 14;
#X obj 420 544 tabread scale_array;
#X obj 420 520 - 7;
#X obj 307 432 moses 7;
#X obj 554 546 moses 21;
#X obj 419 492 moses 14;
#X obj 307 457 tabread scale_array;
#X obj 420 572 + 12;
#X obj 554 625 + 24;
#X obj 307 485 s \$0-root;
#X obj 267 400 s \$0-noteoff;
#X obj 417 600 s \$0-root;
#X obj 554 652 s \$0-root;
#X obj 656 661 r \$0-root;
#N canvas 4 101 1585 747 presets 0;
#X obj 173 223 list prepend add;
#X obj 173 245 list trim;
#X msg 173 180 set \$1-sequence \, bang;
#X obj 173 158 f \$0;
#X obj 37 158 savepanel;
#X obj 37 185 list prepend write;
#X obj 37 212 list trim;
#X obj 100 92 t b b;
#X obj 85 353 textfile;
#X obj 398 162 list prepend read;
#X obj 398 184 list trim;
#X obj 416 276 textfile;
#X msg 199 293 clear;
#X obj 172 269 t a b;
#X msg 378 237 bang;
#X obj 416 324 s \$0-sequence;
#X msg 416 237 rewind;
#X obj 416 300 list prepend 0;
#X obj 398 206 t b b a;
#X obj 100 66 inlet;
#X obj 173 201 zexy/tabdump;
#X obj 398 118 inlet;
#X connect 0 0 1 0;
#X connect 1 0 13 0;
#X connect 2 0 20 0;
#X connect 3 0 2 0;
#X connect 4 0 5 0;
#X connect 5 0 6 0;
#X connect 6 0 8 0;
#X connect 7 0 4 0;
#X connect 7 1 3 0;
#X connect 9 0 10 0;
#X connect 10 0 18 0;
#X connect 11 0 17 0;
#X connect 12 0 8 0;
#X connect 13 0 8 0;
#X connect 13 1 12 0;
#X connect 14 0 11 0;
#X connect 16 0 11 0;
#X connect 17 0 15 0;
#X connect 18 0 14 0;
#X connect 18 1 16 0;
#X connect 18 2 11 0;
#X connect 19 0 7 0;
#X connect 20 0 0 0;
#X connect 21 0 9 0;
#X restore 43 591 pd presets;
#X obj 435 19 bng 15 250 50 0 \$0-load empty empty 17 7 0 10 -204786
-1 -1;
#X obj 468 19 bng 15 250 50 0 \$0-save empty empty 17 7 0 10 -261234
-1 -1;
#X obj 100 560 openpanel;
#X obj 38 559 r \$0-save;
#X obj 100 534 r \$0-load;
#X text 438 18 L;
#X text 470 18 S;
#X obj 174 537 inlet;
#X text 214 533 <-- path to preset;
#X connect 0 0 15 0;
#X connect 4 0 6 0;
#X connect 4 0 25 0;
#X connect 6 0 5 0;
#X connect 15 0 16 0;
#X connect 16 0 17 0;
#X connect 17 0 19 0;
#X connect 17 0 23 0;
#X connect 18 0 16 3;
#X connect 20 0 4 0;
#X connect 21 0 6 1;
#X connect 24 0 34 0;
#X connect 25 0 36 0;
#X connect 25 1 29 0;
#X connect 26 0 24 0;
#X connect 27 0 33 0;
#X connect 28 0 27 0;
#X connect 29 0 32 0;
#X connect 29 1 31 0;
#X connect 30 0 26 0;
#X connect 31 0 28 0;
#X connect 31 1 30 0;
#X connect 32 0 35 0;
#X connect 33 0 37 0;
#X connect 34 0 38 0;
#X connect 39 0 2 0;
#X connect 43 0 40 1;
#X connect 44 0 40 0;
#X connect 45 0 43 0;
#X connect 48 0 40 1;
#X coords 0 -1 1 1 520 170 2 10 10;
