#N canvas 3332 774 1600 762 10;
#X obj 16 15 klok mst;
#X obj 120 15 scalemaker;
#X obj 304 638 tabread scale_array;
#X obj 16 180 miniseq mst;
#X obj 536 285 s mst-jump;
#X obj 511 131 r mst-clockout;
#X obj 511 158 sel 0 4 8 12;
#X obj 537 226 sel 0 1 2 3;
#X obj 152 376 moses 0;
#X obj 303 609 - 14;
#X obj 229 511 tabread scale_array;
#X obj 229 487 - 7;
#X obj 188 405 moses 7;
#X obj 305 584 moses 21;
#X obj 229 432 moses 14;
#X obj 186 461 tabread scale_array;
#X obj 229 539 + 12;
#X obj 306 665 + 24;
#X obj 668 612 mtof;
#X obj 668 638 osc~;
#X obj 630 694 dac~;
#X msg 598 251 8;
#X obj 641 559 t b f;
#X obj 639 663 *~;
#X obj 640 533 + 60;
#X obj 306 692 s root;
#X obj 640 500 r root;
#X obj 140 413 s root;
#X text 86 415 note off;
#X obj 226 567 s root;
#X obj 175 499 s root;
#X obj 702 563 r mst-hub;
#X obj 640 588 ead~ 5 100;
#X msg 537 251 0;
#X msg 567 251 4;
#X msg 631 251 12;
#X obj 536 198 random 8;
#X obj 689 685 mydelay 161 0.6 10000;
#X connect 0 0 3 0;
#X connect 0 1 6 0;
#X connect 2 0 17 0;
#X connect 3 0 8 0;
#X connect 5 0 6 0;
#X connect 6 0 36 0;
#X connect 6 1 36 0;
#X connect 6 2 36 0;
#X connect 6 3 36 0;
#X connect 7 0 33 0;
#X connect 7 1 34 0;
#X connect 7 2 21 0;
#X connect 7 3 35 0;
#X connect 8 1 12 0;
#X connect 9 0 2 0;
#X connect 10 0 16 0;
#X connect 11 0 10 0;
#X connect 12 0 15 0;
#X connect 12 1 14 0;
#X connect 13 0 9 0;
#X connect 14 0 11 0;
#X connect 14 1 13 0;
#X connect 15 0 30 0;
#X connect 16 0 29 0;
#X connect 17 0 25 0;
#X connect 18 0 19 0;
#X connect 19 0 23 1;
#X connect 21 0 4 0;
#X connect 22 0 32 0;
#X connect 22 1 18 0;
#X connect 23 0 20 0;
#X connect 23 0 20 1;
#X connect 23 0 37 0;
#X connect 24 0 22 0;
#X connect 26 0 24 0;
#X connect 31 0 32 2;
#X connect 32 0 23 0;
#X connect 33 0 4 0;
#X connect 34 0 4 0;
#X connect 35 0 4 0;
#X connect 36 0 7 0;
#X connect 37 0 20 1;
#X connect 37 0 20 0;
