#N canvas 3223 448 444 465 10;
#X obj 165 141 phasor~;
#X obj 27 183 cos~;
#X obj 27 211 +~ 1;
#X obj 27 237 *~ 0.5;
#X obj 46 310 *~;
#X obj 87 197 r depth;
#X obj 157 223 cos~;
#X obj 157 251 +~ 1;
#X obj 157 277 *~ 0.5;
#X obj 176 321 *~;
#X obj 217 194 r depth;
#X obj 287 223 cos~;
#X obj 287 251 +~ 1;
#X obj 287 277 *~ 0.5;
#X obj 306 321 *~;
#X obj 347 192 r depth;
#X obj 287 188 +~ 0.66;
#X obj 157 188 +~ 0.33;
#X obj 46 376 *~ 0.33;
#X obj 176 376 *~ 0.33;
#X obj 306 376 *~ 0.33;
#X obj 286 72 hsl 100 20 0.05 50 1 1 depth empty depth 70 10 0 10 -262144
-1 -1 3800 1;
#X obj 286 95 hsl 100 20 0.005 5 1 1 speed empty speed 70 10 0 10 -262144
-1 -1 5500 1;
#X obj 163 117 r speed;
#X obj 42 30 inlet~;
#X obj 166 430 outlet~;
#X obj 42 65 delwrite~ \$0-CHORUS 10000;
#X obj 46 353 vd~ \$0-CHORUS;
#X obj 176 355 vd~ \$0-CHORUS;
#X obj 306 354 vd~ \$0-CHORUS;
#X connect 0 0 1 0;
#X connect 0 0 17 0;
#X connect 0 0 16 0;
#X connect 1 0 2 0;
#X connect 2 0 3 0;
#X connect 3 0 4 0;
#X connect 4 0 27 0;
#X connect 5 0 4 1;
#X connect 6 0 7 0;
#X connect 7 0 8 0;
#X connect 8 0 9 0;
#X connect 9 0 28 0;
#X connect 10 0 9 1;
#X connect 11 0 12 0;
#X connect 12 0 13 0;
#X connect 13 0 14 0;
#X connect 14 0 29 0;
#X connect 15 0 14 1;
#X connect 16 0 11 0;
#X connect 17 0 6 0;
#X connect 18 0 25 0;
#X connect 19 0 25 0;
#X connect 20 0 25 0;
#X connect 23 0 0 0;
#X connect 24 0 26 0;
#X connect 27 0 18 0;
#X connect 28 0 19 0;
#X connect 29 0 20 0;
#X coords 0 -1 1 1 111 70 1 280 50;
