#N canvas 366 577 615 382 10;
#X obj 158 102 sig~;
#X obj 159 153 *~ 0.1;
#X obj 160 127 vd~ \$0_foo;
#X obj 158 238 delwrite~ \$0_foo 5000;
#X obj 31 75 inlet~;
#X obj 158 75 inlet;
#X obj 313 71 inlet;
#X obj 505 153 catch~ \$0_wet;
#X obj 208 153 throw~ \$0_wet;
#X obj 233 99 moses 0;
#X obj 232 125 moses 1;
#X obj 113 40 r \$1-deltime;
#X obj 233 72 r \$1-delfb;
#X obj 313 96 s \$1-delfb;
#X obj 395 71 inlet;
#X obj 395 96 s \$1-delfilt;
#X obj 215 180 r \$1-delfilt;
#X obj 158 204 lop~ 20000;
#X obj 179 -52 f \$1;
#X obj 179 -75 loadbang;
#X obj 274 -75 loadbang;
#X obj 367 -74 loadbang;
#X obj 274 -52 f \$2;
#X obj 367 -51 f \$3;
#X obj 179 -29 s \$1-deltime;
#X obj 274 -29 s \$1-delfb;
#X obj 367 -29 s \$1-delfilt;
#X obj 505 205 outlet~;
#X obj 505 181 tanh~;
#X connect 0 0 2 0;
#X connect 1 0 17 0;
#X connect 2 0 1 0;
#X connect 2 0 8 0;
#X connect 4 0 3 0;
#X connect 5 0 0 0;
#X connect 6 0 13 0;
#X connect 7 0 28 0;
#X connect 9 1 10 0;
#X connect 10 0 1 1;
#X connect 11 0 0 0;
#X connect 12 0 9 0;
#X connect 14 0 15 0;
#X connect 16 0 17 1;
#X connect 17 0 3 0;
#X connect 18 0 24 0;
#X connect 19 0 18 0;
#X connect 20 0 22 0;
#X connect 21 0 23 0;
#X connect 22 0 25 0;
#X connect 23 0 26 0;
#X connect 28 0 27 0;
