#N canvas 230 543 617 323 10;
#X obj 48 135 *~;
#X obj 307 122 flatgui/knob 32 32 0 1 0 1 \$0-eq-lo \$1-eq-lo empty
0 -8 0 8 -262144 -1 -1 3100 1;
#X obj 48 160 lop~ 500;
#X obj 132 7 inlet~;
#X obj 132 137 *~;
#X obj 364 122 flatgui/knob 32 32 0 1 0 1 \$0-eq-mid \$1-eq-mid empty
0 -8 0 8 -262144 -1 -1 3100 1;
#X obj 132 162 hip~ 500;
#X obj 132 188 lop~ 2000;
#X obj 208 138 *~;
#X obj 420 122 flatgui/knob 32 32 0 1 0 1 \$0-eq-hi \$1-eq-hi empty
0 -8 0 8 -262144 -1 -1 3100 1;
#X obj 208 163 hip~ 2000;
#X obj 132 30 s~ \$0-mysig;
#X obj 48 52 r~ \$0-mysig;
#X obj 132 54 r~ \$0-mysig;
#X obj 208 55 r~ \$0-mysig;
#X obj 48 185 throw~ \$0-eqd;
#X obj 132 215 throw~ \$0-eqd;
#X obj 209 189 throw~ \$0-eqd;
#X obj 134 240 catch~ \$0-eqd;
#X obj 134 266 outlet~;
#X obj 63 112 sig~;
#X obj 147 111 sig~;
#X obj 223 112 sig~;
#X obj 68 79 r \$0-eq-lo;
#X obj 142 79 r \$0-eq-mid;
#X obj 221 80 r \$0-eq-hi;
#X connect 0 0 2 0;
#X connect 2 0 15 0;
#X connect 3 0 11 0;
#X connect 4 0 6 0;
#X connect 6 0 7 0;
#X connect 7 0 16 0;
#X connect 8 0 10 0;
#X connect 10 0 17 0;
#X connect 12 0 0 0;
#X connect 13 0 4 0;
#X connect 14 0 8 0;
#X connect 18 0 19 0;
#X connect 20 0 0 1;
#X connect 21 0 4 1;
#X connect 22 0 8 1;
#X connect 23 0 20 0;
#X connect 24 0 21 0;
#X connect 25 0 22 0;
#X coords 0 -1 1 1 160 60 1 300 100;
