#N canvas 772 247 504 245 10;
#X obj 21 10 osc~;
#X obj 21 32 *~ 0.5;
#X obj 21 54 +~ 0.5;
#X obj 22 76 pow~;
#X msg 99 28 \$1 20;
#X obj 99 50 line~;
#X obj 22 98 outlet~;
#X obj 22 -12 sig~;
#X obj 22 -65 r \$0-speed;
#X obj 99 -17 r \$0-width;
#X obj 22 -41 maxlib/scale 0 1 0.01 20 1;
#X obj 99 5 maxlib/scale 0 1 0.01 1000 1;
#X obj 295 31 loadbang;
#X obj 295 55 f \$1;
#X obj 375 31 loadbang;
#X obj 375 55 f \$2;
#X obj 295 79 s \$0-speed;
#X obj 375 79 s \$0-width;
#X obj 296 -31 s \$0-speed;
#X obj 369 -31 s \$0-width;
#X obj 296 -63 inlet;
#X obj 369 -63 inlet;
#X connect 0 0 1 0;
#X connect 1 0 2 0;
#X connect 2 0 3 0;
#X connect 3 0 6 0;
#X connect 4 0 5 0;
#X connect 5 0 3 1;
#X connect 7 0 0 0;
#X connect 8 0 10 0;
#X connect 9 0 11 0;
#X connect 10 0 7 0;
#X connect 11 0 4 0;
#X connect 12 0 13 0;
#X connect 13 0 16 0;
#X connect 14 0 15 0;
#X connect 15 0 17 0;
#X connect 20 0 18 0;
#X connect 21 0 19 0;
#X coords 0 245 1 244 80 65 0;
