#N canvas 2698 985 800 518 10;
#X obj -183 54 flatgui/knob 32 32 0 1 0 1 \$0-pan0 \$1-pan0 empty 0
-8 0 8 -262130 -258113 -1 1600 1;
#X obj -183 97 vsl 32 160 0.01 1.01 1 0 \$0-vol0 \$1-vol0 empty 0 -9
0 10 -262144 -159808 -1 0 0;
#X obj 363 388 dac~;
#X obj 363 342 catch~ \$0-L;
#X obj 385 365 catch~ \$0-R;
#N canvas 2560 54 2560 1546 guts 0;
#X obj 124 36 r \$0-vol0;
#X obj 124 60 - 0.01;
#X obj 124 161 *~;
#X obj 21 32 r \$0-pan0;
#X obj 21 114 - 1;
#X obj 21 155 * -1;
#X obj 22 248 *~;
#X obj 108 249 *~;
#X obj 124 108 line~;
#X obj 124 84 pack f 10;
#X obj 21 221 line~;
#X obj 21 197 pack f 10;
#X obj 108 226 line~;
#X obj 108 202 pack f 10;
#X obj 21 73 t f f;
#X obj 23 274 throw~ \$0-L;
#X obj 108 274 throw~ \$0-R;
#X obj 466 34 r \$0-vol1;
#X obj 466 58 - 0.01;
#X obj 466 159 *~;
#X obj 363 30 r \$0-pan1;
#X obj 363 112 - 1;
#X obj 363 153 * -1;
#X obj 364 246 *~;
#X obj 450 247 *~;
#X obj 466 106 line~;
#X obj 466 82 pack f 10;
#X obj 363 219 line~;
#X obj 363 195 pack f 10;
#X obj 450 224 line~;
#X obj 450 200 pack f 10;
#X obj 363 71 t f f;
#X obj 365 272 throw~ \$0-L;
#X obj 450 272 throw~ \$0-R;
#X obj 800 30 r \$0-vol2;
#X obj 800 54 - 0.01;
#X obj 800 155 *~;
#X obj 697 26 r \$0-pan2;
#X obj 697 108 - 1;
#X obj 697 149 * -1;
#X obj 698 242 *~;
#X obj 784 243 *~;
#X obj 800 102 line~;
#X obj 800 78 pack f 10;
#X obj 697 215 line~;
#X obj 697 191 pack f 10;
#X obj 784 220 line~;
#X obj 784 196 pack f 10;
#X obj 697 67 t f f;
#X obj 699 268 throw~ \$0-L;
#X obj 784 268 throw~ \$0-R;
#X obj 1142 28 r \$0-vol3;
#X obj 1142 52 - 0.01;
#X obj 1142 153 *~;
#X obj 1039 24 r \$0-pan3;
#X obj 1039 106 - 1;
#X obj 1039 147 * -1;
#X obj 1040 240 *~;
#X obj 1126 241 *~;
#X obj 1142 100 line~;
#X obj 1142 76 pack f 10;
#X obj 1039 213 line~;
#X obj 1039 189 pack f 10;
#X obj 1126 218 line~;
#X obj 1126 194 pack f 10;
#X obj 1039 65 t f f;
#X obj 1041 266 throw~ \$0-L;
#X obj 1126 266 throw~ \$0-R;
#X obj 1436 32 r \$0-vol4;
#X obj 1436 56 - 0.01;
#X obj 1436 157 *~;
#X obj 1333 28 r \$0-pan4;
#X obj 1333 110 - 1;
#X obj 1333 151 * -1;
#X obj 1334 244 *~;
#X obj 1420 245 *~;
#X obj 1436 104 line~;
#X obj 1436 80 pack f 10;
#X obj 1333 217 line~;
#X obj 1333 193 pack f 10;
#X obj 1420 222 line~;
#X obj 1420 198 pack f 10;
#X obj 1333 69 t f f;
#X obj 1335 270 throw~ \$0-L;
#X obj 1420 270 throw~ \$0-R;
#X obj 1778 30 r \$0-vol5;
#X obj 1778 54 - 0.01;
#X obj 1778 155 *~;
#X obj 1675 26 r \$0-pan5;
#X obj 1675 108 - 1;
#X obj 1675 149 * -1;
#X obj 1676 242 *~;
#X obj 1762 243 *~;
#X obj 1778 102 line~;
#X obj 1778 78 pack f 10;
#X obj 1675 215 line~;
#X obj 1675 191 pack f 10;
#X obj 1762 220 line~;
#X obj 1762 196 pack f 10;
#X obj 1675 67 t f f;
#X obj 1677 268 throw~ \$0-L;
#X obj 1762 268 throw~ \$0-R;
#X obj 2112 26 r \$0-vol6;
#X obj 2112 50 - 0.01;
#X obj 2112 151 *~;
#X obj 2009 22 r \$0-pan6;
#X obj 2009 104 - 1;
#X obj 2009 145 * -1;
#X obj 2010 238 *~;
#X obj 2096 239 *~;
#X obj 2112 98 line~;
#X obj 2112 74 pack f 10;
#X obj 2009 211 line~;
#X obj 2009 187 pack f 10;
#X obj 2096 216 line~;
#X obj 2096 192 pack f 10;
#X obj 2009 63 t f f;
#X obj 2011 264 throw~ \$0-L;
#X obj 2096 264 throw~ \$0-R;
#X obj 2454 24 r \$0-vol7;
#X obj 2454 48 - 0.01;
#X obj 2454 149 *~;
#X obj 2351 20 r \$0-pan7;
#X obj 2351 102 - 1;
#X obj 2351 143 * -1;
#X obj 2352 236 *~;
#X obj 2438 237 *~;
#X obj 2454 96 line~;
#X obj 2454 72 pack f 10;
#X obj 2351 209 line~;
#X obj 2351 185 pack f 10;
#X obj 2438 214 line~;
#X obj 2438 190 pack f 10;
#X obj 2351 61 t f f;
#X obj 2353 262 throw~ \$0-L;
#X obj 2438 262 throw~ \$0-R;
#X obj 139 135 r~ \$1-mix0;
#X obj 481 133 r~ \$1-mix1;
#X obj 815 129 r~ \$1-mix2;
#X obj 1157 127 r~ \$1-mix3;
#X obj 1451 131 r~ \$1-mix4;
#X obj 1793 129 r~ \$1-mix5;
#X obj 2127 125 r~ \$1-mix6;
#X obj 2469 123 r~ \$1-mix7;
#X obj 156 398 *~;
#X obj 156 375 line~;
#X obj 156 351 pack f 10;
#X obj 156 298 r \$0-rev0;
#X obj 53 421 throw~ \$0-rev-L;
#X obj 156 422 throw~ \$0-rev-R;
#X obj 53 399 *~;
#X obj 53 376 line~;
#X obj 53 352 pack f 10;
#X obj 53 299 r \$0-rev0;
#X obj 156 325 - 0.01;
#X obj 53 326 - 0.01;
#X obj 491 403 *~;
#X obj 491 380 line~;
#X obj 491 356 pack f 10;
#X obj 388 426 throw~ \$0-rev-L;
#X obj 491 427 throw~ \$0-rev-R;
#X obj 388 404 *~;
#X obj 388 381 line~;
#X obj 388 357 pack f 10;
#X obj 491 330 - 0.01;
#X obj 388 331 - 0.01;
#X obj 388 304 r \$0-rev1;
#X obj 491 303 r \$0-rev1;
#X obj 824 404 *~;
#X obj 824 381 line~;
#X obj 824 357 pack f 10;
#X obj 721 427 throw~ \$0-rev-L;
#X obj 824 428 throw~ \$0-rev-R;
#X obj 721 405 *~;
#X obj 721 382 line~;
#X obj 721 358 pack f 10;
#X obj 824 331 - 0.01;
#X obj 721 332 - 0.01;
#X obj 721 305 r \$0-rev2;
#X obj 824 305 r \$0-rev2;
#X obj 1169 413 *~;
#X obj 1169 390 line~;
#X obj 1169 366 pack f 10;
#X obj 1066 436 throw~ \$0-rev-L;
#X obj 1169 437 throw~ \$0-rev-R;
#X obj 1066 414 *~;
#X obj 1066 391 line~;
#X obj 1066 367 pack f 10;
#X obj 1169 340 - 0.01;
#X obj 1066 341 - 0.01;
#X obj 1066 314 r \$0-rev3;
#X obj 1169 314 r \$0-rev3;
#X obj 1433 410 *~;
#X obj 1433 387 line~;
#X obj 1433 363 pack f 10;
#X obj 1330 433 throw~ \$0-rev-L;
#X obj 1433 434 throw~ \$0-rev-R;
#X obj 1330 411 *~;
#X obj 1330 388 line~;
#X obj 1330 364 pack f 10;
#X obj 1433 337 - 0.01;
#X obj 1330 338 - 0.01;
#X obj 1768 415 *~;
#X obj 1768 392 line~;
#X obj 1768 368 pack f 10;
#X obj 1665 438 throw~ \$0-rev-L;
#X obj 1768 439 throw~ \$0-rev-R;
#X obj 1665 416 *~;
#X obj 1665 393 line~;
#X obj 1665 369 pack f 10;
#X obj 1768 342 - 0.01;
#X obj 1665 343 - 0.01;
#X obj 2101 416 *~;
#X obj 2101 393 line~;
#X obj 2101 369 pack f 10;
#X obj 1998 439 throw~ \$0-rev-L;
#X obj 2101 440 throw~ \$0-rev-R;
#X obj 1998 417 *~;
#X obj 1998 394 line~;
#X obj 1998 370 pack f 10;
#X obj 2101 343 - 0.01;
#X obj 1998 344 - 0.01;
#X obj 2446 425 *~;
#X obj 2446 402 line~;
#X obj 2446 378 pack f 10;
#X obj 2343 448 throw~ \$0-rev-L;
#X obj 2446 449 throw~ \$0-rev-R;
#X obj 2343 426 *~;
#X obj 2343 403 line~;
#X obj 2343 379 pack f 10;
#X obj 2446 352 - 0.01;
#X obj 2343 353 - 0.01;
#X obj 1330 311 r \$0-rev4;
#X obj 1433 310 r \$0-rev4;
#X obj 1665 316 r \$0-rev5;
#X obj 1768 315 r \$0-rev5;
#X obj 1998 317 r \$0-rev6;
#X obj 2101 317 r \$0-rev6;
#X obj 2343 326 r \$0-rev7;
#X obj 2446 326 r \$0-rev7;
#X connect 0 0 1 0;
#X connect 1 0 9 0;
#X connect 2 0 6 1;
#X connect 2 0 7 1;
#X connect 3 0 14 0;
#X connect 4 0 5 0;
#X connect 5 0 11 0;
#X connect 6 0 15 0;
#X connect 6 0 150 1;
#X connect 7 0 16 0;
#X connect 7 0 144 1;
#X connect 8 0 2 0;
#X connect 9 0 8 0;
#X connect 10 0 6 0;
#X connect 11 0 10 0;
#X connect 12 0 7 0;
#X connect 13 0 12 0;
#X connect 14 0 4 0;
#X connect 14 1 13 0;
#X connect 17 0 18 0;
#X connect 18 0 26 0;
#X connect 19 0 23 1;
#X connect 19 0 24 1;
#X connect 20 0 31 0;
#X connect 21 0 22 0;
#X connect 22 0 28 0;
#X connect 23 0 32 0;
#X connect 23 0 161 1;
#X connect 24 0 33 0;
#X connect 24 0 156 1;
#X connect 25 0 19 0;
#X connect 26 0 25 0;
#X connect 27 0 23 0;
#X connect 28 0 27 0;
#X connect 29 0 24 0;
#X connect 30 0 29 0;
#X connect 31 0 21 0;
#X connect 31 1 30 0;
#X connect 34 0 35 0;
#X connect 35 0 43 0;
#X connect 36 0 40 1;
#X connect 36 0 41 1;
#X connect 37 0 48 0;
#X connect 38 0 39 0;
#X connect 39 0 45 0;
#X connect 40 0 49 0;
#X connect 40 0 173 1;
#X connect 41 0 50 0;
#X connect 41 0 168 1;
#X connect 42 0 36 0;
#X connect 43 0 42 0;
#X connect 44 0 40 0;
#X connect 45 0 44 0;
#X connect 46 0 41 0;
#X connect 47 0 46 0;
#X connect 48 0 38 0;
#X connect 48 1 47 0;
#X connect 51 0 52 0;
#X connect 52 0 60 0;
#X connect 53 0 57 1;
#X connect 53 0 58 1;
#X connect 54 0 65 0;
#X connect 55 0 56 0;
#X connect 56 0 62 0;
#X connect 57 0 66 0;
#X connect 57 0 185 1;
#X connect 58 0 67 0;
#X connect 58 0 180 1;
#X connect 59 0 53 0;
#X connect 60 0 59 0;
#X connect 61 0 57 0;
#X connect 62 0 61 0;
#X connect 63 0 58 0;
#X connect 64 0 63 0;
#X connect 65 0 55 0;
#X connect 65 1 64 0;
#X connect 68 0 69 0;
#X connect 69 0 77 0;
#X connect 70 0 74 1;
#X connect 70 0 75 1;
#X connect 71 0 82 0;
#X connect 72 0 73 0;
#X connect 73 0 79 0;
#X connect 74 0 83 0;
#X connect 74 0 197 1;
#X connect 75 0 84 0;
#X connect 75 0 192 1;
#X connect 76 0 70 0;
#X connect 77 0 76 0;
#X connect 78 0 74 0;
#X connect 79 0 78 0;
#X connect 80 0 75 0;
#X connect 81 0 80 0;
#X connect 82 0 72 0;
#X connect 82 1 81 0;
#X connect 85 0 86 0;
#X connect 86 0 94 0;
#X connect 87 0 91 1;
#X connect 87 0 92 1;
#X connect 88 0 99 0;
#X connect 89 0 90 0;
#X connect 90 0 96 0;
#X connect 91 0 100 0;
#X connect 91 0 207 1;
#X connect 92 0 101 0;
#X connect 92 0 202 1;
#X connect 93 0 87 0;
#X connect 94 0 93 0;
#X connect 95 0 91 0;
#X connect 96 0 95 0;
#X connect 97 0 92 0;
#X connect 98 0 97 0;
#X connect 99 0 89 0;
#X connect 99 1 98 0;
#X connect 102 0 103 0;
#X connect 103 0 111 0;
#X connect 104 0 108 1;
#X connect 104 0 109 1;
#X connect 105 0 116 0;
#X connect 106 0 107 0;
#X connect 107 0 113 0;
#X connect 108 0 117 0;
#X connect 108 0 217 1;
#X connect 109 0 118 0;
#X connect 109 0 212 1;
#X connect 110 0 104 0;
#X connect 111 0 110 0;
#X connect 112 0 108 0;
#X connect 113 0 112 0;
#X connect 114 0 109 0;
#X connect 115 0 114 0;
#X connect 116 0 106 0;
#X connect 116 1 115 0;
#X connect 119 0 120 0;
#X connect 120 0 128 0;
#X connect 121 0 125 1;
#X connect 121 0 126 1;
#X connect 122 0 133 0;
#X connect 123 0 124 0;
#X connect 124 0 130 0;
#X connect 125 0 134 0;
#X connect 125 0 227 1;
#X connect 126 0 135 0;
#X connect 126 0 222 1;
#X connect 127 0 121 0;
#X connect 128 0 127 0;
#X connect 129 0 125 0;
#X connect 130 0 129 0;
#X connect 131 0 126 0;
#X connect 132 0 131 0;
#X connect 133 0 123 0;
#X connect 133 1 132 0;
#X connect 136 0 2 1;
#X connect 137 0 19 1;
#X connect 138 0 36 1;
#X connect 139 0 53 1;
#X connect 140 0 70 1;
#X connect 141 0 87 1;
#X connect 142 0 104 1;
#X connect 143 0 121 1;
#X connect 144 0 149 0;
#X connect 145 0 144 0;
#X connect 146 0 145 0;
#X connect 147 0 154 0;
#X connect 150 0 148 0;
#X connect 151 0 150 0;
#X connect 152 0 151 0;
#X connect 153 0 155 0;
#X connect 154 0 146 0;
#X connect 155 0 152 0;
#X connect 156 0 160 0;
#X connect 157 0 156 0;
#X connect 158 0 157 0;
#X connect 161 0 159 0;
#X connect 162 0 161 0;
#X connect 163 0 162 0;
#X connect 164 0 158 0;
#X connect 165 0 163 0;
#X connect 166 0 165 0;
#X connect 167 0 164 0;
#X connect 168 0 172 0;
#X connect 169 0 168 0;
#X connect 170 0 169 0;
#X connect 173 0 171 0;
#X connect 174 0 173 0;
#X connect 175 0 174 0;
#X connect 176 0 170 0;
#X connect 177 0 175 0;
#X connect 178 0 177 0;
#X connect 179 0 176 0;
#X connect 180 0 184 0;
#X connect 181 0 180 0;
#X connect 182 0 181 0;
#X connect 185 0 183 0;
#X connect 186 0 185 0;
#X connect 187 0 186 0;
#X connect 188 0 182 0;
#X connect 189 0 187 0;
#X connect 190 0 189 0;
#X connect 191 0 188 0;
#X connect 192 0 196 0;
#X connect 193 0 192 0;
#X connect 194 0 193 0;
#X connect 197 0 195 0;
#X connect 198 0 197 0;
#X connect 199 0 198 0;
#X connect 200 0 194 0;
#X connect 201 0 199 0;
#X connect 202 0 206 0;
#X connect 203 0 202 0;
#X connect 204 0 203 0;
#X connect 207 0 205 0;
#X connect 208 0 207 0;
#X connect 209 0 208 0;
#X connect 210 0 204 0;
#X connect 211 0 209 0;
#X connect 212 0 216 0;
#X connect 213 0 212 0;
#X connect 214 0 213 0;
#X connect 217 0 215 0;
#X connect 218 0 217 0;
#X connect 219 0 218 0;
#X connect 220 0 214 0;
#X connect 221 0 219 0;
#X connect 222 0 226 0;
#X connect 223 0 222 0;
#X connect 224 0 223 0;
#X connect 227 0 225 0;
#X connect 228 0 227 0;
#X connect 229 0 228 0;
#X connect 230 0 224 0;
#X connect 231 0 229 0;
#X connect 232 0 201 0;
#X connect 233 0 200 0;
#X connect 234 0 211 0;
#X connect 235 0 210 0;
#X connect 236 0 221 0;
#X connect 237 0 220 0;
#X connect 238 0 231 0;
#X connect 239 0 230 0;
#X restore 474 365 pd guts;
#X obj -183 268 flatgui/knob 32 32 0.01 1.01 1 0 \$0-rev0 \$1-rev0
empty 0 -8 0 8 -262144 -4160 -1 0 1;
#X obj 333 29 catch~ \$0-rev-L;
#X obj 356 54 catch~ \$0-rev-R;
#X obj 334 245 throw~ \$0-L;
#X obj 371 274 throw~ \$0-R;
#X obj 408 245 throw~ \$0-L;
#X obj 445 275 throw~ \$0-R;
#X obj -141 54 flatgui/knob 32 32 0 1 0 1 \$0-pan1 \$1-pan1 empty 0
-8 0 8 -262130 -258113 -1 1600 1;
#X obj -141 97 vsl 32 160 0.01 1.01 1 0 \$0-vol1 \$1-vol1 empty 0 -9
0 10 -262144 -159808 -1 0 0;
#X obj -141 268 flatgui/knob 32 32 0.01 1.01 1 0 \$0-rev1 \$1-rev1
empty 0 -8 0 8 -262144 -4160 -1 0 1;
#X obj -98 54 flatgui/knob 32 32 0 1 0 1 \$0-pan2 \$1-pan2 empty 0
-8 0 8 -262130 -258113 -1 1600 1;
#X obj -98 97 vsl 32 160 0.01 1.01 1 0 \$0-vol2 \$1-vol2 empty 0 -9
0 10 -262144 -159808 -1 0 0;
#X obj -98 268 flatgui/knob 32 32 0.01 1.01 1 0 \$0-rev2 \$1-rev2 empty
0 -8 0 8 -262144 -4160 -1 0 1;
#X obj -56 54 flatgui/knob 32 32 0 1 0 1 \$0-pan3 \$1-pan3 empty 0
-8 0 8 -262130 -258113 -1 1600 1;
#X obj -56 97 vsl 32 160 0.01 1.01 1 1 \$0-vol3 \$1-vol3 empty 0 -9
0 10 -262144 -159808 -1 0 0;
#X obj -56 268 flatgui/knob 32 32 0.01 1.01 1 0 \$0-rev3 \$1-rev3 empty
0 -8 0 8 -262144 -4160 -1 0 1;
#X obj -12 54 flatgui/knob 32 32 0 1 0 1 \$0-pan4 \$1-pan4 empty 0
-8 0 8 -262130 -258113 -1 1600 1;
#X obj -12 97 vsl 32 160 0.01 1.01 1 1 \$0-vol4 \$1-vol4 empty 0 -9
0 10 -262144 -159808 -1 0 0;
#X obj -12 268 flatgui/knob 32 32 0.01 1.01 1 0 \$0-rev4 \$1-rev4 empty
0 -8 0 8 -262144 -4160 -1 0 1;
#X obj 30 54 flatgui/knob 32 32 0 1 0 1 \$0-pan5 \$1-pan5 empty 0 -8
0 8 -262130 -258113 -1 1600 1;
#X obj 30 97 vsl 32 160 0.01 1.01 1 1 \$0-vol5 \$1-vol5 empty 0 -9
0 10 -262144 -159808 -1 0 0;
#X obj 30 268 flatgui/knob 32 32 0.01 1.01 1 0 \$0-rev5 \$1-rev5 empty
0 -8 0 8 -262144 -4160 -1 0 1;
#X obj 73 54 flatgui/knob 32 32 0 1 0 1 \$0-pan6 \$1-pan6 empty 0 -8
0 8 -262130 -258113 -1 1600 1;
#X obj 73 97 vsl 32 160 0.01 1.01 1 1 \$0-vol6 \$1-vol6 empty 0 -9
0 10 -262144 -159808 -1 0 0;
#X obj 73 268 flatgui/knob 32 32 0.01 1.01 1 0 \$0-rev6 \$1-rev6 empty
0 -8 0 8 -262144 -4160 -1 0 1;
#X obj 115 54 flatgui/knob 32 32 0 1 0 1 \$0-pan7 \$1-pan7 empty 0
-8 0 8 -262130 -258113 -1 1600 1;
#X obj 115 97 vsl 32 160 0.01 1.01 1 1 \$0-vol7 \$1-vol7 empty 0 -9
0 10 -262144 -159808 -1 0 0;
#X obj 115 268 flatgui/knob 32 32 0.01 1.01 1 0 \$0-rev7 \$1-rev7 empty
0 -8 0 8 -262144 -4160 -1 0 1;
#X obj 334 218 rev3~ 100 80 4000 50;
#X obj 162 98 flatgui/knob 32 32 0 100 0 1 \$0-verblevel \$1-verblevel
empty 0 -8 0 8 -262144 -260097 -1 3100 1;
#X obj 162 142 flatgui/knob 32 32 0 100 0 1 \$0-verbliveness \$1-verbliveness
empty 0 -8 0 8 -262144 -260097 -1 2400 1;
#X obj 162 186 flatgui/knob 32 32 20 20000 1 1 \$0-verbxover \$1-verbxover
empty 0 -8 0 8 -262144 -260097 -1 1600 1;
#X obj 162 230 flatgui/knob 32 32 0 100 0 1 \$0-verbdamping \$1-verbdamping
empty 0 -8 0 8 -262144 -260097 -1 1600 1;
#X obj 451 192 r \$0-verbdamping;
#X obj 433 167 r \$0-verbxover;
#X obj 412 141 r \$0-verbliveness;
#X obj 396 116 r \$0-verblevel;
#X obj -191 458 inlet~;
#X obj -191 483 s~ \$1-mix0;
#X obj -121 458 inlet~;
#X obj -50 458 inlet~;
#X obj 20 458 inlet~;
#X obj 93 458 inlet~;
#X obj 163 458 inlet~;
#X obj 234 458 inlet~;
#X obj 304 458 inlet~;
#X obj -121 483 s~ \$1-mix1;
#X obj -50 483 s~ \$1-mix2;
#X obj 20 483 s~ \$1-mix3;
#X obj 93 483 s~ \$1-mix4;
#X obj 163 483 s~ \$1-mix5;
#X obj 234 483 s~ \$1-mix6;
#X obj 304 483 s~ \$1-mix7;
#X connect 3 0 2 0;
#X connect 4 0 2 1;
#X connect 7 0 34 0;
#X connect 8 0 34 1;
#X connect 34 0 9 0;
#X connect 34 1 10 0;
#X connect 34 2 11 0;
#X connect 34 3 12 0;
#X connect 39 0 34 5;
#X connect 40 0 34 4;
#X connect 41 0 34 3;
#X connect 42 0 34 2;
#X connect 43 0 44 0;
#X connect 45 0 52 0;
#X connect 46 0 53 0;
#X connect 47 0 54 0;
#X connect 48 0 55 0;
#X connect 49 0 56 0;
#X connect 50 0 57 0;
#X connect 51 0 58 0;
#X coords 0 -1 1 1 410 285 1 -200 30;
