#N canvas 924 954 474 383 10;
#X obj 77 269 expr~ $v1 > $f2;
#X obj 106 125 hsl 100 20 0.01 0.5 0 1 \$0-pulsewidth \$1-pulsewidth
width 70 10 0 10 -262144 -1 -1 7700 1;
#X obj 77 165 inlet;
#X obj 77 219 phasor~;
#X obj 76 300 outlet~;
#X obj 164 242 r \$0-pulsewidth;
#X obj 77 194 sig~;
#X connect 0 0 4 0;
#X connect 2 0 6 0;
#X connect 3 0 0 0;
#X connect 5 0 0 1;
#X connect 6 0 3 0;
#X coords 0 -1 1 1 111 50 1 100 100;
