#N canvas 3648 832 717 378 10;
#X obj 14 15 tgl 30 0 \$0-tgl0 \$1-tgl0 empty 17 7 0 10 -262144 -1
-1 0 1;
#X obj 46 15 tgl 30 0 \$0-tgl1 \$1-tgl1 empty 17 7 0 10 -262144 -1
-1 0 1;
#X obj 78 15 tgl 30 0 \$0-tgl2 \$1-tgl2 empty 17 7 0 10 -262144 -1
-1 0 1;
#X obj 110 15 tgl 30 0 \$0-tgl3 \$1-tgl3 empty 17 7 0 10 -262144 -1
-1 0 1;
#X obj 142 15 tgl 30 0 \$0-tgl4 \$1-tgl4 empty 17 7 0 10 -262144 -1
-1 0 1;
#X obj 174 15 tgl 30 0 \$0-tgl5 \$1-tgl5 empty 17 7 0 10 -262144 -1
-1 0 1;
#X obj 206 15 tgl 30 0 \$0-tgl6 \$1-tgl6 empty 17 7 0 10 -262144 -1
-1 0 1;
#X obj 238 15 tgl 30 0 \$0-tgl7 \$1-tgl7 empty 17 7 0 10 -262144 -1
-1 0 1;
#X obj 270 15 tgl 30 0 \$0-tgl8 \$1-tgl8 empty 17 7 0 10 -262144 -1
-1 0 1;
#X obj 302 15 tgl 30 0 \$0-tgl9 \$1-tgl9 empty 17 7 0 10 -262144 -1
-1 0 1;
#X obj 334 15 tgl 30 0 \$0-tgl10 \$1-tgl10 empty 17 7 0 10 -262144
-1 -1 0 1;
#X obj 366 15 tgl 30 0 \$0-tgl11 \$1-tgl11 empty 17 7 0 10 -262144
-1 -1 0 1;
#X obj 398 15 tgl 30 0 \$0-tgl12 \$1-tgl12 empty 17 7 0 10 -262144
-1 -1 0 1;
#X obj 430 15 tgl 30 0 \$0-tgl13 \$1-tgl13 empty 17 7 0 10 -262144
-1 -1 0 1;
#X obj 462 15 tgl 30 0 \$0-tgl14 \$1-tgl14 empty 17 7 0 10 -262144
-1 -1 0 1;
#X obj 494 15 tgl 30 0 \$0-tgl15 \$1-tgl15 empty 17 7 0 10 -262144
-1 -1 0 1;
#N canvas 1225 873 608 495 guts 0;
#X obj 20 17 r \$0-tgl0;
#X obj 48 65 f 0;
#X obj 21 92 tabwrite \$0-sequence;
#X obj 152 91 tabwrite \$0-sequence;
#X obj 282 40 t f b;
#X obj 282 90 tabwrite \$0-sequence;
#X obj 413 39 t f b;
#X obj 413 89 tabwrite \$0-sequence;
#X obj 179 64 f 1;
#X obj 309 63 f 2;
#X obj 441 62 f 3;
#X obj 151 16 r \$0-tgl1;
#X obj 281 15 r \$0-tgl2;
#X obj 412 14 r \$0-tgl3;
#X obj 23 141 t f b;
#X obj 23 191 tabwrite \$0-sequence;
#X obj 154 140 t f b;
#X obj 154 190 tabwrite \$0-sequence;
#X obj 284 139 t f b;
#X obj 284 189 tabwrite \$0-sequence;
#X obj 415 138 t f b;
#X obj 415 188 tabwrite \$0-sequence;
#X obj 22 116 r \$0-tgl4;
#X obj 50 164 f 4;
#X obj 181 163 f 5;
#X obj 311 162 f 6;
#X obj 443 161 f 7;
#X obj 153 115 r \$0-tgl5;
#X obj 283 114 r \$0-tgl6;
#X obj 414 113 r \$0-tgl7;
#X obj 26 244 t f b;
#X obj 26 294 tabwrite \$0-sequence;
#X obj 157 243 t f b;
#X obj 157 293 tabwrite \$0-sequence;
#X obj 287 242 t f b;
#X obj 287 292 tabwrite \$0-sequence;
#X obj 418 241 t f b;
#X obj 418 291 tabwrite \$0-sequence;
#X obj 28 343 t f b;
#X obj 28 393 tabwrite \$0-sequence;
#X obj 159 342 t f b;
#X obj 159 392 tabwrite \$0-sequence;
#X obj 289 341 t f b;
#X obj 289 391 tabwrite \$0-sequence;
#X obj 420 340 t f b;
#X obj 420 390 tabwrite \$0-sequence;
#X obj 53 267 f 8;
#X obj 184 266 f 9;
#X obj 314 265 f 10;
#X obj 446 264 f 11;
#X obj 55 366 f 12;
#X obj 186 365 f 13;
#X obj 316 364 f 14;
#X obj 448 363 f 15;
#X obj 25 219 r \$0-tgl8;
#X obj 156 218 r \$0-tgl9;
#X obj 286 217 r \$0-tgl10;
#X obj 417 216 r \$0-tgl11;
#X obj 27 318 r \$0-tgl12;
#X obj 158 317 r \$0-tgl13;
#X obj 288 316 r \$0-tgl14;
#X obj 419 315 r \$0-tgl15;
#X obj 21 42 t f b;
#X obj 152 41 t f b;
#X obj 33 445 table \$0-sequence 16;
#X connect 0 0 62 0;
#X connect 1 0 2 1;
#X connect 4 0 5 0;
#X connect 4 1 9 0;
#X connect 6 0 7 0;
#X connect 6 1 10 0;
#X connect 8 0 3 1;
#X connect 9 0 5 1;
#X connect 10 0 7 1;
#X connect 11 0 63 0;
#X connect 12 0 4 0;
#X connect 13 0 6 0;
#X connect 14 0 15 0;
#X connect 14 1 23 0;
#X connect 16 0 17 0;
#X connect 16 1 24 0;
#X connect 18 0 19 0;
#X connect 18 1 25 0;
#X connect 20 0 21 0;
#X connect 20 1 26 0;
#X connect 22 0 14 0;
#X connect 23 0 15 1;
#X connect 24 0 17 1;
#X connect 25 0 19 1;
#X connect 26 0 21 1;
#X connect 27 0 16 0;
#X connect 28 0 18 0;
#X connect 29 0 20 0;
#X connect 30 0 31 0;
#X connect 30 1 46 0;
#X connect 32 0 33 0;
#X connect 32 1 47 0;
#X connect 34 0 35 0;
#X connect 34 1 48 0;
#X connect 36 0 37 0;
#X connect 36 1 49 0;
#X connect 38 0 39 0;
#X connect 38 1 50 0;
#X connect 40 0 41 0;
#X connect 40 1 51 0;
#X connect 42 0 43 0;
#X connect 42 1 52 0;
#X connect 44 0 45 0;
#X connect 44 1 53 0;
#X connect 46 0 31 1;
#X connect 47 0 33 1;
#X connect 48 0 35 1;
#X connect 49 0 37 1;
#X connect 50 0 39 1;
#X connect 51 0 41 1;
#X connect 52 0 43 1;
#X connect 53 0 45 1;
#X connect 54 0 30 0;
#X connect 55 0 32 0;
#X connect 56 0 34 0;
#X connect 57 0 36 0;
#X connect 58 0 38 0;
#X connect 59 0 40 0;
#X connect 60 0 42 0;
#X connect 61 0 44 0;
#X connect 62 0 2 0;
#X connect 62 1 1 0;
#X connect 63 0 3 0;
#X connect 63 1 8 0;
#X restore 15 308 pd guts;
#X obj 14 182 inlet;
#X obj 14 205 mod 16;
#X obj 14 228 tabread \$0-sequence;
#X obj 14 250 sel 1;
#X obj 14 272 outlet;
#N canvas 266 879 760 514 presets 0;
#X obj 163 213 list prepend add;
#X obj 163 235 list trim;
#X msg 163 170 set \$1-sequence \, bang;
#X obj 163 148 f \$0;
#X obj 27 148 savepanel;
#X obj 27 175 list prepend write;
#X obj 27 202 list trim;
#X obj 90 82 t b b;
#X obj 75 343 textfile;
#X obj 388 152 list prepend read;
#X obj 388 174 list trim;
#X obj 406 266 textfile;
#X msg 189 283 clear;
#X obj 162 259 t a b;
#X msg 368 227 bang;
#X obj 406 314 s \$0-sequence;
#X msg 406 227 rewind;
#X obj 406 290 list prepend 0;
#X obj 388 196 t b b a;
#X obj 335 359 list-abs/list-enumerate;
#X msg 334 407 \; \$1-tgl\$2 \$4;
#X obj 90 56 inlet;
#X obj 163 191 zexy/tabdump;
#X obj 334 385 list-abs/list-apply prepend \$1;
#X obj 388 108 inlet;
#X connect 0 0 1 0;
#X connect 1 0 13 0;
#X connect 2 0 22 0;
#X connect 3 0 2 0;
#X connect 4 0 5 0;
#X connect 5 0 6 0;
#X connect 6 0 8 0;
#X connect 7 0 4 0;
#X connect 7 1 3 0;
#X connect 9 0 10 0;
#X connect 10 0 18 0;
#X connect 11 0 17 0;
#X connect 11 0 19 0;
#X connect 12 0 8 0;
#X connect 13 0 8 0;
#X connect 13 1 12 0;
#X connect 14 0 11 0;
#X connect 16 0 11 0;
#X connect 17 0 15 0;
#X connect 18 0 14 0;
#X connect 18 1 16 0;
#X connect 18 2 11 0;
#X connect 19 0 23 0;
#X connect 21 0 7 0;
#X connect 22 0 0 0;
#X connect 23 0 20 0;
#X connect 24 0 9 0;
#X restore 96 304 pd presets;
#X obj 171 279 inlet;
#X obj 526 15 bng 30 250 50 0 \$0-load empty L 12 16 0 10 -204786 -4034
-1;
#X obj 558 15 bng 30 250 50 0 \$0-save empty S 12 16 0 10 -261234 -258113
-1;
#X obj 153 224 r \$0-load;
#X obj 96 281 r \$0-save;
#X obj 153 249 openpanel;
#X text 175 303 ^- path;
#X connect 17 0 18 0;
#X connect 18 0 19 0;
#X connect 19 0 20 0;
#X connect 20 0 21 0;
#X connect 23 0 22 1;
#X connect 26 0 28 0;
#X connect 27 0 22 0;
#X connect 28 0 22 1;
#X coords 0 -1 1 1 583 40 2 10 10;
