#N canvas 577 519 681 442 10;
#X obj 222 153 pack f f f;
#X msg 223 179 \$1 \, \$2 \$3;
#X obj 221 88 f \$1;
#X obj 250 109 f \$2;
#X obj 279 130 f \$3;
#X obj 315 158 f \$4;
#X msg 315 182 1 \, 0 \$1;
#X obj 234 48 t b b b b b;
#X obj 234 24 inlet;
#X obj 335 22 inlet;
#X obj 408 24 inlet;
#X obj 472 24 inlet;
#X obj 545 26 inlet;
#X obj 317 208 line~;
#X obj 292 290 *~;
#X obj 316 232 *~;
#X obj 224 204 line;
#N canvas 1178 962 450 300 noizguts 0;
#X obj 194 226 samphold~;
#X obj 244 192 phasor~;
#X obj 194 193 noise~;
#X obj 194 259 outlet~;
#X obj 244 126 inlet;
#X obj 244 159 sig~;
#X connect 0 0 3 0;
#X connect 1 0 0 1;
#X connect 2 0 0 0;
#X connect 4 0 5 0;
#X connect 5 0 1 0;
#X restore 224 228 pd noizguts;
#X obj 293 347 outlet~;
#X obj 316 255 lop~ 150;
#X obj 224 254 tanh~;
#X text 461 159;
#X text 483 182 inlets:;
#X text 483 337 5 amp decay time;
#X text 483 306 4 freq decay time;
#X text 483 275 3 freq end;
#X text 483 244 2 freq start;
#X text 483 213 1 trigger;
#X connect 0 0 1 0;
#X connect 1 0 16 0;
#X connect 2 0 0 0;
#X connect 3 0 0 1;
#X connect 4 0 0 2;
#X connect 5 0 6 0;
#X connect 6 0 13 0;
#X connect 7 0 5 0;
#X connect 7 2 2 0;
#X connect 7 3 3 0;
#X connect 7 4 4 0;
#X connect 8 0 7 0;
#X connect 9 0 2 1;
#X connect 10 0 3 1;
#X connect 11 0 4 1;
#X connect 12 0 5 1;
#X connect 13 0 15 0;
#X connect 13 0 15 1;
#X connect 14 0 18 0;
#X connect 15 0 19 0;
#X connect 16 0 17 0;
#X connect 17 0 20 0;
#X connect 19 0 14 1;
#X connect 20 0 14 0;
