#N canvas 3391 220 715 381 10;
#N canvas 4023 864 743 343 \$0_perc 0;
#X obj 33 130 noteout;
#X obj 6 33 t b b;
#X obj 33 54 f \$1;
#X obj 6 100 makenote 100 50;
#X obj 6 8 r \$0_perc1;
#X msg 6 76 37;
#X obj 133 130 noteout;
#X obj 106 33 t b b;
#X obj 133 54 f \$1;
#X obj 106 100 makenote 100 50;
#X obj 106 8 r \$0_perc2;
#X msg 106 76 42;
#X obj 233 130 noteout;
#X obj 206 33 t b b;
#X obj 233 54 f \$1;
#X obj 206 100 makenote 100 50;
#X obj 333 130 noteout;
#X obj 306 33 t b b;
#X obj 333 54 f \$1;
#X obj 306 100 makenote 100 50;
#X obj 206 8 r \$0_perc3;
#X obj 306 8 r \$0_perc4;
#X msg 206 76 49;
#X msg 306 76 54;
#X obj 33 290 noteout;
#X obj 6 193 t b b;
#X obj 33 214 f \$1;
#X obj 6 260 makenote 100 50;
#X obj 133 290 noteout;
#X obj 106 193 t b b;
#X obj 133 214 f \$1;
#X obj 106 260 makenote 100 50;
#X obj 233 290 noteout;
#X obj 206 193 t b b;
#X obj 233 214 f \$1;
#X obj 206 260 makenote 100 50;
#X obj 333 290 noteout;
#X obj 306 193 t b b;
#X obj 333 214 f \$1;
#X obj 306 260 makenote 100 50;
#X obj 6 168 r \$0_perc5;
#X obj 106 168 r \$0_perc6;
#X obj 206 168 r \$0_perc7;
#X obj 306 168 r \$0_perc8;
#X msg 6 235 61;
#X msg 106 236 66;
#X msg 206 236 73;
#X msg 306 236 78;
#X obj 549 82 sel 0 1 2 3 4 5 6 7;
#X obj 646 105 s \$0_perc8;
#X obj 616 165 s \$0_perc5;
#X obj 626 145 s \$0_perc6;
#X obj 636 125 s \$0_perc7;
#X obj 576 245 s \$0_perc1;
#X obj 586 225 s \$0_perc2;
#X obj 596 205 s \$0_perc3;
#X obj 606 185 s \$0_perc4;
#X obj 502 14 r \$0_edit;
#X obj 502 37 t b f;
#X obj 475 84 del 100;
#X obj 474 106 s \$1_get_cc;
#X connect 1 0 5 0;
#X connect 1 1 2 0;
#X connect 2 0 0 2;
#X connect 3 0 0 0;
#X connect 3 1 0 1;
#X connect 4 0 1 0;
#X connect 5 0 3 0;
#X connect 7 0 11 0;
#X connect 7 1 8 0;
#X connect 8 0 6 2;
#X connect 9 0 6 0;
#X connect 9 1 6 1;
#X connect 10 0 7 0;
#X connect 11 0 9 0;
#X connect 13 0 22 0;
#X connect 13 1 14 0;
#X connect 14 0 12 2;
#X connect 15 0 12 0;
#X connect 15 1 12 1;
#X connect 17 0 23 0;
#X connect 17 1 18 0;
#X connect 18 0 16 2;
#X connect 19 0 16 0;
#X connect 19 1 16 1;
#X connect 20 0 13 0;
#X connect 21 0 17 0;
#X connect 22 0 15 0;
#X connect 23 0 19 0;
#X connect 25 0 44 0;
#X connect 25 1 26 0;
#X connect 26 0 24 2;
#X connect 27 0 24 0;
#X connect 27 1 24 1;
#X connect 29 0 45 0;
#X connect 29 1 30 0;
#X connect 30 0 28 2;
#X connect 31 0 28 0;
#X connect 31 1 28 1;
#X connect 33 0 46 0;
#X connect 33 1 34 0;
#X connect 34 0 32 2;
#X connect 35 0 32 0;
#X connect 35 1 32 1;
#X connect 37 0 47 0;
#X connect 37 1 38 0;
#X connect 38 0 36 2;
#X connect 39 0 36 0;
#X connect 39 1 36 1;
#X connect 40 0 25 0;
#X connect 41 0 29 0;
#X connect 42 0 33 0;
#X connect 43 0 37 0;
#X connect 44 0 27 0;
#X connect 45 0 31 0;
#X connect 46 0 35 0;
#X connect 47 0 39 0;
#X connect 48 0 53 0;
#X connect 48 1 54 0;
#X connect 48 2 55 0;
#X connect 48 3 56 0;
#X connect 48 4 50 0;
#X connect 48 5 51 0;
#X connect 48 6 52 0;
#X connect 48 7 49 0;
#X connect 57 0 58 0;
#X connect 58 0 59 0;
#X connect 58 1 48 0;
#X connect 59 0 60 0;
#X restore 560 25 pd \$0_perc;
#X obj 73 151 bng 40 50 50 0 \$0_trig1 \$1_trig1 empty 17 7 0 10 -228856
-258113 -1;
#X obj 115 151 vradio 13 1 0 3 \$0_shift1 \$1_shift1 empty 0 -8 0 10
-262144 -1 -1 0;
#X obj 172 151 vradio 10 1 0 4 \$0_shift2 \$1_shift2 empty 0 -8 0 10
-262144 -1 -1 0;
#X obj 130 151 bng 40 50 50 0 \$0_trig2 \$1_trig2 empty 17 7 0 10 -228856
-258113 -1;
#X obj 184 151 bng 40 50 50 0 \$0_trig3 \$1_trig3 empty 17 7 0 10 -228856
-258113 -1;
#X obj 226 151 vradio 13 1 0 3 \$0_shift3 \$1_shift3 empty 0 -8 0 10
-262144 -1 -1 0;
#X obj 283 151 vradio 10 1 0 4 \$0_shift4 \$1_shift4 empty 0 -8 0 10
-262144 -1 -1 0;
#X obj 241 151 bng 40 50 50 0 \$0_trig4 \$1_trig4 empty 17 7 0 10 -228856
-258113 -1;
#X obj 73 121 hradio 28 1 0 8 \$0_edit \$1_edit empty 0 -8 0 10 -261234
-1 -1 0;
#X obj 1 3 inlet;
#X obj 1 25 s \$1_trig1;
#X obj 71 3 inlet;
#X obj 141 3 inlet;
#X obj 211 3 inlet;
#X obj 281 3 inlet;
#X obj 351 3 inlet;
#X obj 421 3 inlet;
#X obj 491 3 inlet;
#X obj 71 25 s \$1_trig2;
#X obj 141 25 s \$1_trig3;
#X obj 211 25 s \$1_trig4;
#X obj 281 25 s \$1_trig5;
#X obj 351 25 s \$1_trig6;
#X obj 421 25 s \$1_trig7;
#X obj 491 25 s \$1_trig8;
#X obj 295 151 bng 40 50 50 0 \$0_trig5 \$1_trig5 empty 17 7 0 10 -228856
-258113 -1;
#X obj 337 151 vradio 13 1 0 3 \$0_shift5 \$1_shift5 empty 0 -8 0 10
-262144 -1 -1 0;
#X obj 394 151 vradio 10 1 0 4 \$0_shift6 \$1_shift6 empty 0 -8 0 10
-262144 -1 -1 0;
#X obj 352 151 bng 40 50 50 0 \$0_trig6 \$1_trig6 empty 17 7 0 10 -228856
-258113 -1;
#X obj 406 151 bng 40 50 50 0 \$0_trig7 \$1_trig7 empty 17 7 0 10 -228856
-258113 -1;
#X obj 448 151 vradio 13 1 0 3 \$0_shift7 \$1_shift7 empty 0 -8 0 10
-262144 -1 -1 0;
#X obj 505 151 vradio 10 1 0 4 \$0_shift8 \$1_shift8 empty 0 -8 0 10
-262144 -1 -1 0;
#X obj 463 151 bng 40 50 50 0 \$0_trig8 \$1_trig8 empty 17 7 0 10 -228856
-258113 -1;
#X text 81 124 1;
#X text 111 124 2;
#X text 139 124 3;
#X text 166 124 4;
#X text 195 124 5;
#X text 222 124 6;
#X text 250 124 7;
#X text 278 124 8;
#X text 88 162 1;
#X text 145 162 2;
#X text 200 162 3;
#X text 256 162 4;
#X text 311 161 5;
#X text 367 161 6;
#X text 421 161 7;
#X text 479 161 8;
#N canvas 2810 745 893 551 \$0_trig 0;
#X obj 7 12 r \$0_trig1;
#X obj 7 34 f 36;
#X obj 38 47 r \$0_shift1;
#X obj 7 160 +;
#X obj 38 72 sel 0 1 2;
#X msg 38 135 0;
#X msg 55 114 2;
#X msg 72 94 4;
#X obj 7 181 makenote 100 50;
#X obj 207 184 +;
#X msg 238 159 0;
#X msg 255 138 2;
#X msg 272 118 4;
#X obj 207 205 makenote 100 50;
#X obj 238 72 sel 0 1 2 3;
#X obj 207 34 f 41;
#X msg 285 95 6;
#X obj 207 12 r \$0_trig2;
#X obj 238 47 r \$0_shift2;
#X obj 417 160 +;
#X obj 448 72 sel 0 1 2;
#X msg 448 135 0;
#X msg 465 114 2;
#X msg 482 94 4;
#X obj 417 181 makenote 100 50;
#X obj 627 184 +;
#X msg 658 159 0;
#X msg 675 138 2;
#X msg 692 118 4;
#X obj 627 205 makenote 100 50;
#X obj 658 72 sel 0 1 2 3;
#X msg 705 95 6;
#X obj 417 34 f 48;
#X obj 627 34 f 53;
#X obj 417 12 r \$0_trig3;
#X obj 448 47 r \$0_shift3;
#X obj 627 12 r \$0_trig4;
#X obj 658 47 r \$0_shift4;
#X obj 7 420 +;
#X obj 38 332 sel 0 1 2;
#X msg 38 395 0;
#X msg 55 374 2;
#X msg 72 354 4;
#X obj 7 441 makenote 100 50;
#X obj 207 444 +;
#X msg 238 419 0;
#X msg 255 398 2;
#X msg 272 378 4;
#X obj 207 465 makenote 100 50;
#X obj 238 332 sel 0 1 2 3;
#X msg 285 355 6;
#X obj 417 420 +;
#X obj 448 332 sel 0 1 2;
#X msg 448 395 0;
#X msg 465 374 2;
#X msg 482 354 4;
#X obj 417 441 makenote 100 50;
#X obj 627 444 +;
#X msg 658 419 0;
#X msg 675 398 2;
#X msg 692 378 4;
#X obj 627 465 makenote 100 50;
#X obj 658 332 sel 0 1 2 3;
#X msg 705 355 6;
#X obj 7 272 r \$0_trig5;
#X obj 38 307 r \$0_shift5;
#X obj 207 272 r \$0_trig6;
#X obj 238 307 r \$0_shift6;
#X obj 417 272 r \$0_trig7;
#X obj 448 307 r \$0_shift7;
#X obj 627 272 r \$0_trig8;
#X obj 658 307 r \$0_shift8;
#X obj 7 294 f 60;
#X obj 207 294 f 65;
#X obj 417 294 f 72;
#X obj 627 294 f 77;
#X obj 34 211 noteout \$1;
#X obj 234 235 noteout \$1;
#X obj 444 211 noteout \$1;
#X obj 654 235 noteout \$1;
#X obj 34 471 noteout \$1;
#X obj 234 495 noteout \$1;
#X obj 444 471 noteout \$1;
#X obj 654 495 noteout \$1;
#X obj 105 105 r \$0_velocity;
#X obj 94 158 r \$0_notelength;
#X obj 315 105 r \$0_velocity;
#X obj 294 178 r \$0_notelength;
#X obj 515 104 r \$0_velocity;
#X obj 504 158 r \$0_notelength;
#X obj 735 105 r \$0_velocity;
#X obj 713 178 r \$0_notelength;
#X obj 105 365 r \$0_velocity;
#X obj 94 418 r \$0_notelength;
#X obj 315 365 r \$0_velocity;
#X obj 294 438 r \$0_notelength;
#X obj 514 368 r \$0_velocity;
#X obj 504 418 r \$0_notelength;
#X obj 735 365 r \$0_velocity;
#X obj 714 438 r \$0_notelength;
#X obj 103 129 i;
#X obj 313 129 i;
#X obj 513 129 i;
#X obj 733 129 i;
#X obj 103 389 i;
#X obj 313 389 i;
#X obj 513 389 i;
#X obj 733 389 i;
#X connect 0 0 1 0;
#X connect 1 0 3 0;
#X connect 2 0 4 0;
#X connect 3 0 8 0;
#X connect 4 0 5 0;
#X connect 4 1 6 0;
#X connect 4 2 7 0;
#X connect 5 0 3 1;
#X connect 6 0 3 1;
#X connect 7 0 3 1;
#X connect 8 0 76 0;
#X connect 8 1 76 1;
#X connect 9 0 13 0;
#X connect 10 0 9 1;
#X connect 11 0 9 1;
#X connect 12 0 9 1;
#X connect 13 0 77 0;
#X connect 13 1 77 1;
#X connect 14 0 10 0;
#X connect 14 1 11 0;
#X connect 14 2 12 0;
#X connect 14 3 16 0;
#X connect 15 0 9 0;
#X connect 16 0 9 1;
#X connect 17 0 15 0;
#X connect 18 0 14 0;
#X connect 19 0 24 0;
#X connect 20 0 21 0;
#X connect 20 1 22 0;
#X connect 20 2 23 0;
#X connect 21 0 19 1;
#X connect 22 0 19 1;
#X connect 23 0 19 1;
#X connect 24 0 78 0;
#X connect 24 1 78 1;
#X connect 25 0 29 0;
#X connect 26 0 25 1;
#X connect 27 0 25 1;
#X connect 28 0 25 1;
#X connect 29 0 79 0;
#X connect 29 1 79 1;
#X connect 30 0 26 0;
#X connect 30 1 27 0;
#X connect 30 2 28 0;
#X connect 30 3 31 0;
#X connect 31 0 25 1;
#X connect 32 0 19 0;
#X connect 33 0 25 0;
#X connect 34 0 32 0;
#X connect 35 0 20 0;
#X connect 36 0 33 0;
#X connect 37 0 30 0;
#X connect 38 0 43 0;
#X connect 39 0 40 0;
#X connect 39 1 41 0;
#X connect 39 2 42 0;
#X connect 40 0 38 1;
#X connect 41 0 38 1;
#X connect 42 0 38 1;
#X connect 43 0 80 0;
#X connect 43 1 80 1;
#X connect 44 0 48 0;
#X connect 45 0 44 1;
#X connect 46 0 44 1;
#X connect 47 0 44 1;
#X connect 48 0 81 0;
#X connect 48 1 81 1;
#X connect 49 0 45 0;
#X connect 49 1 46 0;
#X connect 49 2 47 0;
#X connect 49 3 50 0;
#X connect 50 0 44 1;
#X connect 51 0 56 0;
#X connect 52 0 53 0;
#X connect 52 1 54 0;
#X connect 52 2 55 0;
#X connect 53 0 51 1;
#X connect 54 0 51 1;
#X connect 55 0 51 1;
#X connect 56 0 82 0;
#X connect 56 1 82 1;
#X connect 57 0 61 0;
#X connect 58 0 57 1;
#X connect 59 0 57 1;
#X connect 60 0 57 1;
#X connect 61 0 83 0;
#X connect 61 1 83 1;
#X connect 62 0 58 0;
#X connect 62 1 59 0;
#X connect 62 2 60 0;
#X connect 62 3 63 0;
#X connect 63 0 57 1;
#X connect 64 0 72 0;
#X connect 65 0 39 0;
#X connect 66 0 73 0;
#X connect 67 0 49 0;
#X connect 68 0 74 0;
#X connect 69 0 52 0;
#X connect 70 0 75 0;
#X connect 71 0 62 0;
#X connect 72 0 38 0;
#X connect 73 0 44 0;
#X connect 74 0 51 0;
#X connect 75 0 57 0;
#X connect 84 0 100 0;
#X connect 85 0 8 2;
#X connect 86 0 101 0;
#X connect 87 0 13 2;
#X connect 88 0 102 0;
#X connect 89 0 24 2;
#X connect 90 0 103 0;
#X connect 91 0 29 2;
#X connect 92 0 104 0;
#X connect 93 0 43 2;
#X connect 94 0 105 0;
#X connect 95 0 48 2;
#X connect 96 0 106 0;
#X connect 97 0 56 2;
#X connect 98 0 107 0;
#X connect 99 0 61 2;
#X connect 100 0 8 1;
#X connect 101 0 13 1;
#X connect 102 0 24 1;
#X connect 103 0 29 1;
#X connect 104 0 43 1;
#X connect 105 0 48 1;
#X connect 106 0 56 1;
#X connect 107 0 61 1;
#X restore 560 3 pd \$0_trig;
#X floatatom 483 125 5 1 127 0 - #0_vel #0_velocity;
#X obj 560 48 init 100;
#X obj 560 69 s \$1_velocity;
#X obj 560 89 init 50;
#X floatatom 321 125 5 0 0 0 len #1_notelength #0_notelength;
#X obj 560 109 s \$1_notelength;
#X obj 379 125 hsl 100 15 0 127 0 1 \$0_vel \$1_velocity vel -22 8
0 10 -262130 -1 -1 7795 0;
#X connect 10 0 11 0;
#X connect 12 0 19 0;
#X connect 13 0 20 0;
#X connect 14 0 21 0;
#X connect 15 0 22 0;
#X connect 16 0 23 0;
#X connect 17 0 24 0;
#X connect 18 0 25 0;
#X connect 52 0 53 0;
#X connect 54 0 56 0;
#X coords 0 -1 1 1 448 95 1 70 100;
