#N canvas 2991 635 919 638 10;
#X obj 143 44 cnv 15 130 160 empty empty empty 20 12 0 14 -204800 -66577
0;
#X floatatom 150 60 5 0 127 2 lfo1_rate #1_lfo1_rate #0_lfo1_rate;
#X floatatom 209 60 5 0 127 2 lfo1_amt #1_lfo1_amount #0_lfo1_amount
;
#X obj 150 93 vradio 21 1 0 5 \$0_lfo1_wave \$1_lfo1_wave lfo1_wave
0 -8 0 10 -262144 -1 -1 0;
#X text 171 94 rnd;
#X text 171 115 saw;
#X text 171 137 tri;
#X text 171 157 sqr;
#X text 171 177 sin;
#X obj 209 93 vradio 21 1 0 5 \$0_lfo1_dest \$1_lfo1_dest lfo1_dest
0 -8 0 10 -262144 -1 -1 0;
#X text 230 94 pw;
#X text 230 115 cut;
#X text 230 136 osc2;
#X text 230 156 osc1&2;
#X text 230 177 fm;
#X obj 271 155 cnv 15 280 210 empty empty empty 20 12 0 14 -262130
-66577 0;
#X floatatom 285 184 5 0 127 2 amp_atk #1_amp_atk #0_amp_atk;
#X floatatom 285 221 5 0 127 2 amp_dcy #1_amp_dcy #0_amp_dcy;
#X floatatom 285 258 5 0 127 2 amp_sus #1_amp_sus #0_amp_sus;
#X floatatom 285 295 5 0 127 2 amp_rel #1_amp_rel #0_amp_rel;
#X floatatom 285 331 5 0 127 2 amp_gain #1_amp_gain #0_amp_gain;
#X floatatom 349 184 5 0 127 2 flt_atk #1_flt_atk #0_flt_atk;
#X floatatom 349 221 5 0 127 2 flt_dcy #1_flt_dcy #0_flt_dcy;
#X floatatom 349 258 5 0 127 2 flt_sus #1_flt_sus #0_flt_sus;
#X floatatom 349 295 5 0 127 2 flt_rel #1_flt_rel #0_flt_rel;
#X floatatom 349 331 5 0 127 2 flt_env #1_flt_env #0_flt_env;
#X floatatom 412 184 5 0 127 2 flt_cut #1_flt_cut #0_flt_cut;
#X floatatom 412 221 5 0 127 2 flt_res #1_flt_res #0_flt_res;
#X obj 412 261 vradio 21 1 0 4 \$0_flt_kbd \$1_flt_kbd flt_kbd 0 -8
0 10 -262144 -1 -1 0;
#X text 436 261 off;
#X text 436 282 1/3;
#X text 436 305 2/3;
#X text 436 326 full;
#X obj 479 184 vradio 21 1 0 5 \$0_flt_mode \$1_flt_mode flt_mode 0
-8 0 10 -262144 -1 -1 0;
#X text 501 227 HP;
#X obj 479 296 tgl 21 0 \$0_flt_vel \$1_flt_vel flt_vel 24 9 0 10 -262144
-1 -1 0 1;
#X obj 479 324 tgl 21 0 \$0_flt_dist \$1_flt_dist flt_dist 24 9 0 10
-262144 -1 -1 0 1;
#X obj 270 44 cnv 15 340 110 empty empty empty 20 12 0 14 -204786 -66577
0;
#X floatatom 349 62 5 0 127 2 osc_fm #1_osc_fm #0_osc_fm;
#X obj 413 62 vradio 21 1 0 4 \$0_osc1_wave \$1_osc1_wave osc1_wave
0 -8 0 10 -262144 -1 -1 0;
#X floatatom 349 94 5 0 127 2 osc_pw #1_osc_pw #0_osc_pw;
#X text 435 63 sqr;
#X text 435 84 saw;
#X text 435 105 tri;
#X text 435 125 sin;
#X obj 480 62 vradio 21 1 0 4 \$0_osc2_wave \$1_osc2_wave osc2_wave
0 -8 0 10 -262144 -1 -1 0;
#X obj 548 62 vradio 21 1 0 4 \$0_osc_sync \$1_osc_sync osc_sync 0
-8 0 10 -262144 -1 -1 0;
#X obj 349 127 tgl 21 0 \$0_osc2_track \$1_osc2_track osc2_track -1
-8 0 10 -262144 -1 -1 0 1;
#X text 502 63 sqr;
#X text 502 84 saw;
#X text 502 105 tri;
#X text 502 125 rnd;
#X text 570 63 none;
#X text 570 84 sync;
#X text 570 105 ring;
#X text 570 125 both;
#X floatatom 284 62 5 0 127 2 osc2_semi #1_osc2_semi #0_osc2_semi;
#X floatatom 284 95 5 0 127 2 osc2_fine #1_osc2_fine #0_osc2_fine;
#X floatatom 284 129 5 0 127 2 osc_mix #1_osc_mix #0_osc_mix;
#X obj 142 205 cnv 15 129 160 empty empty empty 20 12 0 14 -261682
-66577 0;
#X obj 150 256 vradio 13 1 0 8 \$0_lfo2_dest \$1_lfo2_dest lfo2_dest
0 -8 0 10 -262144 -1 -1 0;
#X text 166 253 arp_down;
#X text 166 266 arp_up;
#X text 166 279 arp_up_down;
#X text 166 292 lfo_amp;
#X text 166 305 lfo_osc;
#X text 167 317 arp_rnd;
#X text 167 330 arp_echo;
#X text 167 343 lfo_filter;
#X floatatom 150 221 5 0 127 2 lfo2_rate #1_lfo2_rate #0_lfo2_rate
;
#X floatatom 209 221 5 0 127 2 lfo2_amt #1_lfo2_amount #0_lfo2_amount
;
#X obj 553 155 cnv 15 57 210 empty empty empty 20 12 0 14 -203904 -66577
0;
#X floatatom 562 173 5 0 127 2 mod_atk #1_mod_atk #0_mod_atk;
#X floatatom 562 208 5 0 127 2 mod_dcy #1_mod_dcy #0_mod_dcy;
#X floatatom 562 241 5 0 127 2 mod_amt #1_mod_amt #0_mod_amt;
#X obj 561 276 vradio 21 1 0 4 \$0_mod_dest \$1_mod_dest mod_dest 0
-8 0 10 -262144 -1 -1 0;
#X text 583 277 osc2;
#X text 583 340 none;
#X text 583 298 fm;
#X text 583 319 pw;
#X obj 141 366 cnv 15 469 80 empty empty empty 20 12 0 14 -232576 -66577
0;
#X obj 260 393 tgl 21 0 \$0_porta_auto \$1_porta_auto porta_auto 34
9 0 10 -262144 -1 -1 0 1;
#X floatatom 260 417 5 0 127 1 porta_time #1_porta_time #0_porta_time
;
#X obj 150 370 vradio 21 1 0 3 \$0_poly \$1_poly empty 0 -8 0 10 -262144
-1 -1 0;
#X obj 260 370 tgl 21 0 \$0_unison \$1_unison unison 34 9 0 10 -262144
-1 -1 0 1;
#X obj 500 384 hradio 21 1 0 5 \$0_oct_shift \$1_oct_shift oct_shift
0 -8 0 10 -262144 -1 -1 0;
#X obj 400 370 tgl 21 0 \$0_transmit \$1_transmit send_cc 24 9 0 10
-262144 -1 -1 0 1;
#X obj 400 418 bng 21 250 50 0 \$0_sysex \$1_sysex sysex 24 9 0 10
-262144 -1 -1;
#X obj 400 394 bng 21 250 50 0 \$0_get_cc \$1_get_cc get_cc 24 9 0
10 -262144 -1 -1;
#X text 175 391 legato;
#X obj 675 199 r \$0_sysex;
#N canvas 513 394 450 300 \$0_sysex 0;
#X floatatom 19 -66 5 0 0 0 - - -;
#X msg 84 0 add2 \$1;
#X obj 19 -93 sysexin 0;
#X msg 18 -3 addcomma;
#X obj 18 -41 t b f;
#X msg 18 43;
#X connect 0 0 4 0;
#X connect 1 0 5 0;
#X connect 2 0 0 0;
#X connect 3 0 5 0;
#X connect 4 0 3 0;
#X connect 4 1 1 0;
#X restore 675 132 pd \$0_sysex;
#X obj 675 219 f \$0;
#X msg 675 240 \; pd-\$1_sysex vis 1;
#N canvas 795 245 225 234 \$0_get_cc 0;
#X msg 25 159 240 \, 51 \, 0 \, 4 \, 20 \, \$1 \, 247;
#X obj 22 84 sel 3 4 5 6;
#X msg 72 109 3;
#X msg 62 130 2;
#X msg 22 130 0;
#X msg 32 109 1;
#X obj 22 59 f \$1;
#X obj 21 30 r \$0_get_cc;
#X obj 25 182 midiout;
#X connect 0 0 8 0;
#X connect 1 0 4 0;
#X connect 1 1 5 0;
#X connect 1 2 3 0;
#X connect 1 3 2 0;
#X connect 2 0 0 0;
#X connect 3 0 0 0;
#X connect 4 0 0 0;
#X connect 5 0 0 0;
#X connect 6 0 1 0;
#X connect 7 0 6 0;
#X restore 675 154 pd \$0_get_cc;
#N canvas 2859 260 1654 979 \$0_ccs 0;
#X obj 9 96 ctlout 19 \$1;
#X obj 176 15 ctlin 19 \$1;
#X obj 332 98 ctlout 20 \$1;
#X obj 499 14 ctlin 20 \$1;
#X obj 332 13 r \$0_lfo1_wave;
#X obj 500 113 s \$1_lfo1_wave;
#X obj 9 15 r \$0_lfo1_rate;
#X obj 176 116 s \$1_lfo1_rate;
#X obj 9 54 spigot;
#X obj 42 34 r \$0_transmit;
#X obj 332 52 spigot;
#X obj 365 33 r \$0_transmit;
#X obj 644 51 spigot;
#X obj 677 31 r \$0_transmit;
#X obj 644 12 r \$0_lfo1_dest;
#X obj 644 95 ctlout 21 \$1;
#X obj 815 13 ctlin 21 \$1;
#X obj 814 121 s \$1_lfo1_dest;
#X obj 955 50 spigot;
#X obj 988 30 r \$0_transmit;
#X obj 954 99 ctlout 22 \$1;
#X obj 1125 11 ctlin 22 \$1;
#X obj 1126 120 s \$1_lfo1_amount;
#X obj 955 11 r \$0_lfo1_amount;
#X obj 1282 49 spigot;
#X obj 1315 29 r \$0_transmit;
#X obj 9 190 spigot;
#X obj 42 171 r \$0_transmit;
#X obj 1597 49 spigot;
#X obj 1630 29 r \$0_transmit;
#X obj 1452 10 ctlin 23 \$1;
#X obj 1281 98 ctlout 23 \$1;
#X obj 1282 10 r \$0_lfo2_rate;
#X obj 1452 119 s \$1_lfo2_rate;
#X obj 1597 10 r \$0_lfo2_dest;
#X obj 1767 119 s \$1_lfo2_dest;
#X obj 9 151 r \$0_lfo2_amount;
#X obj 177 281 s \$1_lfo2_amount;
#X obj 1596 98 ctlout 24 \$1;
#X obj 1767 10 ctlin 24 \$1;
#X obj 177 152 ctlin 25 \$1;
#X obj 9 259 ctlout 25 \$1;
#X obj 331 190 spigot;
#X obj 364 171 r \$0_transmit;
#X obj 331 259 ctlout 26 \$1;
#X obj 499 152 ctlin 26 \$1;
#X obj 499 281 s \$1_mod_atk;
#X obj 331 151 r \$0_mod_atk;
#X obj 644 190 spigot;
#X obj 677 171 r \$0_transmit;
#X obj 644 151 r \$0_mod_dcy;
#X obj 812 281 s \$1_mod_dcy;
#X obj 812 152 ctlin 27 \$1;
#X obj 644 259 ctlout 27 \$1;
#X obj 963 190 spigot;
#X obj 996 171 r \$0_transmit;
#X obj 963 151 r \$0_mod_dest;
#X obj 1131 281 s \$1_mod_dest;
#X obj 963 259 ctlout 28 \$1;
#X obj 1131 152 ctlin 28 \$1;
#X obj 1288 190 spigot;
#X obj 1321 171 r \$0_transmit;
#X obj 1288 259 ctlout 29 \$1;
#X obj 1456 152 ctlin 29 \$1;
#X obj 1288 151 r \$0_mod_amt;
#X obj 1456 281 s \$1_mod_amt;
#X obj 1601 190 spigot;
#X obj 1634 171 r \$0_transmit;
#X obj 1601 151 r \$0_osc1_wave;
#X obj 1769 152 ctlin 30 \$1;
#X obj 1601 259 ctlout 30 \$1;
#X obj 1769 281 s \$1_osc1_wave;
#X obj 12 351 spigot;
#X obj 45 332 r \$0_transmit;
#X obj 12 312 r \$0_osc2_wave;
#X obj 170 452 s \$1_osc2_wave;
#X obj 170 313 ctlin 31 \$1;
#X obj 12 420 ctlout 31 \$1;
#X obj 331 351 spigot;
#X obj 364 332 r \$0_transmit;
#X obj 331 420 ctlout 33 \$1;
#X obj 499 313 ctlin 33 \$1;
#X obj 331 312 r \$0_osc2_fine;
#X obj 499 452 s \$1_osc2_fine;
#X obj 642 350 spigot;
#X obj 675 331 r \$0_transmit;
#X obj 800 312 ctlin 35 \$1;
#X obj 642 419 ctlout 35 \$1;
#X obj 642 311 r \$0_osc_sync;
#X obj 800 451 s \$1_osc_sync;
#X obj 956 350 spigot;
#X obj 989 331 r \$0_transmit;
#X obj 956 311 r \$0_osc2_semi;
#X obj 1124 451 s \$1_osc2_semi;
#X obj 1124 312 ctlin 78 \$1;
#X obj 956 419 ctlout 78 \$1;
#X obj 1281 350 spigot;
#X obj 1314 331 r \$0_transmit;
#X obj 1281 311 r \$0_osc_pw;
#X obj 1449 451 s \$1_osc_pw;
#X obj 1449 312 ctlin 79 \$1;
#X obj 1281 419 ctlout 79 \$1;
#X obj 1601 350 spigot;
#X obj 1634 331 r \$0_transmit;
#X obj 1601 311 r \$0_osc_mix;
#X obj 1789 451 s \$1_osc_mix;
#X obj 1789 312 ctlin 8 \$1;
#X obj 1601 419 ctlout 8 \$1;
#X obj 11 525 spigot;
#X obj 44 506 r \$0_transmit;
#X obj 11 486 r \$0_osc_fm;
#X obj 169 616 s \$1_osc_fm;
#X obj 169 487 ctlin 70 \$1;
#X obj 11 584 ctlout 70 \$1;
#X obj 321 525 spigot;
#X obj 354 506 r \$0_transmit;
#X obj 489 487 ctlin 34 \$1;
#X obj 321 584 ctlout 34 \$1;
#X obj 321 486 r \$0_osc2_track;
#X obj 489 616 s \$1_osc2_track;
#X obj 651 525 spigot;
#X obj 684 506 r \$0_transmit;
#X obj 651 486 r \$0_amp_atk;
#X obj 809 487 ctlin 73 \$1;
#X obj 809 616 s \$1_amp_atk;
#X obj 651 584 ctlout 73 \$1;
#X obj 961 525 spigot;
#X obj 994 506 r \$0_transmit;
#X obj 1129 487 ctlin 36 \$1;
#X obj 961 584 ctlout 36 \$1;
#X obj 961 486 r \$0_amp_dcy;
#X obj 1129 616 s \$1_amp_dcy;
#X obj 1281 525 spigot;
#X obj 1314 506 r \$0_transmit;
#X obj 1281 486 r \$0_amp_rel;
#X obj 1449 616 s \$1_amp_rel;
#X obj 1449 487 ctlin 72 \$1;
#X obj 1281 584 ctlout 72 \$1;
#X obj 1591 525 spigot;
#X obj 1624 506 r \$0_transmit;
#X obj 1591 486 r \$0_amp_sus;
#X obj 1779 616 s \$1_amp_sus;
#X obj 1779 487 ctlin 37 \$1;
#X obj 1591 584 ctlout 37 \$1;
#X obj 11 705 spigot;
#X obj 44 686 r \$0_transmit;
#X obj 321 705 spigot;
#X obj 354 686 r \$0_transmit;
#X obj 641 705 spigot;
#X obj 674 686 r \$0_transmit;
#X obj 961 705 spigot;
#X obj 994 686 r \$0_transmit;
#X obj 11 666 r \$0_flt_atk;
#X obj 169 806 s \$1_flt_atk;
#X obj 169 667 ctlin 38 \$1;
#X obj 11 774 ctlout 38 \$1;
#X obj 321 666 r \$0_flt_dcy;
#X obj 489 806 s \$1_flt_dcy;
#X obj 321 774 ctlout 39 \$1;
#X obj 489 667 ctlin 39 \$1;
#X obj 641 666 r \$0_flt_rel;
#X obj 799 806 s \$1_flt_rel;
#X obj 799 668 ctlin 41 \$1;
#X obj 641 775 ctlout 41 \$1;
#X obj 961 666 r \$0_flt_sus;
#X obj 1129 806 s \$1_flt_sus;
#X obj 1129 667 ctlin 40 \$1;
#X obj 961 774 ctlout 40 \$1;
#X obj 1291 705 spigot;
#X obj 1324 686 r \$0_transmit;
#X obj 1291 666 r \$0_amp_gain;
#X obj 1459 806 s \$1_amp_gain;
#X obj 1291 774 ctlout 7 \$1;
#X obj 1459 667 ctlin 7 \$1;
#X obj 1611 705 spigot;
#X obj 1644 686 r \$0_transmit;
#X obj 1611 666 r \$0_flt_env;
#X obj 1779 806 s \$1_flt_env;
#X obj 1779 667 ctlin 43 \$1;
#X obj 1611 774 ctlout 43 \$1;
#X obj 11 895 spigot;
#X obj 44 876 r \$0_transmit;
#X obj 321 895 spigot;
#X obj 354 876 r \$0_transmit;
#X obj 641 895 spigot;
#X obj 674 876 r \$0_transmit;
#X obj 961 895 spigot;
#X obj 994 876 r \$0_transmit;
#X obj 1291 895 spigot;
#X obj 1324 876 r \$0_transmit;
#X obj 1611 895 spigot;
#X obj 1644 876 r \$0_transmit;
#X obj 11 856 r \$0_flt_cut;
#X obj 169 986 s \$1_flt_cut;
#X obj 321 856 r \$0_flt_res;
#X obj 489 986 s \$1_flt_res;
#X obj 641 856 r \$0_flt_kbd;
#X obj 799 986 s \$1_flt_kbd;
#X obj 961 856 r \$0_flt_mode;
#X obj 1129 986 s \$1_flt_mode;
#X obj 1291 856 r \$0_flt_vel;
#X obj 1459 986 s \$1_flt_vel;
#X obj 1611 856 r \$0_flt_dist;
#X obj 1779 986 s \$1_flt_dist;
#X obj 169 857 ctlin 74 \$1;
#X obj 11 974 ctlout 74 \$1;
#X obj 489 857 ctlin 42 \$1;
#X obj 321 974 ctlout 42 \$1;
#X obj 799 858 ctlin 46 \$1;
#X obj 641 975 ctlout 46 \$1;
#X obj 1129 857 ctlin 44 \$1;
#X obj 961 974 ctlout 44 \$1;
#X obj 1449 860 ctlin 45 \$1;
#X obj 1291 974 ctlout 45 \$1;
#X obj 1779 857 ctlin 80 \$1;
#X obj 1611 974 ctlout 80 \$1;
#X obj 11 1095 spigot;
#X obj 44 1076 r \$0_transmit;
#X obj 321 1095 spigot;
#X obj 354 1076 r \$0_transmit;
#X obj 631 1095 spigot;
#X obj 664 1076 r \$0_transmit;
#X obj 961 1095 spigot;
#X obj 994 1076 r \$0_transmit;
#X obj 1281 1095 spigot;
#X obj 1314 1076 r \$0_transmit;
#X obj 11 1056 r \$0_poly;
#X obj 169 1196 s \$1_poly;
#X obj 11 1174 ctlout 15 \$1;
#X obj 169 1057 ctlin 15 \$1;
#X obj 321 1056 r \$0_unison;
#X obj 489 1196 s \$1_unison;
#X obj 489 1057 ctlin 16 \$1;
#X obj 321 1174 ctlout 16 \$1;
#X obj 631 1056 r \$0_porta_auto;
#X obj 790 1196 s \$1_porta_auto;
#X obj 789 1058 ctlin 65 \$1;
#X obj 631 1175 ctlout 65 \$1;
#X obj 961 1056 r \$0_porta_time;
#X obj 1129 1196 s \$1_porta_time;
#X obj 1129 1057 ctlin 5 \$1;
#X obj 961 1174 ctlout 5 \$1;
#X obj 1281 1056 r \$0_oct_shift;
#X obj 1449 1196 s \$1_oct_shift;
#X obj 1449 1057 ctlin 17 \$1;
#X obj 1281 1174 ctlout 17 \$1;
#X obj 209 57 r \$0_transmit;
#X obj 209 77 == 0;
#X obj 176 97 spigot;
#X obj 532 54 r \$0_transmit;
#X obj 532 74 == 0;
#X obj 499 94 spigot;
#X obj 846 61 r \$0_transmit;
#X obj 846 81 == 0;
#X obj 813 101 spigot;
#X obj 1159 60 r \$0_transmit;
#X obj 1159 80 == 0;
#X obj 1126 100 spigot;
#X obj 1483 59 r \$0_transmit;
#X obj 1483 79 == 0;
#X obj 1450 99 spigot;
#X obj 1800 59 r \$0_transmit;
#X obj 1800 79 == 0;
#X obj 1767 99 spigot;
#X obj 1800 209 r \$0_transmit;
#X obj 1800 229 == 0;
#X obj 1767 249 spigot;
#X obj 1490 209 r \$0_transmit;
#X obj 1490 229 == 0;
#X obj 1457 249 spigot;
#X obj 1164 209 r \$0_transmit;
#X obj 1164 229 == 0;
#X obj 1131 251 spigot;
#X obj 844 209 r \$0_transmit;
#X obj 844 229 == 0;
#X obj 811 251 spigot;
#X obj 532 209 r \$0_transmit;
#X obj 532 229 == 0;
#X obj 499 251 spigot;
#X obj 210 209 r \$0_transmit;
#X obj 210 229 == 0;
#X obj 177 251 spigot;
#X obj 1820 379 r \$0_transmit;
#X obj 1820 399 == 0;
#X obj 1787 419 spigot;
#X obj 1480 379 r \$0_transmit;
#X obj 1480 399 == 0;
#X obj 1447 419 spigot;
#X obj 1158 379 r \$0_transmit;
#X obj 1158 399 == 0;
#X obj 1125 419 spigot;
#X obj 832 379 r \$0_transmit;
#X obj 832 399 == 0;
#X obj 799 419 spigot;
#X obj 531 379 r \$0_transmit;
#X obj 531 399 == 0;
#X obj 499 420 spigot;
#X obj 201 379 r \$0_transmit;
#X obj 201 399 == 0;
#X obj 169 420 spigot;
#X obj 1812 549 r \$0_transmit;
#X obj 1812 569 == 0;
#X obj 1779 589 spigot;
#X obj 1482 549 r \$0_transmit;
#X obj 1482 569 == 0;
#X obj 1449 589 spigot;
#X obj 1161 549 r \$0_transmit;
#X obj 1161 569 == 0;
#X obj 1128 589 spigot;
#X obj 841 549 r \$0_transmit;
#X obj 841 569 == 0;
#X obj 808 589 spigot;
#X obj 521 549 r \$0_transmit;
#X obj 521 569 == 0;
#X obj 488 589 spigot;
#X obj 201 549 r \$0_transmit;
#X obj 201 569 == 0;
#X obj 168 589 spigot;
#X obj 1811 729 r \$0_transmit;
#X obj 1811 749 == 0;
#X obj 1778 769 spigot;
#X obj 1491 729 r \$0_transmit;
#X obj 1491 749 == 0;
#X obj 1458 769 spigot;
#X obj 1161 729 r \$0_transmit;
#X obj 1161 749 == 0;
#X obj 1128 769 spigot;
#X obj 831 729 r \$0_transmit;
#X obj 831 749 == 0;
#X obj 798 769 spigot;
#X obj 521 729 r \$0_transmit;
#X obj 521 749 == 0;
#X obj 488 769 spigot;
#X obj 201 729 r \$0_transmit;
#X obj 201 749 == 0;
#X obj 168 769 spigot;
#X obj 1811 920 r \$0_transmit;
#X obj 1811 940 == 0;
#X obj 1778 960 spigot;
#X obj 1491 920 r \$0_transmit;
#X obj 1491 940 == 0;
#X obj 1458 960 spigot;
#X obj 1161 920 r \$0_transmit;
#X obj 1161 940 == 0;
#X obj 1128 960 spigot;
#X obj 831 920 r \$0_transmit;
#X obj 831 940 == 0;
#X obj 798 960 spigot;
#X obj 521 920 r \$0_transmit;
#X obj 521 940 == 0;
#X obj 488 960 spigot;
#X obj 201 920 r \$0_transmit;
#X obj 201 940 == 0;
#X obj 168 960 spigot;
#X obj 201 1120 r \$0_transmit;
#X obj 201 1140 == 0;
#X obj 168 1160 spigot;
#X obj 521 1120 r \$0_transmit;
#X obj 521 1140 == 0;
#X obj 488 1160 spigot;
#X obj 821 1120 r \$0_transmit;
#X obj 821 1140 == 0;
#X obj 788 1160 spigot;
#X obj 1161 1120 r \$0_transmit;
#X obj 1161 1140 == 0;
#X obj 1128 1160 spigot;
#X obj 1481 1120 r \$0_transmit;
#X obj 1481 1140 == 0;
#X obj 1448 1160 spigot;
#X obj 1597 74 cyclone/speedlim 100;
#X obj 1282 74 cyclone/speedlim 100;
#X obj 955 75 cyclone/speedlim 100;
#X obj 644 74 cyclone/speedlim 100;
#X obj 332 76 cyclone/speedlim 100;
#X obj 9 75 cyclone/speedlim 100;
#X obj 176 37 cyclone/speedlim 100;
#X obj 499 34 cyclone/speedlim 100;
#X obj 813 36 cyclone/speedlim 100;
#X obj 1125 35 cyclone/speedlim 100;
#X obj 1451 36 cyclone/speedlim 100;
#X obj 1766 36 cyclone/speedlim 100;
#X obj 1597 224 cyclone/speedlim 100;
#X obj 1282 224 cyclone/speedlim 100;
#X obj 955 225 cyclone/speedlim 100;
#X obj 644 224 cyclone/speedlim 100;
#X obj 332 226 cyclone/speedlim 100;
#X obj 9 225 cyclone/speedlim 100;
#X obj 176 180 cyclone/speedlim 100;
#X obj 499 177 cyclone/speedlim 100;
#X obj 813 179 cyclone/speedlim 100;
#X obj 1125 178 cyclone/speedlim 100;
#X obj 1451 179 cyclone/speedlim 100;
#X obj 1766 179 cyclone/speedlim 100;
#X obj 1597 384 cyclone/speedlim 100;
#X obj 1282 384 cyclone/speedlim 100;
#X obj 955 385 cyclone/speedlim 100;
#X obj 644 384 cyclone/speedlim 100;
#X obj 332 386 cyclone/speedlim 100;
#X obj 9 385 cyclone/speedlim 100;
#X obj 176 350 cyclone/speedlim 100;
#X obj 499 347 cyclone/speedlim 100;
#X obj 803 349 cyclone/speedlim 100;
#X obj 1125 348 cyclone/speedlim 100;
#X obj 1451 349 cyclone/speedlim 100;
#X obj 1786 349 cyclone/speedlim 100;
#X obj 1597 554 cyclone/speedlim 100;
#X obj 1282 554 cyclone/speedlim 100;
#X obj 955 555 cyclone/speedlim 100;
#X obj 644 554 cyclone/speedlim 100;
#X obj 332 556 cyclone/speedlim 100;
#X obj 9 555 cyclone/speedlim 100;
#X obj 176 520 cyclone/speedlim 100;
#X obj 499 517 cyclone/speedlim 100;
#X obj 803 519 cyclone/speedlim 100;
#X obj 1125 518 cyclone/speedlim 100;
#X obj 1451 519 cyclone/speedlim 100;
#X obj 1786 519 cyclone/speedlim 100;
#X obj 1597 736 cyclone/speedlim 100;
#X obj 1282 736 cyclone/speedlim 100;
#X obj 955 737 cyclone/speedlim 100;
#X obj 644 736 cyclone/speedlim 100;
#X obj 320 736 cyclone/speedlim 100;
#X obj 9 737 cyclone/speedlim 100;
#X obj 174 700 cyclone/speedlim 100;
#X obj 497 697 cyclone/speedlim 100;
#X obj 801 699 cyclone/speedlim 100;
#X obj 1123 698 cyclone/speedlim 100;
#X obj 1449 699 cyclone/speedlim 100;
#X obj 1784 699 cyclone/speedlim 100;
#X obj 1597 936 cyclone/speedlim 100;
#X obj 1282 936 cyclone/speedlim 100;
#X obj 955 937 cyclone/speedlim 100;
#X obj 644 936 cyclone/speedlim 100;
#X obj 320 936 cyclone/speedlim 100;
#X obj 9 937 cyclone/speedlim 100;
#X obj 172 890 cyclone/speedlim 100;
#X obj 495 887 cyclone/speedlim 100;
#X obj 799 889 cyclone/speedlim 100;
#X obj 1121 888 cyclone/speedlim 100;
#X obj 1447 889 cyclone/speedlim 100;
#X obj 1782 889 cyclone/speedlim 100;
#X obj 1282 1136 cyclone/speedlim 100;
#X obj 955 1137 cyclone/speedlim 100;
#X obj 644 1136 cyclone/speedlim 100;
#X obj 321 1132 cyclone/speedlim 100;
#X obj 9 1137 cyclone/speedlim 100;
#X obj 166 1090 cyclone/speedlim 100;
#X obj 489 1087 cyclone/speedlim 100;
#X obj 793 1089 cyclone/speedlim 100;
#X obj 1115 1088 cyclone/speedlim 100;
#X obj 1441 1089 cyclone/speedlim 100;
#X connect 1 0 375 0;
#X connect 3 0 376 0;
#X connect 4 0 10 0;
#X connect 6 0 8 0;
#X connect 8 0 374 0;
#X connect 9 0 8 1;
#X connect 10 0 373 0;
#X connect 11 0 10 1;
#X connect 12 0 372 0;
#X connect 13 0 12 1;
#X connect 14 0 12 0;
#X connect 16 0 377 0;
#X connect 18 0 371 0;
#X connect 19 0 18 1;
#X connect 21 0 378 0;
#X connect 23 0 18 0;
#X connect 24 0 370 0;
#X connect 25 0 24 1;
#X connect 26 0 386 0;
#X connect 27 0 26 1;
#X connect 28 0 369 0;
#X connect 29 0 28 1;
#X connect 30 0 379 0;
#X connect 32 0 24 0;
#X connect 34 0 28 0;
#X connect 36 0 26 0;
#X connect 39 0 380 0;
#X connect 40 0 387 0;
#X connect 42 0 385 0;
#X connect 43 0 42 1;
#X connect 45 0 388 0;
#X connect 47 0 42 0;
#X connect 48 0 384 0;
#X connect 49 0 48 1;
#X connect 50 0 48 0;
#X connect 52 0 389 0;
#X connect 54 0 383 0;
#X connect 55 0 54 1;
#X connect 56 0 54 0;
#X connect 59 0 390 0;
#X connect 60 0 382 0;
#X connect 61 0 60 1;
#X connect 63 0 391 0;
#X connect 64 0 60 0;
#X connect 66 0 381 0;
#X connect 67 0 66 1;
#X connect 68 0 66 0;
#X connect 69 0 392 0;
#X connect 72 0 398 0;
#X connect 73 0 72 1;
#X connect 74 0 72 0;
#X connect 76 0 399 0;
#X connect 78 0 397 0;
#X connect 79 0 78 1;
#X connect 81 0 400 0;
#X connect 82 0 78 0;
#X connect 84 0 396 0;
#X connect 85 0 84 1;
#X connect 86 0 401 0;
#X connect 88 0 84 0;
#X connect 90 0 395 0;
#X connect 91 0 90 1;
#X connect 92 0 90 0;
#X connect 94 0 402 0;
#X connect 96 0 394 0;
#X connect 97 0 96 1;
#X connect 98 0 96 0;
#X connect 100 0 403 0;
#X connect 102 0 393 0;
#X connect 103 0 102 1;
#X connect 104 0 102 0;
#X connect 106 0 404 0;
#X connect 108 0 410 0;
#X connect 109 0 108 1;
#X connect 110 0 108 0;
#X connect 112 0 411 0;
#X connect 114 0 409 0;
#X connect 115 0 114 1;
#X connect 116 0 412 0;
#X connect 118 0 114 0;
#X connect 120 0 408 0;
#X connect 121 0 120 1;
#X connect 122 0 120 0;
#X connect 123 0 413 0;
#X connect 126 0 407 0;
#X connect 127 0 126 1;
#X connect 128 0 414 0;
#X connect 130 0 126 0;
#X connect 132 0 406 0;
#X connect 133 0 132 1;
#X connect 134 0 132 0;
#X connect 136 0 415 0;
#X connect 138 0 405 0;
#X connect 139 0 138 1;
#X connect 140 0 138 0;
#X connect 142 0 416 0;
#X connect 144 0 422 0;
#X connect 145 0 144 1;
#X connect 146 0 421 0;
#X connect 147 0 146 1;
#X connect 148 0 420 0;
#X connect 149 0 148 1;
#X connect 150 0 419 0;
#X connect 151 0 150 1;
#X connect 152 0 144 0;
#X connect 154 0 423 0;
#X connect 156 0 146 0;
#X connect 159 0 424 0;
#X connect 160 0 148 0;
#X connect 162 0 425 0;
#X connect 164 0 150 0;
#X connect 166 0 426 0;
#X connect 168 0 418 0;
#X connect 169 0 168 1;
#X connect 170 0 168 0;
#X connect 173 0 427 0;
#X connect 174 0 417 0;
#X connect 175 0 174 1;
#X connect 176 0 174 0;
#X connect 178 0 428 0;
#X connect 180 0 434 0;
#X connect 181 0 180 1;
#X connect 182 0 433 0;
#X connect 183 0 182 1;
#X connect 184 0 432 0;
#X connect 185 0 184 1;
#X connect 186 0 431 0;
#X connect 187 0 186 1;
#X connect 188 0 430 0;
#X connect 189 0 188 1;
#X connect 190 0 429 0;
#X connect 191 0 190 1;
#X connect 192 0 180 0;
#X connect 194 0 182 0;
#X connect 196 0 184 0;
#X connect 198 0 186 0;
#X connect 200 0 188 0;
#X connect 202 0 190 0;
#X connect 204 0 435 0;
#X connect 206 0 436 0;
#X connect 208 0 437 0;
#X connect 210 0 438 0;
#X connect 212 0 439 0;
#X connect 214 0 440 0;
#X connect 216 0 445 0;
#X connect 217 0 216 1;
#X connect 218 0 444 0;
#X connect 219 0 218 1;
#X connect 220 0 443 0;
#X connect 221 0 220 1;
#X connect 222 0 442 0;
#X connect 223 0 222 1;
#X connect 224 0 441 0;
#X connect 225 0 224 1;
#X connect 226 0 216 0;
#X connect 229 0 446 0;
#X connect 230 0 218 0;
#X connect 232 0 447 0;
#X connect 234 0 220 0;
#X connect 236 0 448 0;
#X connect 238 0 222 0;
#X connect 240 0 449 0;
#X connect 242 0 224 0;
#X connect 244 0 450 0;
#X connect 246 0 247 0;
#X connect 247 0 248 1;
#X connect 248 0 7 0;
#X connect 249 0 250 0;
#X connect 250 0 251 1;
#X connect 251 0 5 0;
#X connect 252 0 253 0;
#X connect 253 0 254 1;
#X connect 254 0 17 0;
#X connect 255 0 256 0;
#X connect 256 0 257 1;
#X connect 257 0 22 0;
#X connect 258 0 259 0;
#X connect 259 0 260 1;
#X connect 260 0 33 0;
#X connect 261 0 262 0;
#X connect 262 0 263 1;
#X connect 263 0 35 0;
#X connect 264 0 265 0;
#X connect 265 0 266 1;
#X connect 266 0 71 0;
#X connect 267 0 268 0;
#X connect 268 0 269 1;
#X connect 269 0 65 0;
#X connect 270 0 271 0;
#X connect 271 0 272 1;
#X connect 272 0 57 0;
#X connect 273 0 274 0;
#X connect 274 0 275 1;
#X connect 275 0 51 0;
#X connect 276 0 277 0;
#X connect 277 0 278 1;
#X connect 278 0 46 0;
#X connect 279 0 280 0;
#X connect 280 0 281 1;
#X connect 281 0 37 0;
#X connect 282 0 283 0;
#X connect 283 0 284 1;
#X connect 284 0 105 0;
#X connect 285 0 286 0;
#X connect 286 0 287 1;
#X connect 287 0 99 0;
#X connect 288 0 289 0;
#X connect 289 0 290 1;
#X connect 290 0 93 0;
#X connect 291 0 292 0;
#X connect 292 0 293 1;
#X connect 293 0 89 0;
#X connect 294 0 295 0;
#X connect 295 0 296 1;
#X connect 296 0 83 0;
#X connect 297 0 298 0;
#X connect 298 0 299 1;
#X connect 299 0 75 0;
#X connect 300 0 301 0;
#X connect 301 0 302 1;
#X connect 302 0 141 0;
#X connect 303 0 304 0;
#X connect 304 0 305 1;
#X connect 305 0 135 0;
#X connect 306 0 307 0;
#X connect 307 0 308 1;
#X connect 308 0 131 0;
#X connect 309 0 310 0;
#X connect 310 0 311 1;
#X connect 311 0 124 0;
#X connect 312 0 313 0;
#X connect 313 0 314 1;
#X connect 314 0 119 0;
#X connect 315 0 316 0;
#X connect 316 0 317 1;
#X connect 317 0 111 0;
#X connect 318 0 319 0;
#X connect 319 0 320 1;
#X connect 320 0 177 0;
#X connect 321 0 322 0;
#X connect 322 0 323 1;
#X connect 323 0 171 0;
#X connect 324 0 325 0;
#X connect 325 0 326 1;
#X connect 326 0 165 0;
#X connect 327 0 328 0;
#X connect 328 0 329 1;
#X connect 329 0 161 0;
#X connect 330 0 331 0;
#X connect 331 0 332 1;
#X connect 332 0 157 0;
#X connect 333 0 334 0;
#X connect 334 0 335 1;
#X connect 335 0 153 0;
#X connect 336 0 337 0;
#X connect 337 0 338 1;
#X connect 338 0 203 0;
#X connect 339 0 340 0;
#X connect 340 0 341 1;
#X connect 341 0 201 0;
#X connect 342 0 343 0;
#X connect 343 0 344 1;
#X connect 344 0 199 0;
#X connect 345 0 346 0;
#X connect 346 0 347 1;
#X connect 347 0 197 0;
#X connect 348 0 349 0;
#X connect 349 0 350 1;
#X connect 350 0 195 0;
#X connect 351 0 352 0;
#X connect 352 0 353 1;
#X connect 353 0 193 0;
#X connect 354 0 355 0;
#X connect 355 0 356 1;
#X connect 356 0 227 0;
#X connect 357 0 358 0;
#X connect 358 0 359 1;
#X connect 359 0 231 0;
#X connect 360 0 361 0;
#X connect 361 0 362 1;
#X connect 362 0 235 0;
#X connect 363 0 364 0;
#X connect 364 0 365 1;
#X connect 365 0 239 0;
#X connect 366 0 367 0;
#X connect 367 0 368 1;
#X connect 368 0 243 0;
#X connect 369 0 38 0;
#X connect 370 0 31 0;
#X connect 371 0 20 0;
#X connect 372 0 15 0;
#X connect 373 0 2 0;
#X connect 374 0 0 0;
#X connect 375 0 248 0;
#X connect 376 0 251 0;
#X connect 377 0 254 0;
#X connect 378 0 257 0;
#X connect 379 0 260 0;
#X connect 380 0 263 0;
#X connect 381 0 70 0;
#X connect 382 0 62 0;
#X connect 383 0 58 0;
#X connect 384 0 53 0;
#X connect 385 0 44 0;
#X connect 386 0 41 0;
#X connect 387 0 281 0;
#X connect 388 0 278 0;
#X connect 389 0 275 0;
#X connect 390 0 272 0;
#X connect 391 0 269 0;
#X connect 392 0 266 0;
#X connect 393 0 107 0;
#X connect 394 0 101 0;
#X connect 395 0 95 0;
#X connect 396 0 87 0;
#X connect 397 0 80 0;
#X connect 398 0 77 0;
#X connect 399 0 299 0;
#X connect 400 0 296 0;
#X connect 401 0 293 0;
#X connect 402 0 290 0;
#X connect 403 0 287 0;
#X connect 404 0 284 0;
#X connect 405 0 143 0;
#X connect 406 0 137 0;
#X connect 407 0 129 0;
#X connect 408 0 125 0;
#X connect 409 0 117 0;
#X connect 410 0 113 0;
#X connect 411 0 317 0;
#X connect 412 0 314 0;
#X connect 413 0 311 0;
#X connect 414 0 308 0;
#X connect 415 0 305 0;
#X connect 416 0 302 0;
#X connect 417 0 179 0;
#X connect 418 0 172 0;
#X connect 419 0 167 0;
#X connect 420 0 163 0;
#X connect 421 0 158 0;
#X connect 422 0 155 0;
#X connect 423 0 335 0;
#X connect 424 0 332 0;
#X connect 425 0 329 0;
#X connect 426 0 326 0;
#X connect 427 0 323 0;
#X connect 428 0 320 0;
#X connect 429 0 215 0;
#X connect 430 0 213 0;
#X connect 431 0 211 0;
#X connect 432 0 209 0;
#X connect 433 0 207 0;
#X connect 434 0 205 0;
#X connect 435 0 353 0;
#X connect 436 0 350 0;
#X connect 437 0 347 0;
#X connect 438 0 344 0;
#X connect 439 0 341 0;
#X connect 440 0 338 0;
#X connect 441 0 245 0;
#X connect 442 0 241 0;
#X connect 443 0 237 0;
#X connect 444 0 233 0;
#X connect 445 0 228 0;
#X connect 446 0 356 0;
#X connect 447 0 359 0;
#X connect 448 0 362 0;
#X connect 449 0 365 0;
#X connect 450 0 368 0;
#X restore 675 110 pd \$0_ccs;
#X obj 675 346 pgmout;
#X floatatom 500 421 5 1 127 2 program #1_program #0_program;
#X obj 675 302 t f b;
#X obj 708 325 f \$1;
#X obj 675 277 r \$0_program;
#X obj 674 79 ctlout 18 \$1;
#X obj 674 42 hradio 15 1 0 5 empty empty mod_wheel_dest 0 -8 0 10
-262144 -1 -1 0;
#X floatatom 674 60 5 0 0 0 - - -;
#X msg 640 57 4;
#X text 501 185 LP12;
#X text 501 268 notch;
#X text 501 206 LP24;
#X text 501 247 BP;
#X text 175 412 poly;
#X text 175 370 mono;
#X obj 676 372 init 0;
#X obj 676 393 s \$0_transmit;
#X connect 90 0 92 0;
#X connect 92 0 93 0;
#X connect 98 0 96 0;
#X connect 98 1 99 0;
#X connect 99 0 96 1;
#X connect 100 0 98 0;
#X connect 102 0 103 0;
#X connect 103 0 101 0;
#X connect 104 0 101 0;
#X connect 111 0 112 0;
#X coords 0 -1 1 1 472 423 1 140 25;
