#N canvas 532 477 295 231 10;
#X obj -168 172 table penta 5;
#X obj -169 56 hradio 15 1 0 12 empty empty empty 0 -8 0 10 -262144
-1 -1 4;
#X text -131 32 pitch (0 - 11);
#X obj -169 33 inlet;
#X obj -99 78 inlet;
#X text -60 79 major (0) minor (1);
#X obj -99 101 tgl 15 0 empty empty empty 17 7 0 10 -262144 -1 -1 0
1;
#N canvas 659 403 621 377 scaleguts 0;
#X obj -118 33 inlet;
#X obj -134 107 f;
#X obj -69 35 loadbang;
#X msg -69 58 0;
#X obj -118 81 s scale-changed;
#X obj -133 10 r scale-changed;
#X obj -134 132 s root-note;
#X obj -118 56 t b f;
#X obj -134 193 r root-note;
#X obj -135 293 pack f f;
#X obj -135 246 t f b;
#X obj -98 270 f 0;
#X obj -134 216 f;
#X obj -135 320 tabwrite penta;
#X obj -21 201 f;
#X obj -36 222 +;
#X obj -36 293 pack f f;
#X obj -36 246 t f b;
#X obj -37 134 r root-note;
#X obj 1 270 f 1;
#X obj -36 156 f;
#X obj -20 180 r scale-changed;
#X obj -36 320 tabwrite penta;
#X obj 57 15 inlet;
#X obj 57 60 s scale-changed;
#X obj 57 35 t b l;
#X obj 93 85 unpack f f f f;
#X obj 96 201 f;
#X obj 81 222 +;
#X obj 81 293 pack f f;
#X obj 81 246 t f b;
#X obj 80 134 r root-note;
#X obj 81 156 f;
#X obj 97 180 r scale-changed;
#X obj 81 320 tabwrite penta;
#X obj 118 270 f 2;
#X obj 211 200 f;
#X obj 196 221 +;
#X obj 196 292 pack f f;
#X obj 196 245 t f b;
#X obj 195 133 r root-note;
#X obj 196 155 f;
#X obj 212 179 r scale-changed;
#X obj 196 319 tabwrite penta;
#X obj 330 201 f;
#X obj 315 222 +;
#X obj 315 293 pack f f;
#X obj 315 246 t f b;
#X obj 314 134 r root-note;
#X obj 315 156 f;
#X obj 331 180 r scale-changed;
#X obj 315 320 tabwrite penta;
#X obj 233 269 f 3;
#X obj 352 270 f 4;
#X connect 0 0 7 0;
#X connect 1 0 6 0;
#X connect 2 0 3 0;
#X connect 3 0 7 0;
#X connect 5 0 1 0;
#X connect 7 0 4 0;
#X connect 7 1 1 1;
#X connect 8 0 12 0;
#X connect 9 0 13 0;
#X connect 10 0 9 0;
#X connect 10 1 11 0;
#X connect 11 0 9 1;
#X connect 12 0 10 0;
#X connect 14 0 15 1;
#X connect 15 0 17 0;
#X connect 16 0 22 0;
#X connect 17 0 16 0;
#X connect 17 1 19 0;
#X connect 18 0 20 0;
#X connect 19 0 16 1;
#X connect 20 0 15 0;
#X connect 21 0 14 0;
#X connect 23 0 25 0;
#X connect 25 0 24 0;
#X connect 25 1 26 0;
#X connect 26 0 14 1;
#X connect 26 1 27 1;
#X connect 26 2 36 1;
#X connect 26 3 44 1;
#X connect 27 0 28 1;
#X connect 28 0 30 0;
#X connect 29 0 34 0;
#X connect 30 0 29 0;
#X connect 30 1 35 0;
#X connect 31 0 32 0;
#X connect 32 0 28 0;
#X connect 33 0 27 0;
#X connect 35 0 29 1;
#X connect 36 0 37 1;
#X connect 37 0 39 0;
#X connect 38 0 43 0;
#X connect 39 0 38 0;
#X connect 39 1 52 0;
#X connect 40 0 41 0;
#X connect 41 0 37 0;
#X connect 42 0 36 0;
#X connect 44 0 45 1;
#X connect 45 0 47 0;
#X connect 46 0 51 0;
#X connect 47 0 46 0;
#X connect 47 1 53 0;
#X connect 48 0 49 0;
#X connect 49 0 45 0;
#X connect 50 0 44 0;
#X connect 52 0 38 1;
#X connect 53 0 46 1;
#X restore -168 145 pd scaleguts;
#N canvas 590 656 154 167 modeguts 0;
#X obj 10 34 inlet;
#X obj 62 32 loadbang;
#X obj 9 155 outlet;
#X obj 10 60 sel 0 1;
#X msg 9 97 2 4 7 9;
#X msg 23 121 3 5 7 10;
#X connect 0 0 3 0;
#X connect 1 0 4 0;
#X connect 3 0 4 0;
#X connect 3 1 5 0;
#X connect 4 0 2 0;
#X connect 5 0 2 0;
#X restore -99 122 pd modeguts;
#X connect 1 0 7 0;
#X connect 3 0 1 0;
#X connect 4 0 6 0;
#X connect 6 0 8 0;
#X connect 8 0 7 1;
