#N canvas 3259 276 450 446 10;
#X obj 65 50 tgl 14 0 \$0-tgl0 \$1-tgl0 empty 17 7 0 10 -262144 -1
-1 1 1;
#X obj 82 50 tgl 14 0 \$0-tgl1 \$1-tgl1 empty 17 7 0 10 -262144 -1
-1 0 1;
#X obj 99 50 tgl 14 0 \$0-tgl2 \$1-tgl2 empty 17 7 0 10 -262144 -1
-1 0 1;
#X obj 116 50 tgl 14 0 \$0-tgl3 \$1-tgl3 empty 17 7 0 10 -262144 -1
-1 0 1;
#X obj 133 50 tgl 14 0 \$0-tgl4 \$1-tgl4 empty 17 7 0 10 -262144 -1
-1 0 1;
#X obj 150 50 tgl 14 0 \$0-tgl5 \$1-tgl5 empty 17 7 0 10 -262144 -1
-1 0 1;
#X obj 167 50 tgl 14 0 \$0-tgl6 \$1-tgl6 empty 17 7 0 10 -262144 -1
-1 0 1;
#X obj 184 50 tgl 14 0 \$0-tgl7 \$1-tgl7 empty 17 7 0 10 -262144 -1
-1 0 1;
#X obj 65 68 tgl 14 0 \$0-tgl8 \$1-tgl8 empty 17 7 0 10 -262144 -1
-1 0 1;
#X obj 82 68 tgl 14 0 \$0-tgl9 \$1-tgl9 empty 17 7 0 10 -262144 -1
-1 0 1;
#X obj 99 68 tgl 14 0 \$0-tgl10 \$1-tgl10 empty 17 7 0 10 -262144 -1
-1 0 1;
#X obj 116 68 tgl 14 0 \$0-tgl11 \$1-tgl11 empty 17 7 0 10 -262144
-1 -1 0 1;
#X obj 133 68 tgl 14 0 \$0-tgl12 \$1-tgl12 empty 17 7 0 10 -262144
-1 -1 0 1;
#X obj 150 68 tgl 14 0 \$0-tgl13 \$1-tgl13 empty 17 7 0 10 -262144
-1 -1 0 1;
#X obj 167 68 tgl 14 0 \$0-tgl14 \$1-tgl14 empty 17 7 0 10 -262144
-1 -1 0 1;
#X obj 184 68 tgl 14 0 \$0-tgl15 \$1-tgl15 empty 17 7 0 10 -262144
-1 -1 0 1;
#X obj 65 86 tgl 14 0 \$0-tgl16 \$1-tgl16 empty 17 7 0 10 -262144 -1
-1 0 1;
#X obj 82 86 tgl 14 0 \$0-tgl17 \$1-tgl17 empty 17 7 0 10 -262144 -1
-1 0 1;
#X obj 99 86 tgl 14 0 \$0-tgl18 \$1-tgl18 empty 17 7 0 10 -262144 -1
-1 0 1;
#X obj 116 86 tgl 14 0 \$0-tgl19 \$1-tgl19 empty 17 7 0 10 -262144
-1 -1 0 1;
#X obj 133 86 tgl 14 0 \$0-tgl20 \$1-tgl20 empty 17 7 0 10 -262144
-1 -1 0 1;
#X obj 150 86 tgl 14 0 \$0-tgl21 \$1-tgl21 empty 17 7 0 10 -262144
-1 -1 0 1;
#X obj 167 86 tgl 14 0 \$0-tgl22 \$1-tgl22 empty 17 7 0 10 -262144
-1 -1 0 1;
#X obj 184 86 tgl 14 0 \$0-tgl23 \$1-tgl23 empty 17 7 0 10 -262144
-1 -1 0 1;
#X obj 65 104 tgl 14 0 \$0-tgl24 \$1-tgl24 empty 17 7 0 10 -262144
-1 -1 0 1;
#X obj 82 104 tgl 14 0 \$0-tgl25 \$1-tgl25 empty 17 7 0 10 -262144
-1 -1 0 1;
#X obj 99 104 tgl 14 0 \$0-tgl26 \$1-tgl26 empty 17 7 0 10 -262144
-1 -1 0 1;
#X obj 116 104 tgl 14 0 \$0-tgl27 \$1-tgl27 empty 17 7 0 10 -262144
-1 -1 0 1;
#X obj 133 104 tgl 14 0 \$0-tgl28 \$1-tgl28 empty 17 7 0 10 -262144
-1 -1 0 1;
#X obj 150 104 tgl 14 0 \$0-tgl29 \$1-tgl29 empty 17 7 0 10 -262144
-1 -1 0 1;
#X obj 167 104 tgl 14 0 \$0-tgl30 \$1-tgl30 empty 17 7 0 10 -262144
-1 -1 0 1;
#X obj 184 104 tgl 14 0 \$0-tgl31 \$1-tgl31 empty 17 7 0 10 -262144
-1 -1 0 1;
#X obj 65 122 tgl 14 0 \$0-tgl32 \$1-tgl32 empty 17 7 0 10 -262144
-1 -1 1 1;
#X obj 82 122 tgl 14 0 \$0-tgl33 \$1-tgl33 empty 17 7 0 10 -262144
-1 -1 0 1;
#X obj 99 122 tgl 14 0 \$0-tgl34 \$1-tgl34 empty 17 7 0 10 -262144
-1 -1 0 1;
#X obj 116 122 tgl 14 0 \$0-tgl35 \$1-tgl35 empty 17 7 0 10 -262144
-1 -1 0 1;
#X obj 133 122 tgl 14 0 \$0-tgl36 \$1-tgl36 empty 17 7 0 10 -262144
-1 -1 0 1;
#X obj 150 122 tgl 14 0 \$0-tgl37 \$1-tgl37 empty 17 7 0 10 -262144
-1 -1 0 1;
#X obj 167 122 tgl 14 0 \$0-tgl38 \$1-tgl38 empty 17 7 0 10 -262144
-1 -1 0 1;
#X obj 184 122 tgl 14 0 \$0-tgl39 \$1-tgl39 empty 17 7 0 10 -262144
-1 -1 0 1;
#X obj 65 140 tgl 14 0 \$0-tgl40 \$1-tgl40 empty 17 7 0 10 -262144
-1 -1 0 1;
#X obj 82 140 tgl 14 0 \$0-tgl41 \$1-tgl41 empty 17 7 0 10 -262144
-1 -1 0 1;
#X obj 99 140 tgl 14 0 \$0-tgl42 \$1-tgl42 empty 17 7 0 10 -262144
-1 -1 0 1;
#X obj 116 140 tgl 14 0 \$0-tgl43 \$1-tgl43 empty 17 7 0 10 -262144
-1 -1 0 1;
#X obj 133 140 tgl 14 0 \$0-tgl44 \$1-tgl44 empty 17 7 0 10 -262144
-1 -1 0 1;
#X obj 150 140 tgl 14 0 \$0-tgl45 \$1-tgl45 empty 17 7 0 10 -262144
-1 -1 0 1;
#X obj 167 140 tgl 14 0 \$0-tgl46 \$1-tgl46 empty 17 7 0 10 -262144
-1 -1 0 1;
#X obj 184 140 tgl 14 0 \$0-tgl47 \$1-tgl47 empty 17 7 0 10 -262144
-1 -1 0 1;
#X obj 65 158 tgl 14 0 \$0-tgl48 \$1-tgl48 empty 17 7 0 10 -262144
-1 -1 0 1;
#X obj 82 158 tgl 14 0 \$0-tgl49 \$1-tgl49 empty 17 7 0 10 -262144
-1 -1 0 1;
#X obj 99 158 tgl 14 0 \$0-tgl50 \$1-tgl50 empty 17 7 0 10 -262144
-1 -1 0 1;
#X obj 116 158 tgl 14 0 \$0-tgl51 \$1-tgl51 empty 17 7 0 10 -262144
-1 -1 0 1;
#X obj 133 158 tgl 14 0 \$0-tgl52 \$1-tgl52 empty 17 7 0 10 -262144
-1 -1 0 1;
#X obj 150 158 tgl 14 0 \$0-tgl53 \$1-tgl53 empty 17 7 0 10 -262144
-1 -1 0 1;
#X obj 167 158 tgl 14 0 \$0-tgl54 \$1-tgl54 empty 17 7 0 10 -262144
-1 -1 0 1;
#X obj 184 158 tgl 14 0 \$0-tgl55 \$1-tgl55 empty 17 7 0 10 -262144
-1 -1 0 1;
#X obj 65 176 tgl 14 0 \$0-tgl56 \$1-tgl56 empty 17 7 0 10 -262144
-1 -1 0 1;
#X obj 82 176 tgl 14 0 \$0-tgl57 \$1-tgl57 empty 17 7 0 10 -262144
-1 -1 0 1;
#X obj 99 176 tgl 14 0 \$0-tgl58 \$1-tgl58 empty 17 7 0 10 -262144
-1 -1 0 1;
#X obj 116 176 tgl 14 0 \$0-tgl59 \$1-tgl59 empty 17 7 0 10 -262144
-1 -1 0 1;
#X obj 133 176 tgl 14 0 \$0-tgl60 \$1-tgl60 empty 17 7 0 10 -262144
-1 -1 0 1;
#X obj 150 176 tgl 14 0 \$0-tgl61 \$1-tgl61 empty 17 7 0 10 -262144
-1 -1 0 1;
#X obj 167 176 tgl 14 0 \$0-tgl62 \$1-tgl62 empty 17 7 0 10 -262144
-1 -1 0 1;
#X obj 184 176 tgl 14 0 \$0-tgl63 \$1-tgl63 empty 17 7 0 10 -262144
-1 -1 0 1;
#X obj 61 411 table \$0-picoseq 64;
#N canvas 417 477 1107 512 guts 0;
#X obj 58 75 f 0;
#X obj 31 52 t f b;
#X obj 31 102 tabwrite \$0-picoseq;
#X obj 155 52 t f b;
#X obj 155 102 tabwrite \$0-picoseq;
#X obj 182 75 f 1;
#X obj 278 52 t f b;
#X obj 278 102 tabwrite \$0-picoseq;
#X obj 402 52 t f b;
#X obj 402 102 tabwrite \$0-picoseq;
#X obj 305 75 f 2;
#X obj 429 75 f 3;
#X obj 30 27 r \$0-tgl0;
#X obj 154 27 r \$0-tgl1;
#X obj 277 26 r \$0-tgl2;
#X obj 401 27 r \$0-tgl3;
#X obj 528 52 t f b;
#X obj 528 102 tabwrite \$0-picoseq;
#X obj 652 52 t f b;
#X obj 652 102 tabwrite \$0-picoseq;
#X obj 775 52 t f b;
#X obj 775 102 tabwrite \$0-picoseq;
#X obj 899 52 t f b;
#X obj 899 102 tabwrite \$0-picoseq;
#X obj 527 27 r \$0-tgl4;
#X obj 651 27 r \$0-tgl5;
#X obj 774 26 r \$0-tgl6;
#X obj 898 27 r \$0-tgl7;
#X obj 555 75 f 4;
#X obj 679 75 f 5;
#X obj 802 75 f 6;
#X obj 926 75 f 7;
#X obj 35 176 t f b;
#X obj 35 226 tabwrite \$0-picoseq;
#X obj 159 176 t f b;
#X obj 159 226 tabwrite \$0-picoseq;
#X obj 282 176 t f b;
#X obj 282 226 tabwrite \$0-picoseq;
#X obj 406 176 t f b;
#X obj 406 226 tabwrite \$0-picoseq;
#X obj 34 151 r \$0-tgl8;
#X obj 158 151 r \$0-tgl9;
#X obj 281 150 r \$0-tgl10;
#X obj 405 151 r \$0-tgl11;
#X obj 532 176 t f b;
#X obj 532 226 tabwrite \$0-picoseq;
#X obj 656 176 t f b;
#X obj 656 226 tabwrite \$0-picoseq;
#X obj 779 176 t f b;
#X obj 779 226 tabwrite \$0-picoseq;
#X obj 903 176 t f b;
#X obj 903 226 tabwrite \$0-picoseq;
#X obj 531 151 r \$0-tgl12;
#X obj 655 151 r \$0-tgl13;
#X obj 778 150 r \$0-tgl14;
#X obj 902 151 r \$0-tgl15;
#X obj 62 199 f 8;
#X obj 186 199 f 9;
#X obj 309 199 f 10;
#X obj 433 199 f 11;
#X obj 559 199 f 12;
#X obj 683 199 f 13;
#X obj 806 199 f 14;
#X obj 930 199 f 15;
#X obj 33 292 t f b;
#X obj 33 342 tabwrite \$0-picoseq;
#X obj 157 292 t f b;
#X obj 157 342 tabwrite \$0-picoseq;
#X obj 280 292 t f b;
#X obj 280 342 tabwrite \$0-picoseq;
#X obj 404 292 t f b;
#X obj 404 342 tabwrite \$0-picoseq;
#X obj 32 267 r \$0-tgl16;
#X obj 156 267 r \$0-tgl17;
#X obj 279 266 r \$0-tgl18;
#X obj 403 267 r \$0-tgl19;
#X obj 530 292 t f b;
#X obj 530 342 tabwrite \$0-picoseq;
#X obj 654 292 t f b;
#X obj 654 342 tabwrite \$0-picoseq;
#X obj 777 292 t f b;
#X obj 777 342 tabwrite \$0-picoseq;
#X obj 901 292 t f b;
#X obj 901 342 tabwrite \$0-picoseq;
#X obj 529 267 r \$0-tgl20;
#X obj 653 267 r \$0-tgl21;
#X obj 776 266 r \$0-tgl22;
#X obj 900 267 r \$0-tgl23;
#X obj 37 416 t f b;
#X obj 37 466 tabwrite \$0-picoseq;
#X obj 161 416 t f b;
#X obj 161 466 tabwrite \$0-picoseq;
#X obj 284 416 t f b;
#X obj 284 466 tabwrite \$0-picoseq;
#X obj 408 416 t f b;
#X obj 408 466 tabwrite \$0-picoseq;
#X obj 36 391 r \$0-tgl24;
#X obj 160 391 r \$0-tgl25;
#X obj 283 390 r \$0-tgl26;
#X obj 407 391 r \$0-tgl27;
#X obj 534 416 t f b;
#X obj 534 466 tabwrite \$0-picoseq;
#X obj 658 416 t f b;
#X obj 658 466 tabwrite \$0-picoseq;
#X obj 781 416 t f b;
#X obj 781 466 tabwrite \$0-picoseq;
#X obj 905 416 t f b;
#X obj 905 466 tabwrite \$0-picoseq;
#X obj 533 391 r \$0-tgl28;
#X obj 657 391 r \$0-tgl29;
#X obj 780 390 r \$0-tgl30;
#X obj 904 391 r \$0-tgl31;
#X obj 60 315 f 16;
#X obj 64 439 f 24;
#X obj 184 315 f 17;
#X obj 307 315 f 18;
#X obj 431 315 f 19;
#X obj 557 315 f 20;
#X obj 681 315 f 21;
#X obj 804 315 f 22;
#X obj 928 315 f 23;
#X obj 188 439 f 25;
#X obj 311 439 f 26;
#X obj 435 439 f 27;
#X obj 561 439 f 28;
#X obj 685 439 f 29;
#X obj 808 439 f 30;
#X obj 932 439 f 31;
#X obj 59 572 f 32;
#X obj 32 549 t f b;
#X obj 32 599 tabwrite \$0-picoseq;
#X obj 156 549 t f b;
#X obj 156 599 tabwrite \$0-picoseq;
#X obj 183 572 f 33;
#X obj 279 549 t f b;
#X obj 279 599 tabwrite \$0-picoseq;
#X obj 403 549 t f b;
#X obj 403 599 tabwrite \$0-picoseq;
#X obj 306 572 f 34;
#X obj 430 572 f 35;
#X obj 31 524 r \$0-tgl32;
#X obj 155 524 r \$0-tgl33;
#X obj 278 523 r \$0-tgl34;
#X obj 402 524 r \$0-tgl35;
#X obj 529 549 t f b;
#X obj 529 599 tabwrite \$0-picoseq;
#X obj 653 549 t f b;
#X obj 653 599 tabwrite \$0-picoseq;
#X obj 776 549 t f b;
#X obj 776 599 tabwrite \$0-picoseq;
#X obj 900 549 t f b;
#X obj 900 599 tabwrite \$0-picoseq;
#X obj 528 524 r \$0-tgl36;
#X obj 652 524 r \$0-tgl37;
#X obj 775 523 r \$0-tgl38;
#X obj 899 524 r \$0-tgl39;
#X obj 556 572 f 36;
#X obj 680 572 f 37;
#X obj 803 572 f 38;
#X obj 927 572 f 39;
#X obj 36 673 t f b;
#X obj 36 723 tabwrite \$0-picoseq;
#X obj 160 673 t f b;
#X obj 160 723 tabwrite \$0-picoseq;
#X obj 283 673 t f b;
#X obj 283 723 tabwrite \$0-picoseq;
#X obj 407 673 t f b;
#X obj 407 723 tabwrite \$0-picoseq;
#X obj 35 648 r \$0-tgl40;
#X obj 159 648 r \$0-tgl41;
#X obj 282 647 r \$0-tgl42;
#X obj 406 648 r \$0-tgl43;
#X obj 533 673 t f b;
#X obj 533 723 tabwrite \$0-picoseq;
#X obj 657 673 t f b;
#X obj 657 723 tabwrite \$0-picoseq;
#X obj 780 673 t f b;
#X obj 780 723 tabwrite \$0-picoseq;
#X obj 904 673 t f b;
#X obj 904 723 tabwrite \$0-picoseq;
#X obj 532 648 r \$0-tgl44;
#X obj 656 648 r \$0-tgl45;
#X obj 779 647 r \$0-tgl46;
#X obj 903 648 r \$0-tgl47;
#X obj 63 696 f 40;
#X obj 187 696 f 41;
#X obj 310 696 f 42;
#X obj 434 696 f 43;
#X obj 560 696 f 44;
#X obj 684 696 f 45;
#X obj 807 696 f 46;
#X obj 931 696 f 47;
#X obj 34 789 t f b;
#X obj 34 839 tabwrite \$0-picoseq;
#X obj 158 789 t f b;
#X obj 158 839 tabwrite \$0-picoseq;
#X obj 281 789 t f b;
#X obj 281 839 tabwrite \$0-picoseq;
#X obj 405 789 t f b;
#X obj 405 839 tabwrite \$0-picoseq;
#X obj 33 764 r \$0-tgl48;
#X obj 157 764 r \$0-tgl49;
#X obj 280 763 r \$0-tgl50;
#X obj 404 764 r \$0-tgl51;
#X obj 531 789 t f b;
#X obj 531 839 tabwrite \$0-picoseq;
#X obj 655 789 t f b;
#X obj 655 839 tabwrite \$0-picoseq;
#X obj 778 789 t f b;
#X obj 778 839 tabwrite \$0-picoseq;
#X obj 902 789 t f b;
#X obj 902 839 tabwrite \$0-picoseq;
#X obj 530 764 r \$0-tgl52;
#X obj 654 764 r \$0-tgl53;
#X obj 777 763 r \$0-tgl54;
#X obj 901 764 r \$0-tgl55;
#X obj 38 913 t f b;
#X obj 38 963 tabwrite \$0-picoseq;
#X obj 162 913 t f b;
#X obj 162 963 tabwrite \$0-picoseq;
#X obj 285 913 t f b;
#X obj 285 963 tabwrite \$0-picoseq;
#X obj 409 913 t f b;
#X obj 409 963 tabwrite \$0-picoseq;
#X obj 37 888 r \$0-tgl56;
#X obj 161 888 r \$0-tgl57;
#X obj 284 887 r \$0-tgl58;
#X obj 408 888 r \$0-tgl59;
#X obj 535 913 t f b;
#X obj 535 963 tabwrite \$0-picoseq;
#X obj 659 913 t f b;
#X obj 659 963 tabwrite \$0-picoseq;
#X obj 782 913 t f b;
#X obj 782 963 tabwrite \$0-picoseq;
#X obj 906 913 t f b;
#X obj 906 963 tabwrite \$0-picoseq;
#X obj 534 888 r \$0-tgl60;
#X obj 658 888 r \$0-tgl61;
#X obj 781 887 r \$0-tgl62;
#X obj 905 888 r \$0-tgl63;
#X obj 61 812 f 48;
#X obj 185 812 f 49;
#X obj 308 812 f 50;
#X obj 432 812 f 51;
#X obj 558 812 f 52;
#X obj 682 812 f 53;
#X obj 805 812 f 54;
#X obj 929 812 f 55;
#X obj 65 936 f 56;
#X obj 189 936 f 57;
#X obj 312 936 f 58;
#X obj 436 936 f 59;
#X obj 562 936 f 60;
#X obj 686 936 f 61;
#X obj 809 936 f 62;
#X obj 933 937 f 63;
#X connect 0 0 2 1;
#X connect 1 0 2 0;
#X connect 1 1 0 0;
#X connect 3 0 4 0;
#X connect 3 1 5 0;
#X connect 5 0 4 1;
#X connect 6 0 7 0;
#X connect 6 1 10 0;
#X connect 8 0 9 0;
#X connect 8 1 11 0;
#X connect 10 0 7 1;
#X connect 11 0 9 1;
#X connect 12 0 1 0;
#X connect 13 0 3 0;
#X connect 14 0 6 0;
#X connect 15 0 8 0;
#X connect 16 0 17 0;
#X connect 16 1 28 0;
#X connect 18 0 19 0;
#X connect 18 1 29 0;
#X connect 20 0 21 0;
#X connect 20 1 30 0;
#X connect 22 0 23 0;
#X connect 22 1 31 0;
#X connect 24 0 16 0;
#X connect 25 0 18 0;
#X connect 26 0 20 0;
#X connect 27 0 22 0;
#X connect 28 0 17 1;
#X connect 29 0 19 1;
#X connect 30 0 21 1;
#X connect 31 0 23 1;
#X connect 32 0 33 0;
#X connect 32 1 56 0;
#X connect 34 0 35 0;
#X connect 34 1 57 0;
#X connect 36 0 37 0;
#X connect 36 1 58 0;
#X connect 38 0 39 0;
#X connect 38 1 59 0;
#X connect 40 0 32 0;
#X connect 41 0 34 0;
#X connect 42 0 36 0;
#X connect 43 0 38 0;
#X connect 44 0 45 0;
#X connect 44 1 60 0;
#X connect 46 0 47 0;
#X connect 46 1 61 0;
#X connect 48 0 49 0;
#X connect 48 1 62 0;
#X connect 50 0 51 0;
#X connect 50 1 63 0;
#X connect 52 0 44 0;
#X connect 53 0 46 0;
#X connect 54 0 48 0;
#X connect 55 0 50 0;
#X connect 56 0 33 1;
#X connect 57 0 35 1;
#X connect 58 0 37 1;
#X connect 59 0 39 1;
#X connect 60 0 45 1;
#X connect 61 0 47 1;
#X connect 62 0 49 1;
#X connect 63 0 51 1;
#X connect 64 0 65 0;
#X connect 64 1 112 0;
#X connect 66 0 67 0;
#X connect 66 1 114 0;
#X connect 68 0 69 0;
#X connect 68 1 115 0;
#X connect 70 0 71 0;
#X connect 70 1 116 0;
#X connect 72 0 64 0;
#X connect 73 0 66 0;
#X connect 74 0 68 0;
#X connect 75 0 70 0;
#X connect 76 0 77 0;
#X connect 76 1 117 0;
#X connect 78 0 79 0;
#X connect 78 1 118 0;
#X connect 80 0 81 0;
#X connect 80 1 119 0;
#X connect 82 0 83 0;
#X connect 82 1 120 0;
#X connect 84 0 76 0;
#X connect 85 0 78 0;
#X connect 86 0 80 0;
#X connect 87 0 82 0;
#X connect 88 0 89 0;
#X connect 88 1 113 0;
#X connect 90 0 91 0;
#X connect 90 1 121 0;
#X connect 92 0 93 0;
#X connect 92 1 122 0;
#X connect 94 0 95 0;
#X connect 94 1 123 0;
#X connect 96 0 88 0;
#X connect 97 0 90 0;
#X connect 98 0 92 0;
#X connect 99 0 94 0;
#X connect 100 0 101 0;
#X connect 100 1 124 0;
#X connect 102 0 103 0;
#X connect 102 1 125 0;
#X connect 104 0 105 0;
#X connect 104 1 126 0;
#X connect 106 0 107 0;
#X connect 106 1 127 0;
#X connect 108 0 100 0;
#X connect 109 0 102 0;
#X connect 110 0 104 0;
#X connect 111 0 106 0;
#X connect 112 0 65 1;
#X connect 113 0 89 1;
#X connect 114 0 67 1;
#X connect 115 0 69 1;
#X connect 116 0 71 1;
#X connect 117 0 77 1;
#X connect 118 0 79 1;
#X connect 119 0 81 1;
#X connect 120 0 83 1;
#X connect 121 0 91 1;
#X connect 122 0 93 1;
#X connect 123 0 95 1;
#X connect 124 0 101 1;
#X connect 125 0 103 1;
#X connect 126 0 105 1;
#X connect 127 0 107 1;
#X connect 128 0 130 1;
#X connect 129 0 130 0;
#X connect 129 1 128 0;
#X connect 131 0 132 0;
#X connect 131 1 133 0;
#X connect 133 0 132 1;
#X connect 134 0 135 0;
#X connect 134 1 138 0;
#X connect 136 0 137 0;
#X connect 136 1 139 0;
#X connect 138 0 135 1;
#X connect 139 0 137 1;
#X connect 140 0 129 0;
#X connect 141 0 131 0;
#X connect 142 0 134 0;
#X connect 143 0 136 0;
#X connect 144 0 145 0;
#X connect 144 1 156 0;
#X connect 146 0 147 0;
#X connect 146 1 157 0;
#X connect 148 0 149 0;
#X connect 148 1 158 0;
#X connect 150 0 151 0;
#X connect 150 1 159 0;
#X connect 152 0 144 0;
#X connect 153 0 146 0;
#X connect 154 0 148 0;
#X connect 155 0 150 0;
#X connect 156 0 145 1;
#X connect 157 0 147 1;
#X connect 158 0 149 1;
#X connect 159 0 151 1;
#X connect 160 0 161 0;
#X connect 160 1 184 0;
#X connect 162 0 163 0;
#X connect 162 1 185 0;
#X connect 164 0 165 0;
#X connect 164 1 186 0;
#X connect 166 0 167 0;
#X connect 166 1 187 0;
#X connect 168 0 160 0;
#X connect 169 0 162 0;
#X connect 170 0 164 0;
#X connect 171 0 166 0;
#X connect 172 0 173 0;
#X connect 172 1 188 0;
#X connect 174 0 175 0;
#X connect 174 1 189 0;
#X connect 176 0 177 0;
#X connect 176 1 190 0;
#X connect 178 0 179 0;
#X connect 178 1 191 0;
#X connect 180 0 172 0;
#X connect 181 0 174 0;
#X connect 182 0 176 0;
#X connect 183 0 178 0;
#X connect 184 0 161 1;
#X connect 185 0 163 1;
#X connect 186 0 165 1;
#X connect 187 0 167 1;
#X connect 188 0 173 1;
#X connect 189 0 175 1;
#X connect 190 0 177 1;
#X connect 191 0 179 1;
#X connect 192 0 193 0;
#X connect 192 1 240 0;
#X connect 194 0 195 0;
#X connect 194 1 241 0;
#X connect 196 0 197 0;
#X connect 196 1 242 0;
#X connect 198 0 199 0;
#X connect 198 1 243 0;
#X connect 200 0 192 0;
#X connect 201 0 194 0;
#X connect 202 0 196 0;
#X connect 203 0 198 0;
#X connect 204 0 205 0;
#X connect 204 1 244 0;
#X connect 206 0 207 0;
#X connect 206 1 245 0;
#X connect 208 0 209 0;
#X connect 208 1 246 0;
#X connect 210 0 211 0;
#X connect 210 1 247 0;
#X connect 212 0 204 0;
#X connect 213 0 206 0;
#X connect 214 0 208 0;
#X connect 215 0 210 0;
#X connect 216 0 217 0;
#X connect 216 1 248 0;
#X connect 218 0 219 0;
#X connect 218 1 249 0;
#X connect 220 0 221 0;
#X connect 220 1 250 0;
#X connect 222 0 223 0;
#X connect 222 1 251 0;
#X connect 224 0 216 0;
#X connect 225 0 218 0;
#X connect 226 0 220 0;
#X connect 227 0 222 0;
#X connect 228 0 229 0;
#X connect 228 1 252 0;
#X connect 230 0 231 0;
#X connect 230 1 253 0;
#X connect 232 0 233 0;
#X connect 232 1 254 0;
#X connect 234 0 235 0;
#X connect 234 1 255 0;
#X connect 236 0 228 0;
#X connect 237 0 230 0;
#X connect 238 0 232 0;
#X connect 239 0 234 0;
#X connect 240 0 193 1;
#X connect 241 0 195 1;
#X connect 242 0 197 1;
#X connect 243 0 199 1;
#X connect 244 0 205 1;
#X connect 245 0 207 1;
#X connect 246 0 209 1;
#X connect 247 0 211 1;
#X connect 248 0 217 1;
#X connect 249 0 219 1;
#X connect 250 0 221 1;
#X connect 251 0 223 1;
#X connect 252 0 229 1;
#X connect 253 0 231 1;
#X connect 254 0 233 1;
#X connect 255 0 235 1;
#X restore 61 388 pd guts;
#X obj 61 274 inlet;
#X obj 61 341 sel 1;
#X obj 61 363 outlet;
#X obj 61 319 tabread \$0-picoseq;
#X obj 61 297 mod 64;
#N canvas 2630 863 760 514 presets 0;
#X obj 163 213 list prepend add;
#X obj 163 235 list trim;
#X obj 163 148 f \$0;
#X obj 27 148 savepanel;
#X obj 27 175 list prepend write;
#X obj 27 202 list trim;
#X obj 90 82 t b b;
#X obj 75 343 textfile;
#X obj 388 152 list prepend read;
#X obj 388 174 list trim;
#X obj 406 266 textfile;
#X msg 189 283 clear;
#X obj 162 259 t a b;
#X msg 368 227 bang;
#X msg 406 227 rewind;
#X obj 406 290 list prepend 0;
#X obj 388 196 t b b a;
#X obj 335 359 list-abs/list-enumerate;
#X msg 334 407 \; \$1-tgl\$2 \$4;
#X obj 90 56 inlet;
#X obj 163 191 zexy/tabdump;
#X obj 334 385 list-abs/list-apply prepend \$1;
#X obj 388 108 inlet;
#X obj 406 314 s \$0-picoseq;
#X msg 163 170 set \$1-picoseq \, bang;
#X connect 0 0 1 0;
#X connect 1 0 12 0;
#X connect 2 0 24 0;
#X connect 3 0 4 0;
#X connect 4 0 5 0;
#X connect 5 0 7 0;
#X connect 6 0 3 0;
#X connect 6 1 2 0;
#X connect 8 0 9 0;
#X connect 9 0 16 0;
#X connect 10 0 15 0;
#X connect 10 0 17 0;
#X connect 11 0 7 0;
#X connect 12 0 7 0;
#X connect 12 1 11 0;
#X connect 13 0 10 0;
#X connect 14 0 10 0;
#X connect 15 0 23 0;
#X connect 16 0 13 0;
#X connect 16 1 14 0;
#X connect 16 2 10 0;
#X connect 17 0 21 0;
#X connect 19 0 6 0;
#X connect 20 0 0 0;
#X connect 21 0 18 0;
#X connect 22 0 8 0;
#X connect 24 0 20 0;
#X restore 227 413 pd presets;
#X obj 302 388 inlet;
#X obj 284 333 r \$0-load;
#X obj 227 390 r \$0-save;
#X obj 284 358 openpanel;
#X text 306 412 ^- path;
#X obj 116 33 bng 14 250 50 0 \$0-load empty L 4 8 0 10 -204786 -4034
-1;
#X obj 133 33 bng 14 250 50 0 \$0-save empty S 4 8 0 10 -261234 -258113
-1;
#X connect 66 0 70 0;
#X connect 67 0 68 0;
#X connect 69 0 67 0;
#X connect 70 0 69 0;
#X connect 72 0 71 1;
#X connect 73 0 75 0;
#X connect 74 0 71 0;
#X connect 75 0 71 1;
#X coords 0 -1 1 1 143 165 2 60 30;
