#N canvas 162 267 564 234 10;
#X obj 207 50 hradio 15 1 0 12 empty empty empty 0 -8 0 10 -262144
-1 -1 11;
#X obj 275 117 hradio 15 1 0 7 empty empty empty 0 -8 0 10 -262144
-1 -1 0;
#X text 275 101 i;
#X text 290 101 d;
#X text 306 101 p;
#X text 321 101 l;
#X text 335 101 m;
#X text 353 101 a;
#X text 367 101 l;
#N canvas 0 22 230 271 modeguts 0;
#X obj 0 50 sel 0 1 2 3 4 5 6;
#X msg -1 87 2 4 5 7 9 11;
#X obj 0 24 inlet;
#X obj -2 236 outlet;
#X msg 13 111 2 3 5 7 9 10;
#X msg 27 136 1 3 5 7 8 10;
#X msg 41 159 2 4 6 7 9 11;
#X msg 69 211 2 3 5 7 8 10;
#X msg 51 186 2 4 5 7 9 10;
#X msg 84 233 1 3 5 6 8 10;
#X obj 52 22 loadbang;
#X connect 0 0 1 0;
#X connect 0 1 4 0;
#X connect 0 2 5 0;
#X connect 0 3 6 0;
#X connect 0 4 8 0;
#X connect 0 5 7 0;
#X connect 0 6 9 0;
#X connect 1 0 3 0;
#X connect 2 0 0 0;
#X connect 4 0 3 0;
#X connect 5 0 3 0;
#X connect 6 0 3 0;
#X connect 7 0 3 0;
#X connect 8 0 3 0;
#X connect 9 0 3 0;
#X connect 10 0 1 0;
#X restore 275 139 pd modeguts;
#N canvas 0 22 1002 512 scaleguts 0;
#X obj -128 49 inlet;
#X obj 129 28 inlet;
#X obj 165 98 unpack f f f f f f;
#X obj 693 332 f;
#X obj -144 123 f;
#X obj 678 353 +;
#X obj 678 424 pack f f;
#X obj 678 377 t f b;
#X obj 715 401 f 6;
#X obj -79 51 loadbang;
#X msg -79 74 0;
#X obj -128 97 s scale-changed;
#X obj -143 26 r scale-changed;
#X obj -144 148 s root-note;
#X obj 678 451 tabwrite scale_array;
#X obj 560 329 f;
#X obj 545 350 +;
#X obj 545 421 pack f f;
#X obj 545 374 t f b;
#X obj 545 448 tabwrite scale_array;
#X obj 424 330 f;
#X obj 409 351 +;
#X obj 409 422 pack f f;
#X obj 409 375 t f b;
#X obj 409 449 tabwrite scale_array;
#X obj 291 327 f;
#X obj 276 348 +;
#X obj 276 419 pack f f;
#X obj 276 372 t f b;
#X obj 276 446 tabwrite scale_array;
#X obj 158 328 f;
#X obj 143 349 +;
#X obj 143 420 pack f f;
#X obj 143 373 t f b;
#X obj 143 447 tabwrite scale_array;
#X obj 25 325 f;
#X obj 10 346 +;
#X obj 10 417 pack f f;
#X obj 10 370 t f b;
#X obj 9 258 r root-note;
#X obj 10 444 tabwrite scale_array;
#X obj 582 398 f 5;
#X obj 446 399 f 4;
#X obj 313 396 f 3;
#X obj 180 397 f 2;
#X obj 47 394 f 1;
#X obj -148 258 r root-note;
#X obj -149 416 pack f f;
#X obj -149 369 t f b;
#X obj -149 443 tabwrite scale_array;
#X obj -112 393 f 0;
#X obj -148 339 f;
#X obj 129 73 s scale-changed;
#X obj 10 280 f;
#X obj 143 259 r root-note;
#X obj 144 281 f;
#X obj 273 261 r root-note;
#X obj 274 283 f;
#X obj 407 262 r root-note;
#X obj 408 284 f;
#X obj 530 265 r root-note;
#X obj 531 287 f;
#X obj 665 266 r root-note;
#X obj 665 288 f;
#X obj 26 304 r scale-changed;
#X obj 158 307 r scale-changed;
#X obj 291 306 r scale-changed;
#X obj 424 309 r scale-changed;
#X obj 560 308 r scale-changed;
#X obj 693 311 r scale-changed;
#X obj 129 48 t b l;
#X obj -128 72 t b f;
#X connect 0 0 71 0;
#X connect 1 0 70 0;
#X connect 2 0 35 1;
#X connect 2 1 30 1;
#X connect 2 2 25 1;
#X connect 2 3 20 1;
#X connect 2 4 15 1;
#X connect 2 5 3 1;
#X connect 3 0 5 1;
#X connect 4 0 13 0;
#X connect 5 0 7 0;
#X connect 6 0 14 0;
#X connect 7 0 6 0;
#X connect 7 1 8 0;
#X connect 8 0 6 1;
#X connect 9 0 10 0;
#X connect 10 0 71 0;
#X connect 12 0 4 0;
#X connect 15 0 16 1;
#X connect 16 0 18 0;
#X connect 17 0 19 0;
#X connect 18 0 17 0;
#X connect 18 1 41 0;
#X connect 20 0 21 1;
#X connect 21 0 23 0;
#X connect 22 0 24 0;
#X connect 23 0 22 0;
#X connect 23 1 42 0;
#X connect 25 0 26 1;
#X connect 26 0 28 0;
#X connect 27 0 29 0;
#X connect 28 0 27 0;
#X connect 28 1 43 0;
#X connect 30 0 31 1;
#X connect 31 0 33 0;
#X connect 32 0 34 0;
#X connect 33 0 32 0;
#X connect 33 1 44 0;
#X connect 35 0 36 1;
#X connect 36 0 38 0;
#X connect 37 0 40 0;
#X connect 38 0 37 0;
#X connect 38 1 45 0;
#X connect 39 0 53 0;
#X connect 41 0 17 1;
#X connect 42 0 22 1;
#X connect 43 0 27 1;
#X connect 44 0 32 1;
#X connect 45 0 37 1;
#X connect 46 0 51 0;
#X connect 47 0 49 0;
#X connect 48 0 47 0;
#X connect 48 1 50 0;
#X connect 50 0 47 1;
#X connect 51 0 48 0;
#X connect 53 0 36 0;
#X connect 54 0 55 0;
#X connect 55 0 31 0;
#X connect 56 0 57 0;
#X connect 57 0 26 0;
#X connect 58 0 59 0;
#X connect 59 0 21 0;
#X connect 60 0 61 0;
#X connect 61 0 16 0;
#X connect 62 0 63 0;
#X connect 63 0 5 0;
#X connect 64 0 35 0;
#X connect 65 0 30 0;
#X connect 66 0 25 0;
#X connect 67 0 20 0;
#X connect 68 0 15 0;
#X connect 69 0 3 0;
#X connect 70 0 52 0;
#X connect 70 1 2 0;
#X connect 71 0 11 0;
#X connect 71 1 4 1;
#X restore 206 161 pd scaleguts;
#X text 245 26 pitch (0 - 11);
#X obj 266 82 inlet;
#X text 303 81 mode (0 - 6);
#X obj 207 27 inlet;
#X obj 207 192 table scale_array 7;
#X connect 0 0 10 0;
#X connect 1 0 9 0;
#X connect 9 0 10 1;
#X connect 12 0 1 0;
#X connect 14 0 0 0;
