#N canvas 881 394 715 452 10;
#N canvas 240 146 473 564 spectrum 0;
#X obj 326 152 rfft~;
#N canvas 51 367 1153 478 (subpatch) 0;
#X array spectrum2 128 float 0 black black;
#X coords 0 512 127 0 400 150 1;
#X restore 36 379 graph;
#X obj 326 179 *~;
#X obj 353 179 *~;
#X obj 326 230 biquad~ 0 0 0 0 1;
#X obj 326 208 q8_sqrt~;
#X text 35 531 20Hz;
#X text 412 530 2KHz;
#X obj 310 328 tabwrite~ spectrum2;
#X obj 327 25 inlet~;
#X obj 42 27 block~ 2048;
#X obj 193 275 metro 50;
#X obj 193 225 r startmetro;
#X obj 238 247 r metrospeed;
#X connect 0 0 2 0;
#X connect 0 0 2 1;
#X connect 0 1 3 0;
#X connect 0 1 3 1;
#X connect 2 0 5 0;
#X connect 3 0 5 0;
#X connect 4 0 8 0;
#X connect 5 0 4 0;
#X connect 9 0 0 0;
#X connect 11 0 8 0;
#X connect 12 0 11 0;
#X connect 13 0 11 1;
#X coords 0 -1 1 1 420 200 1 25 350;
#X restore 13 35 pd spectrum;
#X obj 480 123 adc~ 1;
#X obj 13 8 r~ raw;
#X obj 467 387 tabwrite~ array1;
#N canvas 0 0 450 300 (subpatch) 0;
#X array array1 441 float 2 black black;
#X coords 0 1 441 -1 425 150 1;
#X restore 11 252 graph;
#X obj 454 99 inlet~;
#X obj 480 146 hip~ 30;
#X obj 480 170 s~ raw;
#X obj 481 330 r~ raw;
#X obj 468 308 metro 50;
#X obj 606 224 s startmetro;
#X obj 606 196 loadbang;
#X msg 566 195 bang;
#X obj 468 264 r startmetro;
#X obj 513 286 r metrospeed;
#X floatatom 600 85 5 0 0 0 - - -, f 5;
#X obj 579 131 s metrospeed;
#X obj 579 106 f 70;
#X obj 579 64 r startmetro;
#X obj 482 358 tanh~;
#X connect 1 0 6 0;
#X connect 2 0 0 0;
#X connect 5 0 6 0;
#X connect 6 0 7 0;
#X connect 8 0 19 0;
#X connect 9 0 3 0;
#X connect 11 0 10 0;
#X connect 12 0 10 0;
#X connect 13 0 9 0;
#X connect 14 0 9 1;
#X connect 15 0 17 1;
#X connect 17 0 16 0;
#X connect 18 0 17 0;
#X connect 19 0 3 0;
