#N canvas 815 984 779 360 10;
#X obj 43 134 pack f f f;
#X msg 44 160 \$1 \, \$2 \$3;
#X obj 42 69 f \$1;
#X obj 71 90 f \$2;
#X obj 100 111 f \$3;
#X obj 136 139 f \$4;
#X msg 136 163 1 \, 0 \$1;
#X obj 137 192 line~;
#X obj 138 223 *~;
#X obj 43 248 osc~;
#X msg 64 223 0.5;
#X obj 44 195 line~;
#X obj 65 285 *~;
#X obj 55 29 t b b b b b;
#X obj 55 5 inlet;
#X obj 66 332 outlet~;
#X obj 156 3 inlet;
#X obj 229 5 inlet;
#X obj 293 5 inlet;
#X obj 366 7 inlet;
#X text 230 179 1 trigger;
#X text 229 150 inlets:;
#X text 230 196 2 freq start;
#X text 230 213 3 freq end;
#X text 230 232 4 freq decay time;
#X text 231 249 5 amp decay time;
#X obj 137 251 lop~ 150;
#X obj 66 308 tanh~;
#X connect 0 0 1 0;
#X connect 1 0 11 0;
#X connect 2 0 0 0;
#X connect 3 0 0 1;
#X connect 4 0 0 2;
#X connect 5 0 6 0;
#X connect 6 0 7 0;
#X connect 7 0 8 0;
#X connect 7 0 8 1;
#X connect 8 0 26 0;
#X connect 9 0 12 0;
#X connect 10 0 9 1;
#X connect 11 0 9 0;
#X connect 12 0 27 0;
#X connect 13 0 5 0;
#X connect 13 1 10 0;
#X connect 13 2 2 0;
#X connect 13 3 3 0;
#X connect 13 4 4 0;
#X connect 14 0 13 0;
#X connect 16 0 2 1;
#X connect 17 0 3 1;
#X connect 18 0 4 1;
#X connect 19 0 5 1;
#X connect 26 0 12 1;
#X connect 27 0 15 0;
