#N canvas 744 615 450 300 10;
#X obj 90 5 inlet;
#X obj 265 157 outlet;
#X obj 90 52 random 3;
#X obj 90 77 sel 0 1 2;
#X obj 90 255 f \$1;
#X obj 124 120 f \$3;
#X obj 90 29 t b;
#X obj 107 188 f \$2;
#X obj 124 143 s \$0-out;
#X obj 265 134 r \$0-out;
#X obj 107 210 s \$0-out;
#X obj 90 277 s \$0-out;
#X obj 145 97 inlet;
#X obj 128 165 inlet;
#X obj 111 232 inlet;
#X connect 0 0 6 0;
#X connect 2 0 3 0;
#X connect 3 0 4 0;
#X connect 3 1 7 0;
#X connect 3 2 5 0;
#X connect 4 0 11 0;
#X connect 5 0 8 0;
#X connect 6 0 2 0;
#X connect 7 0 10 0;
#X connect 9 0 1 0;
#X connect 12 0 5 1;
#X connect 13 0 7 1;
#X connect 14 0 4 1;
