#N canvas 2754 393 450 371 10;
#X obj 93 59 chaos-navier-stokes;
#X obj 275 113 outlet;
#X obj 216 171 outlet;
#X obj 161 224 outlet;
#X obj 100 282 outlet;
#X obj 37 340 outlet;
#X obj 93 30 inlet;
#X obj 275 87 maxlib/scale 3 4.9 0 1 0;
#X obj 161 201 maxlib/scale -1 4.2 0 1 0;
#X obj 100 260 maxlib/scale -2.4 1.9 0 1 0;
#X obj 216 142 maxlib/scale -1.4 1.9 0 1 0;
#X obj 37 318 maxlib/scale -4.6 3.3 0 1 0;
#X connect 0 0 11 0;
#X connect 0 1 9 0;
#X connect 0 2 8 0;
#X connect 0 3 10 0;
#X connect 0 4 7 0;
#X connect 6 0 0 0;
#X connect 7 0 1 0;
#X connect 8 0 3 0;
#X connect 9 0 4 0;
#X connect 10 0 2 0;
#X connect 11 0 5 0;
