#N canvas 1524 976 223 254 10;
#N canvas 1455 680 917 366 defs 0;
#X obj 16 -79 loadbang;
#X msg 17 37 \; sawtab resize 131072 \; sawtab sinesum 131072 1 0.5
0.333333 0.25 0.2 0.166667 0.142857 0.125 0.111111 0.1 0.090909 0.083333
0.076923 0.071429 0.066667 0.0625 0.058824 0.055556 0.052632 0.05 0.047619
0.045455 0.043478 0.041667 0.04 0.038462 0.037037 0.035714 0.034483
0.033333 0.032258 0.03125 0.030303 0.029412 0.028571 0.027778 0.027027
0.026316 0.025641 0.025 0.02439 0.02381 0.023256 0.022727 0.022222
0.021739 0.021277 0.020833 0.020408 0.02 0.019608 0.019231 0.018868
0.018519 0.018182 0.017857 0.017544 0.017241 0.016949 0.016667 0.016393
0.016129 0.015873 0.015625 0.015385 0.015152 0.014925 0.014706 0.014493
0.014286 0.014085 0.013889 0.013699 0.013514 0.013333 0.013158 0.012987
0.012821 0.012658 0.0125 0.012346 0.012195 0.012048 0.011905 0.011765
0.011628 0.011494 0.011364 0.011236 0.011111 0.010989 0.01087 0.010753
0.010638 0.010526 0.010417 0.010309 0.010204 0.010101 \; sawtab normalize
;
#X msg 395 -74 \; tritab resize 131072 \; tritab sinesum 131072 1 0
-0.111111 0 0.04 0 -0.020408 0 0.012346 0 -0.008264 0 0.005917 0 -0.004444
0 0.00346 0 -0.00277 0 0.002268 0 -0.00189 0 0.0016 0 -0.001372 0 0.001189
0 -0.001041 0 0.000918 0 -0.000816 0 0.00073 0 -0.000657 0 0.000595
0 -0.000541 0 0.000494 0 -0.000453 0 0.000416 0 -0.000384 0 0.000356
0 -0.000331 0 0.000308 0 -0.000287 0 0.000269 0 -0.000252 0 0.000237
0 -0.000223 0 0.00021 0 -0.000198 0 0.000188 0 -0.000178 0 0.000169
0 -0.00016 0 0.000152 0 -0.000145 0 0.000138 0 -0.000132 0 0.000126
0 -0.000121 0 0.000116 0 -0.000111 0 0.000106 0 -0.000102 \; tritab
normalize;
#X msg 397 123 \; sqrtab resize 131072 \; sqrtab sinesum 131072 1 0
0.333333 0 0.2 0 0.142857 0 0.111111 0 0.090909 0 0.076923 0 0.066667
0 0.058824 0 0.052632 0 0.047619 0 0.043478 0 0.04 0 0.037037 0 0.034483
0 0.032258 0 0.030303 0 0.028571 0 0.027027 0 0.025641 0 0.02439 0
0.023256 0 0.022222 0 0.021277 0 0.020408 0 0.019608 0 0.018868 0 0.018182
0 0.017544 0 0.016949 0 0.016393 0 0.015873 0 0.015385 0 0.014925 0
0.014493 0 0.014085 0 0.013699 0 0.013333 0 0.012987 0 0.012658 0 0.012346
0 0.012048 0 0.011765 0 0.011494 0 0.011236 0 0.010989 0 0.010753 0
0.010526 0 0.010309 \; sqrtab normalize;
#X connect 0 0 1 0;
#X connect 0 0 2 0;
#X connect 0 0 3 0;
#X restore 43 70 pd defs;
#X obj 43 96 table sawtab;
#X obj 43 119 table tritab;
#X obj 44 144 table sqrtab;
