#N canvas 1231 1118 194 214 10;
#X obj 33 80 moses 10;
#X obj 79 113 moses 50;
#X obj 34 48 random 100;
#X obj 34 140 t b;
#X obj 79 140 t b;
#X obj 124 140 t b;
#X obj 34 21 inlet;
#X obj 33 165 outlet;
#X obj 79 165 outlet;
#X obj 124 165 outlet;
#X connect 0 0 3 0;
#X connect 0 1 1 0;
#X connect 1 0 4 0;
#X connect 1 1 5 0;
#X connect 2 0 0 0;
#X connect 3 0 7 0;
#X connect 4 0 8 0;
#X connect 5 0 9 0;
#X connect 6 0 2 0;
