#N canvas 437 399 478 373 10;
#X obj 15 59 moses 10;
#X obj 15 34 random 100;
#X obj 15 89 t b;
#X obj 60 118 t b;
#X obj 15 7 inlet;
#X obj 60 86 moses 20;
#X obj 105 113 moses 30;
#X obj 105 145 t b;
#X obj 150 144 moses 40;
#X obj 195 171 moses 50;
#X obj 150 170 t b;
#X obj 195 196 t b;
#X obj 15 117 outlet;
#X obj 240 230 t b;
#X obj 285 257 t b;
#X obj 330 283 t b;
#X obj 375 309 t b;
#X obj 240 198 moses 60;
#X obj 285 225 moses 70;
#X obj 330 257 moses 80;
#X obj 375 284 moses 90;
#X obj 420 309 t b;
#X obj 60 144 outlet;
#X obj 105 170 outlet;
#X obj 150 196 outlet;
#X obj 195 229 outlet;
#X obj 240 257 outlet;
#X obj 285 284 outlet;
#X obj 330 309 outlet;
#X obj 375 335 outlet;
#X obj 420 335 outlet;
#X connect 0 0 2 0;
#X connect 0 1 5 0;
#X connect 1 0 0 0;
#X connect 2 0 12 0;
#X connect 3 0 22 0;
#X connect 4 0 1 0;
#X connect 5 0 3 0;
#X connect 5 1 6 0;
#X connect 6 0 7 0;
#X connect 6 1 8 0;
#X connect 7 0 23 0;
#X connect 8 0 10 0;
#X connect 8 1 9 0;
#X connect 9 0 11 0;
#X connect 9 1 17 0;
#X connect 10 0 24 0;
#X connect 11 0 25 0;
#X connect 13 0 26 0;
#X connect 14 0 27 0;
#X connect 15 0 28 0;
#X connect 16 0 29 0;
#X connect 17 0 13 0;
#X connect 17 1 18 0;
#X connect 18 0 14 0;
#X connect 18 1 19 0;
#X connect 19 0 15 0;
#X connect 19 1 20 0;
#X connect 20 0 16 0;
#X connect 20 1 21 0;
#X connect 21 0 30 0;
